<svg width="1426" height="535" viewBox="0 0 1426 535" fill="none" xmlns="http://www.w3.org/2000/svg">
<rect width="1426" height="535" fill="white"/>
<rect width="130" height="47" transform="translate(648 45)" fill="#F87729"/>
<path d="M674.912 63.88H676.672V64.296C676.672 64.8613 676.56 65.4 676.336 65.912C676.123 66.424 675.797 66.888 675.36 67.304C674.933 67.7093 674.411 68.056 673.792 68.344C673.173 68.632 672.459 68.8347 671.648 68.952L670.816 67.32C671.349 67.256 671.835 67.1493 672.272 67C672.709 66.8507 673.093 66.68 673.424 66.488C673.755 66.2853 674.027 66.0667 674.24 65.832C674.464 65.5973 674.629 65.3467 674.736 65.08C674.853 64.8133 674.912 64.552 674.912 64.296V63.88ZM675.376 63.88H677.136V64.296C677.136 64.552 677.189 64.8133 677.296 65.08C677.413 65.3467 677.579 65.5973 677.792 65.832C678.016 66.0667 678.288 66.2853 678.608 66.488C678.939 66.68 679.323 66.8507 679.76 67C680.197 67.1493 680.688 67.256 681.232 67.32L680.4 68.952C679.589 68.8347 678.869 68.632 678.24 68.344C677.621 68.056 677.099 67.7093 676.672 67.304C676.245 66.888 675.92 66.424 675.696 65.912C675.483 65.4 675.376 64.8613 675.376 64.296V63.88ZM674.976 70.616H677.04V75.672H674.976V70.616ZM670.64 69.608H681.376V71.336H670.64V69.608ZM671.632 63.096H680.4V64.808H671.632V63.096ZM670.416 76.44C669.68 75.32 669.168 74.152 668.88 72.936C668.592 71.7093 668.448 70.3707 668.448 68.92C668.448 67.48 668.592 66.1467 668.88 64.92C669.168 63.6933 669.68 62.52 670.416 61.4L671.328 61.656C670.891 62.392 670.549 63.1493 670.304 63.928C670.069 64.696 669.904 65.496 669.808 66.328C669.723 67.1493 669.675 68.0133 669.664 68.92C669.664 69.8267 669.707 70.696 669.792 71.528C669.888 72.36 670.059 73.16 670.304 73.928C670.549 74.6853 670.891 75.4373 671.328 76.184L670.416 76.44ZM681.584 76.44L680.672 76.184C681.333 75.0747 681.776 73.896 682 72.648C682.224 71.4 682.336 70.1573 682.336 68.92C682.336 68.0027 682.288 67.1333 682.192 66.312C682.096 65.48 681.925 64.68 681.68 63.912C681.445 63.144 681.109 62.392 680.672 61.656L681.584 61.4C682.32 62.52 682.832 63.6933 683.12 64.92C683.408 66.1467 683.552 67.48 683.552 68.92C683.552 70.3707 683.408 71.7093 683.12 72.936C682.832 74.152 682.32 75.32 681.584 76.44ZM684.672 68.568H698.064V70.248H684.672V68.568ZM690.304 66.344H692.432V69.224H690.304V66.344ZM686.288 65.672H696.544V67.336H686.288V65.672ZM686.288 62.232H696.464V63.912H688.4V66.728H686.288V62.232ZM691.312 70.984C692.912 70.984 694.171 71.224 695.088 71.704C696.005 72.1733 696.464 72.8453 696.464 73.72C696.464 74.584 696.005 75.2507 695.088 75.72C694.171 76.2 692.912 76.44 691.312 76.44C689.712 76.44 688.453 76.2 687.536 75.72C686.629 75.2507 686.176 74.584 686.176 73.72C686.176 72.8453 686.629 72.1733 687.536 71.704C688.453 71.224 689.712 70.984 691.312 70.984ZM691.312 72.6C690.651 72.6 690.096 72.6427 689.648 72.728C689.211 72.8027 688.88 72.9253 688.656 73.096C688.432 73.256 688.32 73.4587 688.32 73.704C688.32 73.96 688.432 74.1733 688.656 74.344C688.88 74.504 689.211 74.6267 689.648 74.712C690.096 74.7867 690.651 74.824 691.312 74.824C691.973 74.824 692.523 74.7867 692.96 74.712C693.408 74.6267 693.744 74.504 693.968 74.344C694.192 74.1733 694.304 73.96 694.304 73.704C694.304 73.4587 694.192 73.256 693.968 73.096C693.744 72.9253 693.408 72.8027 692.96 72.728C692.523 72.6427 691.973 72.6 691.312 72.6ZM703.231 69.208H705.359V72.44H703.231V69.208ZM709.711 61.592H711.839V72.824H709.711V61.592ZM701.167 74.456H712.175V76.168H701.167V74.456ZM701.167 71.752H703.295V74.92H701.167V71.752ZM699.583 69.848L699.311 68.152C700.217 68.1413 701.204 68.1307 702.271 68.12C703.337 68.0987 704.425 68.056 705.535 67.992C706.644 67.928 707.711 67.832 708.735 67.704L708.879 69.224C707.823 69.4053 706.745 69.544 705.647 69.64C704.559 69.7253 703.497 69.7787 702.463 69.8C701.428 69.8213 700.468 69.8373 699.583 69.848ZM706.927 70.2H710.191V71.656H706.927V70.2ZM704.079 62.104C704.804 62.104 705.444 62.216 705.999 62.44C706.553 62.664 706.985 62.9733 707.295 63.368C707.615 63.7627 707.775 64.2267 707.775 64.76C707.775 65.2827 707.615 65.7467 707.295 66.152C706.985 66.5467 706.553 66.8507 705.999 67.064C705.444 67.2773 704.804 67.384 704.079 67.384C703.353 67.384 702.708 67.2773 702.143 67.064C701.588 66.8507 701.156 66.5467 700.847 66.152C700.537 65.7467 700.383 65.2827 700.383 64.76C700.383 64.2267 700.537 63.7627 700.847 63.368C701.156 62.9733 701.588 62.664 702.143 62.44C702.708 62.216 703.353 62.104 704.079 62.104ZM704.079 63.656C703.588 63.656 703.183 63.7467 702.863 63.928C702.553 64.1093 702.399 64.3867 702.399 64.76C702.399 65.112 702.553 65.384 702.863 65.576C703.183 65.7573 703.588 65.848 704.079 65.848C704.58 65.848 704.98 65.7573 705.279 65.576C705.588 65.384 705.743 65.112 705.743 64.76C705.743 64.5147 705.673 64.312 705.535 64.152C705.396 63.992 705.204 63.8693 704.959 63.784C704.713 63.6987 704.42 63.656 704.079 63.656ZM724.254 61.576H726.382V76.44H724.254V61.576ZM718.398 62.616C719.155 62.616 719.827 62.8347 720.414 63.272C721 63.6987 721.459 64.312 721.79 65.112C722.131 65.9013 722.302 66.8347 722.302 67.912C722.302 69 722.131 69.944 721.79 70.744C721.459 71.5333 721 72.1467 720.414 72.584C719.827 73.0107 719.155 73.224 718.398 73.224C717.651 73.224 716.984 73.0107 716.398 72.584C715.811 72.1467 715.347 71.5333 715.006 70.744C714.675 69.944 714.51 69 714.51 67.912C714.51 66.8347 714.675 65.9013 715.006 65.112C715.347 64.312 715.811 63.6987 716.398 63.272C716.984 62.8347 717.651 62.616 718.398 62.616ZM718.398 64.552C718.035 64.552 717.715 64.68 717.438 64.936C717.16 65.192 716.942 65.5707 716.782 66.072C716.632 66.5627 716.558 67.176 716.558 67.912C716.558 68.6373 716.632 69.256 716.782 69.768C716.942 70.2693 717.16 70.648 717.438 70.904C717.715 71.16 718.035 71.288 718.398 71.288C718.771 71.288 719.096 71.16 719.374 70.904C719.651 70.648 719.864 70.2693 720.014 69.768C720.174 69.256 720.254 68.6373 720.254 67.912C720.254 67.176 720.174 66.5627 720.014 66.072C719.864 65.5707 719.651 65.192 719.374 64.936C719.096 64.68 718.771 64.552 718.398 64.552ZM734.748 65.608H737.02V67.32H734.748V65.608ZM732.236 62.664C732.898 62.664 733.479 62.824 733.98 63.144C734.492 63.464 734.892 63.9067 735.18 64.472C735.479 65.0267 735.628 65.672 735.628 66.408C735.628 67.1333 735.479 67.7787 735.18 68.344C734.892 68.9093 734.492 69.352 733.98 69.672C733.479 69.992 732.898 70.152 732.236 70.152C731.586 70.152 731.004 69.992 730.492 69.672C729.98 69.352 729.58 68.9093 729.292 68.344C729.004 67.7787 728.86 67.1333 728.86 66.408C728.86 65.672 729.004 65.0267 729.292 64.472C729.58 63.9067 729.98 63.464 730.492 63.144C731.004 62.824 731.586 62.664 732.236 62.664ZM732.236 64.504C731.948 64.504 731.692 64.5787 731.468 64.728C731.244 64.8773 731.068 65.096 730.94 65.384C730.823 65.6613 730.764 66.0027 730.764 66.408C730.764 66.8133 730.823 67.16 730.94 67.448C731.068 67.736 731.244 67.9547 731.468 68.104C731.692 68.2533 731.948 68.328 732.236 68.328C732.524 68.328 732.78 68.2533 733.004 68.104C733.228 67.9547 733.404 67.736 733.532 67.448C733.66 67.16 733.724 66.8133 733.724 66.408C733.724 66.0027 733.66 65.6613 733.532 65.384C733.404 65.096 733.228 64.8773 733.004 64.728C732.78 64.5787 732.524 64.504 732.236 64.504ZM739.404 61.608H741.436V72.616H739.404V61.608ZM736.476 61.848H738.476V72.184H736.476V61.848ZM731.452 74.456H741.804V76.168H731.452V74.456ZM731.452 71.224H733.596V75.352H731.452V71.224ZM754.011 61.608H756.155V76.424H754.011V61.608ZM745.355 62.776H746.907V65.272C746.907 66.0293 746.875 66.792 746.811 67.56C746.747 68.328 746.63 69.064 746.459 69.768C746.299 70.4613 746.064 71.096 745.755 71.672C745.456 72.248 745.062 72.7387 744.571 73.144L743.211 71.672C743.68 71.2987 744.059 70.8667 744.347 70.376C744.635 69.8853 744.848 69.3573 744.987 68.792C745.136 68.2267 745.232 67.6453 745.275 67.048C745.328 66.44 745.355 65.848 745.355 65.272V62.776ZM745.851 62.776H747.355V65.272C747.355 65.8373 747.376 66.4187 747.419 67.016C747.472 67.6133 747.574 68.2053 747.723 68.792C747.872 69.368 748.091 69.912 748.379 70.424C748.678 70.936 749.067 71.3893 749.547 71.784L748.395 73.352C747.851 72.936 747.408 72.424 747.067 71.816C746.736 71.208 746.48 70.536 746.299 69.8C746.128 69.064 746.011 68.3067 745.947 67.528C745.883 66.7493 745.851 65.9973 745.851 65.272V62.776ZM749.419 62.776H750.923V65.272C750.923 66.008 750.891 66.7653 750.827 67.544C750.774 68.3227 750.656 69.08 750.475 69.816C750.294 70.5413 750.038 71.208 749.707 71.816C749.376 72.424 748.939 72.936 748.395 73.352L747.243 71.784C747.723 71.3893 748.107 70.9413 748.395 70.44C748.683 69.928 748.902 69.384 749.051 68.808C749.2 68.2213 749.296 67.6293 749.339 67.032C749.392 66.4347 749.419 65.848 749.419 65.272V62.776ZM749.915 62.776H751.451V65.272C751.451 65.8587 751.472 66.456 751.515 67.064C751.568 67.6613 751.67 68.2427 751.819 68.808C751.968 69.3733 752.187 69.9013 752.475 70.392C752.763 70.8827 753.142 71.3093 753.611 71.672L752.315 73.208C751.814 72.8133 751.403 72.328 751.083 71.752C750.763 71.1653 750.518 70.52 750.347 69.816C750.187 69.1013 750.075 68.36 750.011 67.592C749.947 66.8133 749.915 66.04 749.915 65.272V62.776Z" fill="white"/>
<rect width="99" height="47" transform="translate(664 176)" fill="#F6B34A"/>
<path d="M695.344 192.592H697.376V207.408H695.344V192.592ZM693.376 198.304H695.84V200.016H693.376V198.304ZM692.032 192.848H694V206.72H692.032V192.848ZM685.072 202.32H686.096C686.715 202.32 687.301 202.315 687.856 202.304C688.411 202.283 688.96 202.245 689.504 202.192C690.059 202.128 690.624 202.048 691.2 201.952L691.376 203.68C690.779 203.787 690.197 203.872 689.632 203.936C689.067 204 688.496 204.043 687.92 204.064C687.344 204.075 686.736 204.08 686.096 204.08H685.072V202.32ZM685.072 194.32H690.528V196.032H687.168V203.168H685.072V194.32ZM702.671 200.656H704.783V204.64H702.671V200.656ZM707.327 200.672H709.439V204.656H707.327V200.672ZM699.375 204.08H712.799V205.792H699.375V204.08ZM700.399 193.76H711.695V195.472H700.399V193.76ZM700.479 199.616H711.647V201.296H700.479V199.616ZM702.415 195.168H704.543V199.856H702.415V195.168ZM707.551 195.168H709.679V199.856H707.551V195.168ZM724.254 192.576H726.382V207.44H724.254V192.576ZM718.398 193.616C719.155 193.616 719.827 193.835 720.414 194.272C721 194.699 721.459 195.312 721.79 196.112C722.131 196.901 722.302 197.835 722.302 198.912C722.302 200 722.131 200.944 721.79 201.744C721.459 202.533 721 203.147 720.414 203.584C719.827 204.011 719.155 204.224 718.398 204.224C717.651 204.224 716.984 204.011 716.398 203.584C715.811 203.147 715.347 202.533 715.006 201.744C714.675 200.944 714.51 200 714.51 198.912C714.51 197.835 714.675 196.901 715.006 196.112C715.347 195.312 715.811 194.699 716.398 194.272C716.984 193.835 717.651 193.616 718.398 193.616ZM718.398 195.552C718.035 195.552 717.715 195.68 717.438 195.936C717.16 196.192 716.942 196.571 716.782 197.072C716.632 197.563 716.558 198.176 716.558 198.912C716.558 199.637 716.632 200.256 716.782 200.768C716.942 201.269 717.16 201.648 717.438 201.904C717.715 202.16 718.035 202.288 718.398 202.288C718.771 202.288 719.096 202.16 719.374 201.904C719.651 201.648 719.864 201.269 720.014 200.768C720.174 200.256 720.254 199.637 720.254 198.912C720.254 198.176 720.174 197.563 720.014 197.072C719.864 196.571 719.651 196.192 719.374 195.936C719.096 195.68 718.771 195.552 718.398 195.552ZM732.14 193.744H733.852V195.888C733.852 196.805 733.772 197.701 733.612 198.576C733.452 199.44 733.202 200.245 732.86 200.992C732.53 201.739 732.108 202.405 731.596 202.992C731.084 203.568 730.482 204.027 729.788 204.368L728.508 202.656C729.138 202.368 729.676 201.984 730.124 201.504C730.583 201.024 730.962 200.48 731.26 199.872C731.559 199.264 731.778 198.624 731.916 197.952C732.066 197.269 732.14 196.581 732.14 195.888V193.744ZM732.556 193.744H734.268V195.888C734.268 196.56 734.332 197.221 734.46 197.872C734.599 198.523 734.807 199.141 735.084 199.728C735.372 200.304 735.73 200.821 736.156 201.28C736.583 201.739 737.095 202.117 737.692 202.416L736.396 204.112C735.735 203.771 735.159 203.323 734.668 202.768C734.188 202.203 733.794 201.557 733.484 200.832C733.175 200.096 732.94 199.312 732.78 198.48C732.631 197.637 732.556 196.773 732.556 195.888V193.744ZM738.268 192.608H740.412V207.424H738.268V192.608ZM739.948 198.304H742.556V200.064H739.948V198.304Z" fill="white"/>
<rect width="114" height="47" transform="translate(63 331)" fill="#565656"/>
<path d="M90.792 349.944H94.264V351.624H90.792V349.944ZM90.664 353H94.152V354.712H90.664V353ZM93.912 347.592H96.056V356.12H93.912V347.592ZM89.096 348.6H91.352C91.352 349.944 91.1013 351.133 90.6 352.168C90.0987 353.192 89.3467 354.061 88.344 354.776C87.3413 355.48 86.088 356.04 84.584 356.456L83.768 354.792C85.0267 354.461 86.0453 354.045 86.824 353.544C87.6027 353.032 88.1733 352.445 88.536 351.784C88.9093 351.123 89.096 350.408 89.096 349.64V348.6ZM84.568 348.6H90.584V350.296H84.568V348.6ZM91.144 356.312C92.1467 356.312 93.0213 356.435 93.768 356.68C94.5253 356.925 95.1067 357.272 95.512 357.72C95.928 358.168 96.136 358.701 96.136 359.32C96.136 359.939 95.928 360.472 95.512 360.92C95.1067 361.368 94.5253 361.715 93.768 361.96C93.0213 362.216 92.1467 362.344 91.144 362.344C90.1413 362.344 89.2613 362.216 88.504 361.96C87.7573 361.715 87.176 361.368 86.76 360.92C86.344 360.472 86.136 359.939 86.136 359.32C86.136 358.701 86.344 358.168 86.76 357.72C87.176 357.272 87.7573 356.925 88.504 356.68C89.2613 356.435 90.1413 356.312 91.144 356.312ZM91.144 357.944C90.536 357.944 90.0133 357.997 89.576 358.104C89.1493 358.211 88.8187 358.365 88.584 358.568C88.3493 358.771 88.232 359.021 88.232 359.32C88.232 359.619 88.3493 359.875 88.584 360.088C88.8187 360.291 89.1493 360.445 89.576 360.552C90.0133 360.648 90.536 360.696 91.144 360.696C91.752 360.696 92.2693 360.648 92.696 360.552C93.1227 360.445 93.4533 360.291 93.688 360.088C93.9227 359.875 94.04 359.619 94.04 359.32C94.04 359.021 93.9227 358.771 93.688 358.568C93.4533 358.365 93.1227 358.211 92.696 358.104C92.2693 357.997 91.752 357.944 91.144 357.944ZM104.919 349.528H109.303V351.24H104.919V349.528ZM104.919 352.824H109.303V354.52H104.919V352.824ZM102.455 348.392C103.201 348.392 103.868 348.552 104.455 348.872C105.041 349.181 105.505 349.608 105.847 350.152C106.199 350.696 106.375 351.32 106.375 352.024C106.375 352.717 106.199 353.336 105.847 353.88C105.505 354.424 105.041 354.856 104.455 355.176C103.868 355.485 103.201 355.64 102.455 355.64C101.729 355.64 101.068 355.485 100.471 355.176C99.8841 354.856 99.4148 354.424 99.0628 353.88C98.7214 353.336 98.5508 352.717 98.5508 352.024C98.5508 351.32 98.7214 350.696 99.0628 350.152C99.4148 349.608 99.8841 349.181 100.471 348.872C101.068 348.552 101.729 348.392 102.455 348.392ZM102.455 350.184C102.103 350.184 101.783 350.259 101.495 350.408C101.207 350.547 100.977 350.755 100.807 351.032C100.647 351.299 100.567 351.629 100.567 352.024C100.567 352.397 100.647 352.723 100.807 353C100.977 353.277 101.207 353.491 101.495 353.64C101.783 353.779 102.103 353.848 102.455 353.848C102.828 353.848 103.153 353.779 103.431 353.64C103.719 353.491 103.943 353.277 104.103 353C104.263 352.723 104.343 352.397 104.343 352.024C104.343 351.629 104.263 351.299 104.103 351.032C103.943 350.755 103.719 350.547 103.431 350.408C103.153 350.259 102.828 350.184 102.455 350.184ZM108.631 347.608H110.775V356.28H108.631V347.608ZM105.751 356.584C106.796 356.584 107.692 356.701 108.439 356.936C109.196 357.16 109.783 357.491 110.199 357.928C110.615 358.365 110.823 358.888 110.823 359.496C110.823 360.104 110.615 360.627 110.199 361.064C109.783 361.512 109.196 361.848 108.439 362.072C107.692 362.307 106.796 362.424 105.751 362.424C104.705 362.424 103.804 362.307 103.047 362.072C102.289 361.848 101.703 361.512 101.287 361.064C100.881 360.627 100.679 360.104 100.679 359.496C100.679 358.888 100.881 358.365 101.287 357.928C101.703 357.491 102.289 357.16 103.047 356.936C103.804 356.701 104.705 356.584 105.751 356.584ZM105.751 358.216C105.111 358.216 104.567 358.264 104.119 358.36C103.671 358.456 103.335 358.6 103.111 358.792C102.887 358.973 102.775 359.208 102.775 359.496C102.775 359.784 102.887 360.024 103.111 360.216C103.335 360.408 103.671 360.552 104.119 360.648C104.567 360.733 105.111 360.776 105.751 360.776C106.401 360.776 106.945 360.733 107.383 360.648C107.831 360.552 108.167 360.408 108.391 360.216C108.615 360.024 108.727 359.784 108.727 359.496C108.727 359.208 108.615 358.973 108.391 358.792C108.167 358.6 107.831 358.456 107.383 358.36C106.945 358.264 106.401 358.216 105.751 358.216ZM116.661 349.944H118.358V351.608C118.358 352.461 118.267 353.299 118.086 354.12C117.915 354.941 117.654 355.715 117.302 356.44C116.96 357.155 116.528 357.789 116.006 358.344C115.483 358.888 114.875 359.32 114.182 359.64L112.965 357.96C113.584 357.672 114.123 357.299 114.582 356.84C115.051 356.381 115.435 355.869 115.734 355.304C116.043 354.728 116.272 354.125 116.422 353.496C116.582 352.856 116.661 352.227 116.661 351.608V349.944ZM117.126 349.944H118.806V351.608C118.806 352.195 118.88 352.792 119.03 353.4C119.19 353.997 119.419 354.568 119.718 355.112C120.016 355.645 120.395 356.125 120.854 356.552C121.312 356.979 121.856 357.32 122.486 357.576L121.318 359.272C120.614 358.963 120 358.547 119.478 358.024C118.955 357.501 118.518 356.899 118.166 356.216C117.814 355.533 117.552 354.803 117.382 354.024C117.211 353.235 117.126 352.429 117.126 351.608V349.944ZM113.558 349.016H121.878V350.776H113.558V349.016ZM123.254 347.608H125.382V362.424H123.254V347.608ZM131.668 355.208H133.796V358.44H131.668V355.208ZM138.148 347.592H140.276V358.824H138.148V347.592ZM129.604 360.456H140.612V362.168H129.604V360.456ZM129.604 357.752H131.732V360.92H129.604V357.752ZM128.02 355.848L127.748 354.152C128.655 354.141 129.642 354.131 130.708 354.12C131.775 354.099 132.863 354.056 133.972 353.992C135.082 353.928 136.148 353.832 137.172 353.704L137.316 355.224C136.26 355.405 135.183 355.544 134.084 355.64C132.996 355.725 131.935 355.779 130.9 355.8C129.866 355.821 128.906 355.837 128.02 355.848ZM135.364 356.2H138.628V357.656H135.364V356.2ZM132.516 348.104C133.242 348.104 133.882 348.216 134.436 348.44C134.991 348.664 135.423 348.973 135.732 349.368C136.052 349.763 136.212 350.227 136.212 350.76C136.212 351.283 136.052 351.747 135.732 352.152C135.423 352.547 134.991 352.851 134.436 353.064C133.882 353.277 133.242 353.384 132.516 353.384C131.791 353.384 131.146 353.277 130.58 353.064C130.026 352.851 129.594 352.547 129.284 352.152C128.975 351.747 128.82 351.283 128.82 350.76C128.82 350.227 128.975 349.763 129.284 349.368C129.594 348.973 130.026 348.664 130.58 348.44C131.146 348.216 131.791 348.104 132.516 348.104ZM132.516 349.656C132.026 349.656 131.62 349.747 131.3 349.928C130.991 350.109 130.836 350.387 130.836 350.76C130.836 351.112 130.991 351.384 131.3 351.576C131.62 351.757 132.026 351.848 132.516 351.848C133.018 351.848 133.418 351.757 133.716 351.576C134.026 351.384 134.18 351.112 134.18 350.76C134.18 350.515 134.111 350.312 133.972 350.152C133.834 349.992 133.642 349.869 133.396 349.784C133.151 349.699 132.858 349.656 132.516 349.656ZM142.531 356.12H155.939V357.8H142.531V356.12ZM148.115 356.968H150.243V362.424H148.115V356.968ZM144.051 348.168H146.163V349.848H152.259V348.168H154.355V354.712H144.051V348.168ZM146.163 351.512V353.032H152.259V351.512H146.163Z" fill="white"/>
<rect x="27.5" y="443.5" width="84" height="46" fill="white"/>
<rect x="27.5" y="443.5" width="84" height="46" stroke="#ECECEC"/>
<path d="M51.4 468.616H53.528V471.016H51.4V468.616ZM57.88 459.608H60.008V474.424H57.88V459.608ZM47.976 471.96L47.72 470.232C48.616 470.232 49.592 470.227 50.648 470.216C51.704 470.205 52.7867 470.168 53.896 470.104C55.016 470.04 56.0933 469.939 57.128 469.8L57.272 471.336C56.1947 471.528 55.1067 471.672 54.008 471.768C52.92 471.853 51.864 471.907 50.84 471.928C49.816 471.949 48.8613 471.96 47.976 471.96ZM48.008 461.24H56.936V462.904H48.008V461.24ZM52.472 463.48C53.1973 463.48 53.8373 463.597 54.392 463.832C54.9467 464.067 55.3787 464.392 55.688 464.808C56.008 465.224 56.168 465.709 56.168 466.264C56.168 466.808 56.008 467.293 55.688 467.72C55.3787 468.136 54.9467 468.461 54.392 468.696C53.8373 468.931 53.1973 469.048 52.472 469.048C51.7467 469.048 51.1067 468.931 50.552 468.696C49.9973 468.461 49.56 468.136 49.24 467.72C48.9307 467.293 48.776 466.808 48.776 466.264C48.776 465.709 48.9307 465.224 49.24 464.808C49.56 464.392 49.9973 464.067 50.552 463.832C51.1067 463.597 51.7467 463.48 52.472 463.48ZM52.472 465.08C51.9813 465.08 51.5813 465.187 51.272 465.4C50.9627 465.603 50.808 465.891 50.808 466.264C50.808 466.648 50.9627 466.941 51.272 467.144C51.5813 467.347 51.9813 467.448 52.472 467.448C52.9627 467.448 53.3627 467.347 53.672 467.144C53.9813 466.941 54.136 466.648 54.136 466.264C54.136 465.891 53.9813 465.603 53.672 465.4C53.3627 465.187 52.9627 465.08 52.472 465.08ZM51.4 459.656H53.544V462.2H51.4V459.656ZM68.0868 463.512H71.0788V465.192H68.0868V463.512ZM68.0068 467.208H71.0308V468.904H68.0068V467.208ZM73.0948 459.592H75.1268V474.408H73.0948V459.592ZM70.0548 459.912H72.0388V473.752H70.0548V459.912ZM66.7108 461.336H68.7428C68.7428 462.744 68.5774 464.056 68.2468 465.272C67.9268 466.477 67.3721 467.587 66.5828 468.6C65.8041 469.613 64.7268 470.525 63.3508 471.336L62.1508 469.848C63.2707 469.176 64.1614 468.445 64.8228 467.656C65.4948 466.856 65.9748 465.976 66.2628 465.016C66.5614 464.045 66.7108 462.963 66.7108 461.768V461.336ZM62.9988 461.336H67.4148V463.048H62.9988V461.336ZM77.8935 466.072H79.1735C80.1868 466.072 81.0775 466.067 81.8455 466.056C82.6242 466.035 83.3442 465.997 84.0055 465.944C84.6775 465.891 85.3548 465.811 86.0375 465.704L86.2455 467.352C85.5415 467.459 84.8428 467.544 84.1495 467.608C83.4668 467.661 82.7255 467.699 81.9255 467.72C81.1255 467.731 80.2082 467.736 79.1735 467.736H77.8935V466.072ZM77.8935 460.44H85.0295V462.12H80.0055V466.744H77.8935V460.44ZM79.3495 463.24H84.5975V464.904H79.3495V463.24ZM87.2695 459.608H89.3975V468.408H87.2695V459.608ZM79.5415 469.016H89.3975V474.264H79.5415V469.016ZM87.3175 470.68H81.6375V472.584H87.3175V470.68Z" fill="#333333"/>
<rect x="127.5" y="443.5" width="84" height="46" fill="white"/>
<rect x="127.5" y="443.5" width="84" height="46" stroke="#ECECEC"/>
<path d="M147.64 467.016H161.048V468.696H147.64V467.016ZM153.272 465.64H155.4V467.8H153.272V465.64ZM153.272 459.64H155.4V461.816H153.272V459.64ZM153.144 461.912H155.016V462.2C155.016 462.765 154.883 463.283 154.616 463.752C154.36 464.221 153.965 464.637 153.432 465C152.909 465.352 152.264 465.64 151.496 465.864C150.739 466.088 149.853 466.237 148.84 466.312L148.2 464.712C149.096 464.648 149.853 464.541 150.472 464.392C151.101 464.232 151.613 464.035 152.008 463.8C152.403 463.565 152.691 463.315 152.872 463.048C153.053 462.771 153.144 462.488 153.144 462.2V461.912ZM153.656 461.912H155.528V462.2C155.528 462.488 155.619 462.771 155.8 463.048C155.981 463.315 156.264 463.565 156.648 463.8C157.043 464.035 157.555 464.232 158.184 464.392C158.813 464.541 159.571 464.648 160.456 464.712L159.832 466.312C158.829 466.237 157.939 466.088 157.16 465.864C156.392 465.64 155.747 465.352 155.224 465C154.701 464.637 154.307 464.221 154.04 463.752C153.784 463.283 153.656 462.765 153.656 462.2V461.912ZM148.92 460.936H159.752V462.568H148.92V460.936ZM154.312 469.384C155.933 469.384 157.197 469.603 158.104 470.04C159.011 470.477 159.464 471.101 159.464 471.912C159.464 472.723 159.011 473.341 158.104 473.768C157.197 474.205 155.933 474.424 154.312 474.424C152.701 474.424 151.443 474.205 150.536 473.768C149.629 473.341 149.176 472.723 149.176 471.912C149.176 471.101 149.629 470.477 150.536 470.04C151.443 469.603 152.701 469.384 154.312 469.384ZM154.312 470.952C153.309 470.952 152.557 471.027 152.056 471.176C151.565 471.325 151.32 471.571 151.32 471.912C151.32 472.232 151.565 472.472 152.056 472.632C152.557 472.781 153.309 472.856 154.312 472.856C155.315 472.856 156.061 472.781 156.552 472.632C157.053 472.472 157.304 472.232 157.304 471.912C157.304 471.571 157.053 471.325 156.552 471.176C156.061 471.027 155.315 470.952 154.312 470.952ZM162.375 467.88H175.783V469.592H162.375V467.88ZM167.959 468.968H170.087V474.424H167.959V468.968ZM163.911 460.328H174.183V466.296H163.911V460.328ZM172.103 461.992H166.007V464.632H172.103V461.992ZM177.894 466.072H179.174C180.187 466.072 181.078 466.067 181.846 466.056C182.624 466.035 183.344 465.997 184.006 465.944C184.678 465.891 185.355 465.811 186.038 465.704L186.246 467.352C185.542 467.459 184.843 467.544 184.15 467.608C183.467 467.661 182.726 467.699 181.926 467.72C181.126 467.731 180.208 467.736 179.174 467.736H177.894V466.072ZM177.894 460.44H185.03V462.12H180.006V466.744H177.894V460.44ZM179.35 463.24H184.598V464.904H179.35V463.24ZM187.27 459.608H189.398V468.408H187.27V459.608ZM179.542 469.016H189.398V474.264H179.542V469.016ZM187.318 470.68H181.638V472.584H187.318V470.68Z" fill="#333333"/>
<rect x="312.5" y="443.5" width="84" height="46" fill="white"/>
<rect x="312.5" y="443.5" width="84" height="46" stroke="#ECECEC"/>
<path d="M340.144 462.872H343.856V464.584H340.144V462.872ZM336.736 460.216C337.483 460.216 338.149 460.371 338.736 460.68C339.333 460.979 339.803 461.395 340.144 461.928C340.485 462.451 340.656 463.059 340.656 463.752C340.656 464.435 340.485 465.043 340.144 465.576C339.803 466.109 339.333 466.531 338.736 466.84C338.149 467.139 337.483 467.288 336.736 467.288C336 467.288 335.333 467.139 334.736 466.84C334.149 466.531 333.685 466.109 333.344 465.576C333.003 465.043 332.832 464.435 332.832 463.752C332.832 463.059 333.003 462.451 333.344 461.928C333.685 461.395 334.149 460.979 334.736 460.68C335.333 460.371 336 460.216 336.736 460.216ZM336.736 461.976C336.373 461.976 336.048 462.045 335.76 462.184C335.483 462.323 335.264 462.525 335.104 462.792C334.944 463.059 334.864 463.379 334.864 463.752C334.864 464.115 334.944 464.429 335.104 464.696C335.264 464.963 335.483 465.165 335.76 465.304C336.048 465.443 336.373 465.512 336.736 465.512C337.099 465.512 337.419 465.443 337.696 465.304C337.984 465.165 338.208 464.963 338.368 464.696C338.528 464.429 338.608 464.115 338.608 463.752C338.608 463.379 338.528 463.059 338.368 462.792C338.208 462.525 337.984 462.323 337.696 462.184C337.419 462.045 337.099 461.976 336.736 461.976ZM342.912 459.608H345.056V467.56H342.912V459.608ZM335.216 468.216H337.328V469.608H342.944V468.216H345.056V474.264H335.216V468.216ZM337.328 471.24V472.568H342.944V471.24H337.328ZM347.375 467.88H360.783V469.592H347.375V467.88ZM352.959 468.968H355.087V474.424H352.959V468.968ZM348.911 460.328H359.183V466.296H348.911V460.328ZM357.103 461.992H351.007V464.632H357.103V461.992ZM362.894 466.072H364.174C365.187 466.072 366.078 466.067 366.846 466.056C367.624 466.035 368.344 465.997 369.006 465.944C369.678 465.891 370.355 465.811 371.038 465.704L371.246 467.352C370.542 467.459 369.843 467.544 369.15 467.608C368.467 467.661 367.726 467.699 366.926 467.72C366.126 467.731 365.208 467.736 364.174 467.736H362.894V466.072ZM362.894 460.44H370.03V462.12H365.006V466.744H362.894V460.44ZM364.35 463.24H369.598V464.904H364.35V463.24ZM372.27 459.608H374.398V468.408H372.27V459.608ZM364.542 469.016H374.398V474.264H364.542V469.016ZM372.318 470.68H366.638V472.584H372.318V470.68Z" fill="#333333"/>
<rect x="412.5" y="443.5" width="84" height="46" fill="white"/>
<rect x="412.5" y="443.5" width="84" height="46" stroke="#ECECEC"/>
<path d="M439.264 468.824C440.331 468.824 441.259 468.936 442.048 469.16C442.837 469.384 443.445 469.704 443.872 470.12C444.309 470.536 444.528 471.037 444.528 471.624C444.528 472.2 444.309 472.696 443.872 473.112C443.445 473.539 442.837 473.864 442.048 474.088C441.259 474.312 440.331 474.424 439.264 474.424C438.208 474.424 437.285 474.312 436.496 474.088C435.707 473.864 435.093 473.539 434.656 473.112C434.229 472.696 434.016 472.2 434.016 471.624C434.016 471.037 434.229 470.536 434.656 470.12C435.093 469.704 435.707 469.384 436.496 469.16C437.285 468.936 438.208 468.824 439.264 468.824ZM439.264 470.424C438.603 470.424 438.037 470.467 437.568 470.552C437.099 470.637 436.741 470.771 436.496 470.952C436.261 471.133 436.144 471.357 436.144 471.624C436.144 471.891 436.261 472.115 436.496 472.296C436.741 472.467 437.099 472.6 437.568 472.696C438.037 472.781 438.603 472.824 439.264 472.824C439.936 472.824 440.507 472.781 440.976 472.696C441.445 472.6 441.803 472.467 442.048 472.296C442.293 472.115 442.416 471.891 442.416 471.624C442.416 471.357 442.293 471.133 442.048 470.952C441.803 470.771 441.445 470.637 440.976 470.552C440.507 470.467 439.936 470.424 439.264 470.424ZM434.176 460.264H443.568V461.928H434.176V460.264ZM432.688 466.216H446.016V467.896H432.688V466.216ZM437.616 463.624H439.744V466.632H437.616V463.624ZM442.32 460.264H444.448V461.48C444.448 462.067 444.432 462.68 444.4 463.32C444.368 463.96 444.245 464.664 444.032 465.432L441.92 465.224C442.123 464.467 442.24 463.795 442.272 463.208C442.304 462.621 442.32 462.045 442.32 461.48V460.264ZM447.375 467.88H460.783V469.592H447.375V467.88ZM452.959 468.968H455.087V474.424H452.959V468.968ZM448.911 460.328H459.183V466.296H448.911V460.328ZM457.103 461.992H451.007V464.632H457.103V461.992ZM462.894 466.072H464.174C465.187 466.072 466.078 466.067 466.846 466.056C467.624 466.035 468.344 465.997 469.006 465.944C469.678 465.891 470.355 465.811 471.038 465.704L471.246 467.352C470.542 467.459 469.843 467.544 469.15 467.608C468.467 467.661 467.726 467.699 466.926 467.72C466.126 467.731 465.208 467.736 464.174 467.736H462.894V466.072ZM462.894 460.44H470.03V462.12H465.006V466.744H462.894V460.44ZM464.35 463.24H469.598V464.904H464.35V463.24ZM472.27 459.608H474.398V468.408H472.27V459.608ZM464.542 469.016H474.398V474.264H464.542V469.016ZM472.318 470.68H466.638V472.584H472.318V470.68Z" fill="#333333"/>
<rect width="85" height="47" transform="translate(362 331)" fill="#565656"/>
<path d="M389.264 356.824C390.331 356.824 391.259 356.936 392.048 357.16C392.837 357.384 393.445 357.704 393.872 358.12C394.309 358.536 394.528 359.037 394.528 359.624C394.528 360.2 394.309 360.696 393.872 361.112C393.445 361.539 392.837 361.864 392.048 362.088C391.259 362.312 390.331 362.424 389.264 362.424C388.208 362.424 387.285 362.312 386.496 362.088C385.707 361.864 385.093 361.539 384.656 361.112C384.229 360.696 384.016 360.2 384.016 359.624C384.016 359.037 384.229 358.536 384.656 358.12C385.093 357.704 385.707 357.384 386.496 357.16C387.285 356.936 388.208 356.824 389.264 356.824ZM389.264 358.424C388.603 358.424 388.037 358.467 387.568 358.552C387.099 358.637 386.741 358.771 386.496 358.952C386.261 359.133 386.144 359.357 386.144 359.624C386.144 359.891 386.261 360.115 386.496 360.296C386.741 360.467 387.099 360.6 387.568 360.696C388.037 360.781 388.603 360.824 389.264 360.824C389.936 360.824 390.507 360.781 390.976 360.696C391.445 360.6 391.803 360.467 392.048 360.296C392.293 360.115 392.416 359.891 392.416 359.624C392.416 359.357 392.293 359.133 392.048 358.952C391.803 358.771 391.445 358.637 390.976 358.552C390.507 358.467 389.936 358.424 389.264 358.424ZM384.176 348.264H393.568V349.928H384.176V348.264ZM382.688 354.216H396.016V355.896H382.688V354.216ZM387.616 351.624H389.744V354.632H387.616V351.624ZM392.32 348.264H394.448V349.48C394.448 350.067 394.432 350.68 394.4 351.32C394.368 351.96 394.245 352.664 394.032 353.432L391.92 353.224C392.123 352.467 392.24 351.795 392.272 351.208C392.304 350.621 392.32 350.045 392.32 349.48V348.264ZM397.375 355.88H410.783V357.592H397.375V355.88ZM402.959 356.968H405.087V362.424H402.959V356.968ZM398.911 348.328H409.183V354.296H398.911V348.328ZM407.103 349.992H401.007V352.632H407.103V349.992ZM412.094 356.12H425.502V357.8H412.094V356.12ZM417.678 356.968H419.806V362.424H417.678V356.968ZM413.614 348.168H415.726V349.848H421.822V348.168H423.918V354.712H413.614V348.168ZM415.726 351.512V353.032H421.822V351.512H415.726Z" fill="white"/>
<rect x="597.5" y="443.5" width="84" height="46" fill="white"/>
<rect x="597.5" y="443.5" width="84" height="46" stroke="#ECECEC"/>
<path d="M625.208 461.768H628.856V463.464H625.208V461.768ZM627.912 459.608H630.056V467.128H627.912V459.608ZM620.264 467.736H630.056V471.736H622.392V473.592H620.28V470.2H627.944V469.384H620.264V467.736ZM620.28 472.6H630.472V474.264H620.28V472.6ZM621.032 460.072H622.76V461.144C622.76 462.061 622.611 462.931 622.312 463.752C622.024 464.573 621.576 465.288 620.968 465.896C620.36 466.493 619.581 466.941 618.632 467.24L617.544 465.576C618.365 465.32 619.032 464.968 619.544 464.52C620.056 464.061 620.429 463.539 620.664 462.952C620.909 462.365 621.032 461.763 621.032 461.144V460.072ZM621.464 460.072H623.176V461.144C623.176 461.571 623.24 461.997 623.368 462.424C623.507 462.851 623.709 463.251 623.976 463.624C624.243 463.997 624.584 464.328 625 464.616C625.427 464.904 625.928 465.139 626.504 465.32L625.416 466.952C624.52 466.664 623.779 466.232 623.192 465.656C622.605 465.08 622.168 464.403 621.88 463.624C621.603 462.845 621.464 462.019 621.464 461.144V460.072ZM638.087 463.512H641.079V465.192H638.087V463.512ZM638.007 467.208H641.031V468.904H638.007V467.208ZM643.095 459.592H645.127V474.408H643.095V459.592ZM640.055 459.912H642.039V473.752H640.055V459.912ZM636.711 461.336H638.743C638.743 462.744 638.577 464.056 638.247 465.272C637.927 466.477 637.372 467.587 636.583 468.6C635.804 469.613 634.727 470.525 633.351 471.336L632.151 469.848C633.271 469.176 634.161 468.445 634.823 467.656C635.495 466.856 635.975 465.976 636.263 465.016C636.561 464.045 636.711 462.963 636.711 461.768V461.336ZM632.999 461.336H637.415V463.048H632.999V461.336ZM647.894 466.072H649.174C650.187 466.072 651.078 466.067 651.846 466.056C652.624 466.035 653.344 465.997 654.006 465.944C654.678 465.891 655.355 465.811 656.038 465.704L656.246 467.352C655.542 467.459 654.843 467.544 654.15 467.608C653.467 467.661 652.726 467.699 651.926 467.72C651.126 467.731 650.208 467.736 649.174 467.736H647.894V466.072ZM647.894 460.44H655.03V462.12H650.006V466.744H647.894V460.44ZM649.35 463.24H654.598V464.904H649.35V463.24ZM657.27 459.608H659.398V468.408H657.27V459.608ZM649.542 469.016H659.398V474.264H649.542V469.016ZM657.318 470.68H651.638V472.584H657.318V470.68Z" fill="#333333"/>
<rect x="697.5" y="443.5" width="93" height="46" fill="white"/>
<rect x="697.5" y="443.5" width="93" height="46" stroke="#ECECEC"/>
<path d="M720.984 460.744H722.696V462.888C722.696 463.805 722.616 464.701 722.456 465.576C722.296 466.44 722.045 467.245 721.704 467.992C721.373 468.739 720.952 469.405 720.44 469.992C719.928 470.568 719.325 471.027 718.632 471.368L717.352 469.656C717.981 469.368 718.52 468.984 718.968 468.504C719.427 468.024 719.805 467.48 720.104 466.872C720.403 466.264 720.621 465.624 720.76 464.952C720.909 464.269 720.984 463.581 720.984 462.888V460.744ZM721.4 460.744H723.112V462.888C723.112 463.56 723.176 464.221 723.304 464.872C723.443 465.523 723.651 466.141 723.928 466.728C724.216 467.304 724.573 467.821 725 468.28C725.427 468.739 725.939 469.117 726.536 469.416L725.24 471.112C724.579 470.771 724.003 470.323 723.512 469.768C723.032 469.203 722.637 468.557 722.328 467.832C722.019 467.096 721.784 466.312 721.624 465.48C721.475 464.637 721.4 463.773 721.4 462.888V460.744ZM727.112 459.608H729.256V474.424H727.112V459.608ZM728.792 465.304H731.4V467.064H728.792V465.304ZM739.863 462.872H743.575V464.584H739.863V462.872ZM736.455 460.216C737.201 460.216 737.868 460.371 738.455 460.68C739.052 460.979 739.521 461.395 739.863 461.928C740.204 462.451 740.375 463.059 740.375 463.752C740.375 464.435 740.204 465.043 739.863 465.576C739.521 466.109 739.052 466.531 738.455 466.84C737.868 467.139 737.201 467.288 736.455 467.288C735.719 467.288 735.052 467.139 734.455 466.84C733.868 466.531 733.404 466.109 733.063 465.576C732.721 465.043 732.551 464.435 732.551 463.752C732.551 463.059 732.721 462.451 733.063 461.928C733.404 461.395 733.868 460.979 734.455 460.68C735.052 460.371 735.719 460.216 736.455 460.216ZM736.455 461.976C736.092 461.976 735.767 462.045 735.479 462.184C735.201 462.323 734.983 462.525 734.823 462.792C734.663 463.059 734.583 463.379 734.583 463.752C734.583 464.115 734.663 464.429 734.823 464.696C734.983 464.963 735.201 465.165 735.479 465.304C735.767 465.443 736.092 465.512 736.455 465.512C736.817 465.512 737.137 465.443 737.415 465.304C737.703 465.165 737.927 464.963 738.087 464.696C738.247 464.429 738.327 464.115 738.327 463.752C738.327 463.379 738.247 463.059 738.087 462.792C737.927 462.525 737.703 462.323 737.415 462.184C737.137 462.045 736.817 461.976 736.455 461.976ZM742.631 459.608H744.775V467.56H742.631V459.608ZM734.935 468.216H737.047V469.608H742.663V468.216H744.775V474.264H734.935V468.216ZM737.047 471.24V472.568H742.663V471.24H737.047ZM747.75 473V471.08H750.31V463.608H748.15V462.136C748.747 462.029 749.259 461.901 749.686 461.752C750.123 461.592 750.528 461.389 750.902 461.144H752.646V471.08H754.87V473H747.75ZM757.331 466.072H758.611C759.624 466.072 760.515 466.067 761.283 466.056C762.062 466.035 762.782 465.997 763.443 465.944C764.115 465.891 764.792 465.811 765.475 465.704L765.683 467.352C764.979 467.459 764.28 467.544 763.587 467.608C762.904 467.661 762.163 467.699 761.363 467.72C760.563 467.731 759.646 467.736 758.611 467.736H757.331V466.072ZM757.331 460.44H764.467V462.12H759.443V466.744H757.331V460.44ZM758.787 463.24H764.035V464.904H758.787V463.24ZM766.707 459.608H768.835V468.408H766.707V459.608ZM758.979 469.016H768.835V474.264H758.979V469.016ZM766.755 470.68H761.075V472.584H766.755V470.68Z" fill="#333333"/>
<rect x="806.5" y="443.5" width="93" height="46" fill="white"/>
<rect x="806.5" y="443.5" width="93" height="46" stroke="#ECECEC"/>
<path d="M829.984 460.744H831.696V462.888C831.696 463.805 831.616 464.701 831.456 465.576C831.296 466.44 831.045 467.245 830.704 467.992C830.373 468.739 829.952 469.405 829.44 469.992C828.928 470.568 828.325 471.027 827.632 471.368L826.352 469.656C826.981 469.368 827.52 468.984 827.968 468.504C828.427 468.024 828.805 467.48 829.104 466.872C829.403 466.264 829.621 465.624 829.76 464.952C829.909 464.269 829.984 463.581 829.984 462.888V460.744ZM830.4 460.744H832.112V462.888C832.112 463.56 832.176 464.221 832.304 464.872C832.443 465.523 832.651 466.141 832.928 466.728C833.216 467.304 833.573 467.821 834 468.28C834.427 468.739 834.939 469.117 835.536 469.416L834.24 471.112C833.579 470.771 833.003 470.323 832.512 469.768C832.032 469.203 831.637 468.557 831.328 467.832C831.019 467.096 830.784 466.312 830.624 465.48C830.475 464.637 830.4 463.773 830.4 462.888V460.744ZM836.112 459.608H838.256V474.424H836.112V459.608ZM837.792 465.304H840.4V467.064H837.792V465.304ZM848.863 462.872H852.575V464.584H848.863V462.872ZM845.455 460.216C846.201 460.216 846.868 460.371 847.455 460.68C848.052 460.979 848.521 461.395 848.863 461.928C849.204 462.451 849.375 463.059 849.375 463.752C849.375 464.435 849.204 465.043 848.863 465.576C848.521 466.109 848.052 466.531 847.455 466.84C846.868 467.139 846.201 467.288 845.455 467.288C844.719 467.288 844.052 467.139 843.455 466.84C842.868 466.531 842.404 466.109 842.063 465.576C841.721 465.043 841.551 464.435 841.551 463.752C841.551 463.059 841.721 462.451 842.063 461.928C842.404 461.395 842.868 460.979 843.455 460.68C844.052 460.371 844.719 460.216 845.455 460.216ZM845.455 461.976C845.092 461.976 844.767 462.045 844.479 462.184C844.201 462.323 843.983 462.525 843.823 462.792C843.663 463.059 843.583 463.379 843.583 463.752C843.583 464.115 843.663 464.429 843.823 464.696C843.983 464.963 844.201 465.165 844.479 465.304C844.767 465.443 845.092 465.512 845.455 465.512C845.817 465.512 846.137 465.443 846.415 465.304C846.703 465.165 846.927 464.963 847.087 464.696C847.247 464.429 847.327 464.115 847.327 463.752C847.327 463.379 847.247 463.059 847.087 462.792C846.927 462.525 846.703 462.323 846.415 462.184C846.137 462.045 845.817 461.976 845.455 461.976ZM851.631 459.608H853.775V467.56H851.631V459.608ZM843.935 468.216H846.047V469.608H851.663V468.216H853.775V474.264H843.935V468.216ZM846.047 471.24V472.568H851.663V471.24H846.047ZM856.126 473V471.64C857.203 470.68 858.12 469.789 858.878 468.968C859.646 468.147 860.232 467.384 860.638 466.68C861.043 465.965 861.246 465.304 861.246 464.696C861.246 464.312 861.176 463.976 861.038 463.688C860.899 463.4 860.696 463.181 860.43 463.032C860.174 462.872 859.854 462.792 859.47 462.792C859.043 462.792 858.648 462.915 858.286 463.16C857.934 463.395 857.608 463.677 857.31 464.008L855.998 462.744C856.552 462.147 857.118 461.699 857.694 461.4C858.28 461.091 858.974 460.936 859.774 460.936C860.52 460.936 861.171 461.091 861.726 461.4C862.291 461.699 862.728 462.12 863.038 462.664C863.347 463.208 863.502 463.848 863.502 464.584C863.502 465.299 863.32 466.029 862.958 466.776C862.606 467.512 862.131 468.248 861.534 468.984C860.936 469.72 860.275 470.445 859.549 471.16C859.859 471.117 860.19 471.085 860.542 471.064C860.904 471.032 861.224 471.016 861.502 471.016H864.062V473H856.126ZM866.331 466.072H867.611C868.624 466.072 869.515 466.067 870.283 466.056C871.062 466.035 871.782 465.997 872.443 465.944C873.115 465.891 873.792 465.811 874.475 465.704L874.683 467.352C873.979 467.459 873.28 467.544 872.587 467.608C871.904 467.661 871.163 467.699 870.363 467.72C869.563 467.731 868.646 467.736 867.611 467.736H866.331V466.072ZM866.331 460.44H873.467V462.12H868.443V466.744H866.331V460.44ZM867.787 463.24H873.035V464.904H867.787V463.24ZM875.707 459.608H877.835V468.408H875.707V459.608ZM867.979 469.016H877.835V474.264H867.979V469.016ZM875.755 470.68H870.075V472.584H875.755V470.68Z" fill="#333333"/>
<rect width="85" height="47" transform="translate(706 331)" fill="#565656"/>
<path d="M729.984 348.744H731.696V350.888C731.696 351.805 731.616 352.701 731.456 353.576C731.296 354.44 731.045 355.245 730.704 355.992C730.373 356.739 729.952 357.405 729.44 357.992C728.928 358.568 728.325 359.027 727.632 359.368L726.352 357.656C726.981 357.368 727.52 356.984 727.968 356.504C728.427 356.024 728.805 355.48 729.104 354.872C729.403 354.264 729.621 353.624 729.76 352.952C729.909 352.269 729.984 351.581 729.984 350.888V348.744ZM730.4 348.744H732.112V350.888C732.112 351.56 732.176 352.221 732.304 352.872C732.443 353.523 732.651 354.141 732.928 354.728C733.216 355.304 733.573 355.821 734 356.28C734.427 356.739 734.939 357.117 735.536 357.416L734.24 359.112C733.579 358.771 733.003 358.323 732.512 357.768C732.032 357.203 731.637 356.557 731.328 355.832C731.019 355.096 730.784 354.312 730.624 353.48C730.475 352.637 730.4 351.773 730.4 350.888V348.744ZM736.112 347.608H738.256V362.424H736.112V347.608ZM737.792 353.304H740.4V355.064H737.792V353.304ZM748.863 350.872H752.575V352.584H748.863V350.872ZM745.455 348.216C746.201 348.216 746.868 348.371 747.455 348.68C748.052 348.979 748.521 349.395 748.863 349.928C749.204 350.451 749.375 351.059 749.375 351.752C749.375 352.435 749.204 353.043 748.863 353.576C748.521 354.109 748.052 354.531 747.455 354.84C746.868 355.139 746.201 355.288 745.455 355.288C744.719 355.288 744.052 355.139 743.455 354.84C742.868 354.531 742.404 354.109 742.063 353.576C741.721 353.043 741.551 352.435 741.551 351.752C741.551 351.059 741.721 350.451 742.063 349.928C742.404 349.395 742.868 348.979 743.455 348.68C744.052 348.371 744.719 348.216 745.455 348.216ZM745.455 349.976C745.092 349.976 744.767 350.045 744.479 350.184C744.201 350.323 743.983 350.525 743.823 350.792C743.663 351.059 743.583 351.379 743.583 351.752C743.583 352.115 743.663 352.429 743.823 352.696C743.983 352.963 744.201 353.165 744.479 353.304C744.767 353.443 745.092 353.512 745.455 353.512C745.817 353.512 746.137 353.443 746.415 353.304C746.703 353.165 746.927 352.963 747.087 352.696C747.247 352.429 747.327 352.115 747.327 351.752C747.327 351.379 747.247 351.059 747.087 350.792C746.927 350.525 746.703 350.323 746.415 350.184C746.137 350.045 745.817 349.976 745.455 349.976ZM751.631 347.608H753.775V355.56H751.631V347.608ZM743.935 356.216H746.047V357.608H751.663V356.216H753.775V362.264H743.935V356.216ZM746.047 359.24V360.568H751.663V359.24H746.047ZM756.094 356.12H769.502V357.8H756.094V356.12ZM761.678 356.968H763.806V362.424H761.678V356.968ZM757.614 348.168H759.726V349.848H765.822V348.168H767.918V354.712H757.614V348.168ZM759.726 351.512V353.032H765.822V351.512H759.726Z" fill="white"/>
<rect x="1000.5" y="443.5" width="113" height="46" fill="white"/>
<rect x="1000.5" y="443.5" width="113" height="46" stroke="#ECECEC"/>
<path d="M1023.98 460.744H1025.7V462.888C1025.7 463.805 1025.62 464.701 1025.46 465.576C1025.3 466.44 1025.05 467.245 1024.7 467.992C1024.37 468.739 1023.95 469.405 1023.44 469.992C1022.93 470.568 1022.33 471.027 1021.63 471.368L1020.35 469.656C1020.98 469.368 1021.52 468.984 1021.97 468.504C1022.43 468.024 1022.81 467.48 1023.1 466.872C1023.4 466.264 1023.62 465.624 1023.76 464.952C1023.91 464.269 1023.98 463.581 1023.98 462.888V460.744ZM1024.4 460.744H1026.11V462.888C1026.11 463.56 1026.18 464.221 1026.3 464.872C1026.44 465.523 1026.65 466.141 1026.93 466.728C1027.22 467.304 1027.57 467.821 1028 468.28C1028.43 468.739 1028.94 469.117 1029.54 469.416L1028.24 471.112C1027.58 470.771 1027 470.323 1026.51 469.768C1026.03 469.203 1025.64 468.557 1025.33 467.832C1025.02 467.096 1024.78 466.312 1024.62 465.48C1024.47 464.637 1024.4 463.773 1024.4 462.888V460.744ZM1030.11 459.608H1032.26V474.424H1030.11V459.608ZM1031.79 465.304H1034.4V467.064H1031.79V465.304ZM1042.86 462.872H1046.57V464.584H1042.86V462.872ZM1039.45 460.216C1040.2 460.216 1040.87 460.371 1041.45 460.68C1042.05 460.979 1042.52 461.395 1042.86 461.928C1043.2 462.451 1043.37 463.059 1043.37 463.752C1043.37 464.435 1043.2 465.043 1042.86 465.576C1042.52 466.109 1042.05 466.531 1041.45 466.84C1040.87 467.139 1040.2 467.288 1039.45 467.288C1038.72 467.288 1038.05 467.139 1037.45 466.84C1036.87 466.531 1036.4 466.109 1036.06 465.576C1035.72 465.043 1035.55 464.435 1035.55 463.752C1035.55 463.059 1035.72 462.451 1036.06 461.928C1036.4 461.395 1036.87 460.979 1037.45 460.68C1038.05 460.371 1038.72 460.216 1039.45 460.216ZM1039.45 461.976C1039.09 461.976 1038.77 462.045 1038.48 462.184C1038.2 462.323 1037.98 462.525 1037.82 462.792C1037.66 463.059 1037.58 463.379 1037.58 463.752C1037.58 464.115 1037.66 464.429 1037.82 464.696C1037.98 464.963 1038.2 465.165 1038.48 465.304C1038.77 465.443 1039.09 465.512 1039.45 465.512C1039.82 465.512 1040.14 465.443 1040.41 465.304C1040.7 465.165 1040.93 464.963 1041.09 464.696C1041.25 464.429 1041.33 464.115 1041.33 463.752C1041.33 463.379 1041.25 463.059 1041.09 462.792C1040.93 462.525 1040.7 462.323 1040.41 462.184C1040.14 462.045 1039.82 461.976 1039.45 461.976ZM1045.63 459.608H1047.77V467.56H1045.63V459.608ZM1037.93 468.216H1040.05V469.608H1045.66V468.216H1047.77V474.264H1037.93V468.216ZM1040.05 471.24V472.568H1045.66V471.24H1040.05ZM1060.75 459.592H1062.77V474.408H1060.75V459.592ZM1058.86 465.176H1061.33V466.888H1058.86V465.176ZM1054.45 461.416H1056.49C1056.49 462.461 1056.4 463.453 1056.22 464.392C1056.05 465.331 1055.76 466.221 1055.36 467.064C1054.95 467.896 1054.4 468.675 1053.71 469.4C1053.03 470.115 1052.17 470.776 1051.13 471.384L1049.9 469.896C1051.02 469.235 1051.91 468.509 1052.57 467.72C1053.25 466.92 1053.73 466.04 1054.01 465.08C1054.3 464.109 1054.45 463.032 1054.45 461.848V461.416ZM1050.64 461.416H1055.07V463.112H1050.64V461.416ZM1057.45 459.976H1059.45V473.768H1057.45V459.976ZM1065.23 460.248H1067.34V462.008H1070.25V460.248H1072.35V466.728H1065.23V460.248ZM1067.34 463.592V465.08H1070.25V463.592H1067.34ZM1074.33 459.608H1076.46V467.128H1074.33V459.608ZM1075.61 462.44H1078.41V464.184H1075.61V462.44ZM1066.68 467.688H1076.46V471.736H1068.81V473.48H1066.7V470.216H1074.36V469.32H1066.68V467.688ZM1066.7 472.664H1076.89V474.328H1066.7V472.664ZM1080.33 466.072H1081.61C1082.62 466.072 1083.52 466.067 1084.28 466.056C1085.06 466.035 1085.78 465.997 1086.44 465.944C1087.12 465.891 1087.79 465.811 1088.48 465.704L1088.68 467.352C1087.98 467.459 1087.28 467.544 1086.59 467.608C1085.9 467.661 1085.16 467.699 1084.36 467.72C1083.56 467.731 1082.65 467.736 1081.61 467.736H1080.33V466.072ZM1080.33 460.44H1087.47V462.12H1082.44V466.744H1080.33V460.44ZM1081.79 463.24H1087.04V464.904H1081.79V463.24ZM1089.71 459.608H1091.84V468.408H1089.71V459.608ZM1081.98 469.016H1091.84V474.264H1081.98V469.016ZM1089.76 470.68H1084.08V472.584H1089.76V470.68Z" fill="#333333"/>
<rect x="1129.5" y="443.5" width="140" height="46" fill="white"/>
<rect x="1129.5" y="443.5" width="140" height="46" stroke="#ECECEC"/>
<path d="M1156.2 461.528H1160.58V463.24H1156.2V461.528ZM1156.2 464.824H1160.58V466.52H1156.2V464.824ZM1153.74 460.392C1154.48 460.392 1155.15 460.552 1155.74 460.872C1156.32 461.181 1156.79 461.608 1157.13 462.152C1157.48 462.696 1157.66 463.32 1157.66 464.024C1157.66 464.717 1157.48 465.336 1157.13 465.88C1156.79 466.424 1156.32 466.856 1155.74 467.176C1155.15 467.485 1154.48 467.64 1153.74 467.64C1153.01 467.64 1152.35 467.485 1151.75 467.176C1151.17 466.856 1150.7 466.424 1150.34 465.88C1150 465.336 1149.83 464.717 1149.83 464.024C1149.83 463.32 1150 462.696 1150.34 462.152C1150.7 461.608 1151.17 461.181 1151.75 460.872C1152.35 460.552 1153.01 460.392 1153.74 460.392ZM1153.74 462.184C1153.38 462.184 1153.06 462.259 1152.78 462.408C1152.49 462.547 1152.26 462.755 1152.09 463.032C1151.93 463.299 1151.85 463.629 1151.85 464.024C1151.85 464.397 1151.93 464.723 1152.09 465C1152.26 465.277 1152.49 465.491 1152.78 465.64C1153.06 465.779 1153.38 465.848 1153.74 465.848C1154.11 465.848 1154.43 465.779 1154.71 465.64C1155 465.491 1155.22 465.277 1155.38 465C1155.54 464.723 1155.62 464.397 1155.62 464.024C1155.62 463.629 1155.54 463.299 1155.38 463.032C1155.22 462.755 1155 462.547 1154.71 462.408C1154.43 462.259 1154.11 462.184 1153.74 462.184ZM1159.91 459.608H1162.06V468.28H1159.91V459.608ZM1157.03 468.584C1158.08 468.584 1158.97 468.701 1159.72 468.936C1160.48 469.16 1161.06 469.491 1161.48 469.928C1161.9 470.365 1162.1 470.888 1162.1 471.496C1162.1 472.104 1161.9 472.627 1161.48 473.064C1161.06 473.512 1160.48 473.848 1159.72 474.072C1158.97 474.307 1158.08 474.424 1157.03 474.424C1155.99 474.424 1155.09 474.307 1154.33 474.072C1153.57 473.848 1152.98 473.512 1152.57 473.064C1152.16 472.627 1151.96 472.104 1151.96 471.496C1151.96 470.888 1152.16 470.365 1152.57 469.928C1152.98 469.491 1153.57 469.16 1154.33 468.936C1155.09 468.701 1155.99 468.584 1157.03 468.584ZM1157.03 470.216C1156.39 470.216 1155.85 470.264 1155.4 470.36C1154.95 470.456 1154.62 470.6 1154.39 470.792C1154.17 470.973 1154.06 471.208 1154.06 471.496C1154.06 471.784 1154.17 472.024 1154.39 472.216C1154.62 472.408 1154.95 472.552 1155.4 472.648C1155.85 472.733 1156.39 472.776 1157.03 472.776C1157.68 472.776 1158.23 472.733 1158.66 472.648C1159.11 472.552 1159.45 472.408 1159.67 472.216C1159.9 472.024 1160.01 471.784 1160.01 471.496C1160.01 471.208 1159.9 470.973 1159.67 470.792C1159.45 470.6 1159.11 470.456 1158.66 470.36C1158.23 470.264 1157.68 470.216 1157.03 470.216ZM1171.86 462.872H1175.57V464.584H1171.86V462.872ZM1168.45 460.216C1169.2 460.216 1169.87 460.371 1170.45 460.68C1171.05 460.979 1171.52 461.395 1171.86 461.928C1172.2 462.451 1172.37 463.059 1172.37 463.752C1172.37 464.435 1172.2 465.043 1171.86 465.576C1171.52 466.109 1171.05 466.531 1170.45 466.84C1169.87 467.139 1169.2 467.288 1168.45 467.288C1167.72 467.288 1167.05 467.139 1166.45 466.84C1165.87 466.531 1165.4 466.109 1165.06 465.576C1164.72 465.043 1164.55 464.435 1164.55 463.752C1164.55 463.059 1164.72 462.451 1165.06 461.928C1165.4 461.395 1165.87 460.979 1166.45 460.68C1167.05 460.371 1167.72 460.216 1168.45 460.216ZM1168.45 461.976C1168.09 461.976 1167.77 462.045 1167.48 462.184C1167.2 462.323 1166.98 462.525 1166.82 462.792C1166.66 463.059 1166.58 463.379 1166.58 463.752C1166.58 464.115 1166.66 464.429 1166.82 464.696C1166.98 464.963 1167.2 465.165 1167.48 465.304C1167.77 465.443 1168.09 465.512 1168.45 465.512C1168.82 465.512 1169.14 465.443 1169.41 465.304C1169.7 465.165 1169.93 464.963 1170.09 464.696C1170.25 464.429 1170.33 464.115 1170.33 463.752C1170.33 463.379 1170.25 463.059 1170.09 462.792C1169.93 462.525 1169.7 462.323 1169.41 462.184C1169.14 462.045 1168.82 461.976 1168.45 461.976ZM1174.63 459.608H1176.77V467.56H1174.63V459.608ZM1166.93 468.216H1169.05V469.608H1174.66V468.216H1176.77V474.264H1166.93V468.216ZM1169.05 471.24V472.568H1174.66V471.24H1169.05ZM1183.52 473V461.144H1185.89V473H1183.52ZM1192.07 460.984H1199.16V470.808H1192.07V460.984ZM1197.06 462.664H1194.17V469.144H1197.06V462.664ZM1201.08 459.608H1203.22V474.424H1201.08V459.608ZM1202.76 465.192H1205.37V466.936H1202.76V465.192ZM1210.87 461.272H1212.87C1212.87 462.328 1212.79 463.336 1212.63 464.296C1212.48 465.256 1212.21 466.163 1211.82 467.016C1211.42 467.869 1210.87 468.675 1210.17 469.432C1209.46 470.179 1208.56 470.872 1207.46 471.512L1206.26 470.024C1207.18 469.491 1207.93 468.931 1208.52 468.344C1209.12 467.747 1209.59 467.107 1209.93 466.424C1210.27 465.731 1210.51 464.989 1210.65 464.2C1210.8 463.411 1210.87 462.557 1210.87 461.64V461.272ZM1207.1 461.272H1211.51V462.952H1207.1V461.272ZM1210.89 464.648V466.216L1206.6 466.664L1206.36 464.872L1210.89 464.648ZM1211.66 465.192H1214.68V466.888H1211.66V465.192ZM1217.06 459.592H1219.1V474.408H1217.06V459.592ZM1213.98 459.912H1215.96V473.752H1213.98V459.912ZM1221.86 466.248H1223.14C1224.16 466.248 1225.05 466.243 1225.81 466.232C1226.59 466.211 1227.31 466.173 1227.97 466.12C1228.65 466.067 1229.32 465.987 1230.01 465.88L1230.21 467.544C1229.51 467.651 1228.81 467.736 1228.12 467.8C1227.44 467.853 1226.69 467.891 1225.89 467.912C1225.09 467.923 1224.18 467.928 1223.14 467.928H1221.86V466.248ZM1221.86 460.616H1229V462.312H1223.97V466.92H1221.86V460.616ZM1223.32 463.432H1228.57V465.08H1223.32V463.432ZM1231.24 459.608H1233.37V468.568H1231.24V459.608ZM1228.36 468.792C1229.4 468.792 1230.3 468.904 1231.06 469.128C1231.82 469.352 1232.4 469.672 1232.81 470.088C1233.22 470.504 1233.43 471.011 1233.43 471.608C1233.43 472.504 1232.98 473.197 1232.07 473.688C1231.16 474.179 1229.93 474.424 1228.36 474.424C1226.79 474.424 1225.55 474.179 1224.65 473.688C1223.75 473.197 1223.3 472.504 1223.3 471.608C1223.3 470.723 1223.75 470.035 1224.65 469.544C1225.55 469.043 1226.79 468.792 1228.36 468.792ZM1228.36 470.408C1227.72 470.408 1227.18 470.451 1226.74 470.536C1226.3 470.621 1225.97 470.755 1225.75 470.936C1225.53 471.117 1225.41 471.341 1225.41 471.608C1225.41 471.875 1225.53 472.099 1225.75 472.28C1225.97 472.451 1226.3 472.579 1226.74 472.664C1227.18 472.749 1227.72 472.792 1228.36 472.792C1229.01 472.792 1229.55 472.749 1229.97 472.664C1230.41 472.579 1230.74 472.451 1230.97 472.28C1231.2 472.099 1231.32 471.875 1231.32 471.608C1231.32 471.341 1231.2 471.117 1230.97 470.936C1230.74 470.755 1230.41 470.621 1229.97 470.536C1229.55 470.451 1229.01 470.408 1228.36 470.408ZM1236.58 466.072H1237.86C1238.87 466.072 1239.77 466.067 1240.53 466.056C1241.31 466.035 1242.03 465.997 1242.69 465.944C1243.37 465.891 1244.04 465.811 1244.73 465.704L1244.93 467.352C1244.23 467.459 1243.53 467.544 1242.84 467.608C1242.15 467.661 1241.41 467.699 1240.61 467.72C1239.81 467.731 1238.9 467.736 1237.86 467.736H1236.58V466.072ZM1236.58 460.44H1243.72V462.12H1238.69V466.744H1236.58V460.44ZM1238.04 463.24H1243.29V464.904H1238.04V463.24ZM1245.96 459.608H1248.09V468.408H1245.96V459.608ZM1238.23 469.016H1248.09V474.264H1238.23V469.016ZM1246.01 470.68H1240.33V472.584H1246.01V470.68Z" fill="#333333"/>
<rect x="1285.5" y="443.5" width="113" height="46" fill="white"/>
<rect x="1285.5" y="443.5" width="113" height="46" stroke="#ECECEC"/>
<path d="M1307.19 460.456H1316.47V462.136H1307.19V460.456ZM1305.66 466.76H1319.06V468.488H1305.66V466.76ZM1311.21 467.976H1313.35V474.424H1311.21V467.976ZM1315.38 460.456H1317.48V461.768C1317.48 462.301 1317.47 462.867 1317.45 463.464C1317.44 464.061 1317.39 464.717 1317.32 465.432C1317.25 466.136 1317.11 466.925 1316.9 467.8L1314.82 467.544C1315.1 466.317 1315.26 465.245 1315.3 464.328C1315.36 463.4 1315.38 462.547 1315.38 461.768V460.456ZM1331.06 459.592H1333.09V474.408H1331.06V459.592ZM1329.29 465.256H1331.75V466.952H1329.29V465.256ZM1327.83 459.832H1329.81V473.752H1327.83V459.832ZM1320.79 461.112H1326.63V470.712H1320.79V461.112ZM1324.66 462.776H1322.77V469.064H1324.66V462.776ZM1338.41 461.944H1340.09V463.608C1340.09 464.429 1339.99 465.251 1339.81 466.072C1339.64 466.893 1339.39 467.667 1339.05 468.392C1338.7 469.107 1338.27 469.747 1337.75 470.312C1337.24 470.877 1336.64 471.32 1335.96 471.64L1334.76 469.96C1335.38 469.672 1335.91 469.293 1336.36 468.824C1336.82 468.355 1337.19 467.832 1337.49 467.256C1337.8 466.68 1338.03 466.083 1338.18 465.464C1338.33 464.835 1338.41 464.216 1338.41 463.608V461.944ZM1338.85 461.944H1340.53V463.608C1340.53 464.163 1340.61 464.733 1340.76 465.32C1340.91 465.907 1341.13 466.472 1341.41 467.016C1341.71 467.56 1342.09 468.056 1342.53 468.504C1342.99 468.941 1343.53 469.299 1344.13 469.576L1342.95 471.272C1342.27 470.952 1341.67 470.525 1341.16 469.992C1340.66 469.448 1340.23 468.835 1339.88 468.152C1339.54 467.459 1339.28 466.728 1339.11 465.96C1338.94 465.181 1338.85 464.397 1338.85 463.608V461.944ZM1335.33 461.016H1343.48V462.776H1335.33V461.016ZM1344.55 459.608H1346.69V474.424H1344.55V459.608ZM1346.23 465.256H1348.84V467H1346.23V465.256ZM1360.61 459.592H1362.64V474.408H1360.61V459.592ZM1358.85 465.272H1361.3V467H1358.85V465.272ZM1357.43 459.832H1359.41V473.752H1357.43V459.832ZM1352.45 461.912H1354.07V463.208C1354.07 464.125 1354.01 465.011 1353.89 465.864C1353.79 466.707 1353.6 467.496 1353.35 468.232C1353.1 468.957 1352.77 469.608 1352.36 470.184C1351.94 470.76 1351.42 471.229 1350.8 471.592L1349.52 469.976C1350.26 469.539 1350.84 468.973 1351.27 468.28C1351.69 467.587 1352 466.808 1352.18 465.944C1352.36 465.069 1352.45 464.157 1352.45 463.208V461.912ZM1352.88 461.912H1354.5V463.208C1354.5 464.072 1354.59 464.909 1354.77 465.72C1354.96 466.531 1355.27 467.256 1355.7 467.896C1356.14 468.536 1356.72 469.048 1357.46 469.432L1356.24 471.048C1355.41 470.6 1354.75 469.981 1354.26 469.192C1353.77 468.403 1353.42 467.496 1353.2 466.472C1352.99 465.448 1352.88 464.36 1352.88 463.208V461.912ZM1349.99 461.096H1356.72V462.808H1349.99V461.096ZM1365.33 466.072H1366.61C1367.62 466.072 1368.52 466.067 1369.28 466.056C1370.06 466.035 1370.78 465.997 1371.44 465.944C1372.12 465.891 1372.79 465.811 1373.48 465.704L1373.68 467.352C1372.98 467.459 1372.28 467.544 1371.59 467.608C1370.9 467.661 1370.16 467.699 1369.36 467.72C1368.56 467.731 1367.65 467.736 1366.61 467.736H1365.33V466.072ZM1365.33 460.44H1372.47V462.12H1367.44V466.744H1365.33V460.44ZM1366.79 463.24H1372.04V464.904H1366.79V463.24ZM1374.71 459.608H1376.84V468.408H1374.71V459.608ZM1366.98 469.016H1376.84V474.264H1366.98V469.016ZM1374.76 470.68H1369.08V472.584H1374.76V470.68Z" fill="#333333"/>
<rect width="114" height="47" transform="translate(1143 331)" fill="#565656"/>
<path d="M1171.59 351.432H1175.03V353.144H1171.59V351.432ZM1173.91 347.608H1176.06V358.408H1173.91V347.608ZM1166.26 360.456H1176.39V362.168H1166.26V360.456ZM1166.26 357.496H1168.39V361.464H1166.26V357.496ZM1167.08 349.544H1168.81V350.472C1168.81 351.411 1168.66 352.301 1168.36 353.144C1168.06 353.987 1167.6 354.728 1166.98 355.368C1166.38 355.997 1165.59 356.472 1164.63 356.792L1163.58 355.096C1164.18 354.893 1164.71 354.632 1165.14 354.312C1165.59 353.981 1165.95 353.608 1166.23 353.192C1166.52 352.776 1166.73 352.339 1166.87 351.88C1167.01 351.421 1167.08 350.952 1167.08 350.472V349.544ZM1167.53 349.544H1169.22V350.472C1169.22 351.048 1169.34 351.624 1169.58 352.2C1169.81 352.765 1170.17 353.283 1170.66 353.752C1171.17 354.211 1171.81 354.573 1172.58 354.84L1171.54 356.488C1170.63 356.179 1169.87 355.725 1169.27 355.128C1168.69 354.52 1168.25 353.816 1167.96 353.016C1167.67 352.205 1167.53 351.357 1167.53 350.472V349.544ZM1164.15 348.6H1172.12V350.296H1164.15V348.6ZM1189.41 349.64H1191.97V351.368H1189.41V349.64ZM1189.41 352.808H1191.97V354.536H1189.41V352.808ZM1178.9 354.376H1180.15C1181.12 354.376 1181.99 354.365 1182.74 354.344C1183.51 354.323 1184.22 354.28 1184.87 354.216C1185.53 354.141 1186.2 354.045 1186.89 353.928L1187.08 355.624C1186.4 355.752 1185.71 355.853 1185.01 355.928C1184.33 355.992 1183.6 356.035 1182.81 356.056C1182.03 356.077 1181.14 356.088 1180.15 356.088H1178.9V354.376ZM1178.87 348.408H1185.64V352.968H1181V355.176H1178.9V351.4H1183.54V350.104H1178.87V348.408ZM1187.89 347.608H1190.02V356.616H1187.89V347.608ZM1180.13 357.288H1190.02V362.424H1187.89V358.968H1180.13V357.288ZM1203.3 347.592H1205.43V362.408H1203.3V347.592ZM1198.93 349.128H1201.03C1201.03 350.259 1200.92 351.341 1200.69 352.376C1200.48 353.4 1200.12 354.365 1199.61 355.272C1199.1 356.179 1198.41 357.021 1197.53 357.8C1196.65 358.568 1195.56 359.272 1194.25 359.912L1193.13 358.232C1194.55 357.539 1195.69 356.776 1196.53 355.944C1197.39 355.101 1198 354.152 1198.37 353.096C1198.75 352.029 1198.93 350.835 1198.93 349.512V349.128ZM1193.93 349.128H1199.93V350.824H1193.93V349.128ZM1208.31 348.68H1217V350.216H1208.31V348.68ZM1212.64 350.568C1213.39 350.568 1214.04 350.659 1214.58 350.84C1215.13 351.021 1215.57 351.277 1215.88 351.608C1216.19 351.939 1216.34 352.328 1216.34 352.776C1216.34 353.235 1216.19 353.629 1215.88 353.96C1215.57 354.291 1215.13 354.552 1214.58 354.744C1214.04 354.925 1213.39 355.016 1212.64 355.016C1211.91 355.016 1211.26 354.925 1210.71 354.744C1210.16 354.552 1209.74 354.291 1209.43 353.96C1209.13 353.629 1208.98 353.235 1208.98 352.776C1208.98 352.328 1209.13 351.939 1209.43 351.608C1209.74 351.277 1210.16 351.021 1210.71 350.84C1211.26 350.659 1211.91 350.568 1212.64 350.568ZM1212.64 351.976C1212.15 351.976 1211.75 352.045 1211.44 352.184C1211.15 352.312 1211 352.509 1211 352.776C1211 353.043 1211.15 353.251 1211.44 353.4C1211.75 353.539 1212.15 353.608 1212.64 353.608C1213.15 353.608 1213.55 353.539 1213.84 353.4C1214.15 353.251 1214.31 353.043 1214.31 352.776C1214.31 352.509 1214.15 352.312 1213.84 352.184C1213.55 352.045 1213.15 351.976 1212.64 351.976ZM1211.59 347.496H1213.73V349.464H1211.59V347.496ZM1211.59 354.216H1213.73V356.28H1211.59V354.216ZM1218.02 347.608H1220.15V357.656H1218.02V347.608ZM1209.91 358.216H1220.15V362.424H1218.02V359.864H1209.91V358.216ZM1208.13 357.352L1207.89 355.736C1208.79 355.736 1209.75 355.731 1210.79 355.72C1211.83 355.709 1212.9 355.677 1213.99 355.624C1215.09 355.56 1216.14 355.464 1217.14 355.336L1217.3 356.776C1216.25 356.947 1215.19 357.075 1214.12 357.16C1213.04 357.245 1211.99 357.299 1210.96 357.32C1209.95 357.341 1209.01 357.352 1208.13 357.352ZM1222.53 356.12H1235.94V357.8H1222.53V356.12ZM1228.12 356.968H1230.24V362.424H1228.12V356.968ZM1224.05 348.168H1226.16V349.848H1232.26V348.168H1234.36V354.712H1224.05V348.168ZM1226.16 351.512V353.032H1232.26V351.512H1226.16Z" fill="white"/>
<rect width="114" height="47" transform="translate(850 176)" fill="#EEEEEE"/>
<path d="M876.288 200.752H878.4V202.992H876.288V200.752ZM870.64 199.536H884.048V201.216H870.64V199.536ZM871.808 193.008H882.864V194.704H871.808V193.008ZM871.92 196.928H882.736V198.608H871.92V196.928ZM873.696 193.616H875.824V198.032H873.696V193.616ZM878.848 193.616H880.976V198.032H878.848V193.616ZM872.208 202.432H882.448V207.264H872.208V202.432ZM880.368 204.096H874.288V205.584H880.368V204.096ZM895.551 192.608H897.679V200.192H895.551V192.608ZM887.807 200.784H897.679V204.768H889.919V206.32H887.823V203.264H895.567V202.384H887.807V200.784ZM887.823 205.696H898.047V207.328H887.823V205.696ZM888.959 194.016H890.703V194.592C890.703 195.467 890.543 196.293 890.223 197.072C889.913 197.84 889.444 198.512 888.815 199.088C888.185 199.664 887.385 200.091 886.415 200.368L885.423 198.704C886.041 198.523 886.569 198.288 887.007 198C887.455 197.712 887.823 197.387 888.111 197.024C888.399 196.651 888.612 196.256 888.751 195.84C888.889 195.424 888.959 195.008 888.959 194.592V194.016ZM889.423 194.016H891.135V194.592C891.135 194.976 891.204 195.365 891.343 195.76C891.481 196.144 891.689 196.507 891.967 196.848C892.255 197.189 892.617 197.499 893.055 197.776C893.492 198.043 894.015 198.256 894.623 198.416L893.647 200.048C892.697 199.792 891.908 199.392 891.279 198.848C890.66 198.304 890.196 197.664 889.887 196.928C889.577 196.192 889.423 195.413 889.423 194.592V194.016ZM885.999 193.28H894.063V194.96H885.999V193.28ZM900.75 193.68H907.086V195.376H900.75V193.68ZM902.574 197.136H904.67V200.832H902.574V197.136ZM906.254 193.68H908.35V194.608C908.35 195.131 908.334 195.755 908.302 196.48C908.28 197.195 908.179 198.021 907.998 198.96L905.934 198.72C906.094 197.813 906.184 197.029 906.206 196.368C906.238 195.707 906.254 195.12 906.254 194.608V193.68ZM909.774 192.592H911.918V203.68H909.774V192.592ZM911.07 197.12H913.694V198.864H911.07V197.12ZM902.03 205.456H912.398V207.168H902.03V205.456ZM902.03 202.704H904.174V205.984H902.03V202.704ZM900.062 201.712L899.87 200.016C900.723 200.016 901.667 200.011 902.702 200C903.736 199.979 904.792 199.936 905.87 199.872C906.947 199.797 907.982 199.691 908.974 199.552L909.118 201.072C908.094 201.253 907.048 201.392 905.982 201.488C904.915 201.573 903.875 201.632 902.862 201.664C901.848 201.685 900.915 201.701 900.062 201.712ZM925.004 192.576H927.148V207.44H925.004V192.576ZM915.612 202.256H916.924C917.799 202.256 918.626 202.245 919.404 202.224C920.183 202.192 920.946 202.144 921.692 202.08C922.439 202.005 923.202 201.899 923.98 201.76L924.204 203.472C923.01 203.685 921.831 203.829 920.668 203.904C919.516 203.968 918.268 204 916.924 204H915.612V202.256ZM915.58 193.84H922.572V199.584H917.772V202.912H915.612V197.904H920.412V195.552H915.58V193.84ZM929.531 201.12H942.939V202.8H929.531V201.12ZM935.115 201.968H937.243V207.424H935.115V201.968ZM931.051 193.168H933.163V194.848H939.259V193.168H941.355V199.712H931.051V193.168ZM933.163 196.512V198.032H939.259V196.512H933.163Z" fill="#333333"/>
<path d="M713 92L713 171" stroke="#A0A0A0"/>
<path d="M763 198H842" stroke="#A0A0A0"/>
<path d="M1200 280L1200 326" stroke="#A0A0A0"/>
<path d="M749 280L749 326" stroke="#A0A0A0"/>
<path d="M640 396L640 431" stroke="#A0A0A0"/>
<path d="M355 396L355 431" stroke="#A0A0A0"/>
<path d="M70 396L70 431" stroke="#A0A0A0"/>
<path d="M1057 396L1057 431" stroke="#A0A0A0"/>
<path d="M853 396L853 431" stroke="#A0A0A0"/>
<path d="M455 396L455 431" stroke="#A0A0A0"/>
<path d="M170 396L170 431" stroke="#A0A0A0"/>
<path d="M1342 396L1342 431" stroke="#A0A0A0"/>
<path d="M749 378L749 431" stroke="#A0A0A0"/>
<path d="M407 378L407 396" stroke="#A0A0A0"/>
<path d="M122 378L122 396" stroke="#A0A0A0"/>
<path d="M1202 378L1202 431" stroke="#A0A0A0"/>
<path d="M405 280L405 326" stroke="#A0A0A0"/>
<path d="M120 280L120 326" stroke="#A0A0A0"/>
<line x1="712.5" y1="280" x2="712.5" y2="223" stroke="#A0A0A0"/>
<line x1="1200" y1="280.5" x2="120" y2="280.5" stroke="#A0A0A0"/>
<line x1="853" y1="396.5" x2="640" y2="396.5" stroke="#A0A0A0"/>
<line x1="455" y1="396.5" x2="355" y2="396.5" stroke="#A0A0A0"/>
<line x1="170" y1="396.5" x2="70" y2="396.5" stroke="#A0A0A0"/>
<line x1="1343" y1="396.5" x2="1057" y2="396.5" stroke="#A0A0A0"/>
</svg>
