<svg width="744" height="2587" viewBox="0 0 744 2587" fill="none" xmlns="http://www.w3.org/2000/svg">
<rect width="744" height="2587" fill="white"/>
<rect width="254.327" height="91.9962" transform="translate(245.55 87)" fill="#F87729"/>
<path d="M298.248 124.723H301.694V125.538C301.694 126.645 301.475 127.7 301.036 128.702C300.619 129.705 299.982 130.613 299.125 131.428C298.29 132.222 297.266 132.901 296.055 133.464C294.843 134.028 293.444 134.425 291.857 134.655L290.227 131.459C291.272 131.334 292.222 131.125 293.078 130.833C293.935 130.54 294.687 130.206 295.334 129.83C295.982 129.433 296.514 129.005 296.932 128.546C297.371 128.086 297.695 127.595 297.903 127.073C298.133 126.551 298.248 126.039 298.248 125.538V124.723ZM299.157 124.723H302.603V125.538C302.603 126.039 302.707 126.551 302.916 127.073C303.146 127.595 303.47 128.086 303.888 128.546C304.326 129.005 304.859 129.433 305.485 129.83C306.133 130.206 306.885 130.54 307.741 130.833C308.598 131.125 309.558 131.334 310.624 131.459L308.995 134.655C307.407 134.425 305.997 134.028 304.765 133.464C303.553 132.901 302.53 132.222 301.694 131.428C300.859 130.613 300.222 129.705 299.783 128.702C299.366 127.7 299.157 126.645 299.157 125.538V124.723ZM298.373 137.913H302.415V147.814H298.373V137.913ZM289.883 135.94H310.906V139.323H289.883V135.94ZM291.825 123.188H308.995V126.54H291.825V123.188ZM289.444 149.318C288.003 147.125 287 144.838 286.436 142.456C285.872 140.054 285.59 137.433 285.59 134.592C285.59 131.773 285.872 129.162 286.436 126.76C287 124.358 288.003 122.06 289.444 119.867L291.23 120.368C290.374 121.809 289.705 123.292 289.225 124.817C288.765 126.321 288.442 127.888 288.254 129.517C288.086 131.125 287.992 132.817 287.972 134.592C287.972 136.368 288.055 138.07 288.222 139.699C288.41 141.329 288.744 142.895 289.225 144.399C289.705 145.882 290.374 147.354 291.23 148.817L289.444 149.318ZM311.313 149.318L309.527 148.817C310.822 146.644 311.689 144.336 312.128 141.892C312.566 139.449 312.786 137.015 312.786 134.592C312.786 132.796 312.692 131.094 312.504 129.485C312.316 127.856 311.981 126.29 311.501 124.786C311.041 123.282 310.384 121.809 309.527 120.368L311.313 119.867C312.754 122.06 313.757 124.358 314.321 126.76C314.885 129.162 315.167 131.773 315.167 134.592C315.167 137.433 314.885 140.054 314.321 142.456C313.757 144.838 312.754 147.125 311.313 149.318ZM317.36 133.903H343.584V137.193H317.36V133.903ZM328.388 129.548H332.555V135.188H328.388V129.548ZM320.524 128.232H340.607V131.491H320.524V128.232ZM320.524 121.496H340.451V124.786H324.66V130.3H320.524V121.496ZM330.362 138.634C333.495 138.634 335.96 139.104 337.756 140.044C339.552 140.963 340.451 142.279 340.451 143.992C340.451 145.684 339.552 146.989 337.756 147.908C335.96 148.848 333.495 149.318 330.362 149.318C327.229 149.318 324.764 148.848 322.968 147.908C321.193 146.989 320.305 145.684 320.305 143.992C320.305 142.279 321.193 140.963 322.968 140.044C324.764 139.104 327.229 138.634 330.362 138.634ZM330.362 141.798C329.067 141.798 327.981 141.882 327.104 142.049C326.247 142.195 325.6 142.436 325.161 142.77C324.723 143.083 324.503 143.48 324.503 143.96C324.503 144.462 324.723 144.879 325.161 145.214C325.6 145.527 326.247 145.767 327.104 145.934C327.981 146.08 329.067 146.153 330.362 146.153C331.657 146.153 332.733 146.08 333.589 145.934C334.466 145.767 335.124 145.527 335.563 145.214C336.002 144.879 336.221 144.462 336.221 143.96C336.221 143.48 336.002 143.083 335.563 142.77C335.124 142.436 334.466 142.195 333.589 142.049C332.733 141.882 331.657 141.798 330.362 141.798ZM353.701 135.156H357.868V141.485H353.701V135.156ZM366.39 120.243H370.557V142.237H366.39V120.243ZM349.659 145.433H371.215V148.785H349.659V145.433ZM349.659 140.138H353.826V146.341H349.659V140.138ZM346.558 136.41L346.025 133.089C347.8 133.068 349.733 133.047 351.821 133.026C353.91 132.984 356.04 132.901 358.213 132.775C360.385 132.65 362.474 132.462 364.479 132.211L364.761 135.188C362.693 135.543 360.583 135.814 358.432 136.002C356.302 136.169 354.223 136.274 352.197 136.316C350.171 136.357 348.291 136.389 346.558 136.41ZM360.939 137.099H367.33V139.95H360.939V137.099ZM355.362 121.245C356.782 121.245 358.035 121.465 359.121 121.903C360.207 122.342 361.053 122.948 361.659 123.721C362.286 124.493 362.599 125.402 362.599 126.446C362.599 127.47 362.286 128.378 361.659 129.172C361.053 129.945 360.207 130.54 359.121 130.958C358.035 131.376 356.782 131.585 355.362 131.585C353.941 131.585 352.678 131.376 351.571 130.958C350.484 130.54 349.639 129.945 349.033 129.172C348.427 128.378 348.124 127.47 348.124 126.446C348.124 125.402 348.427 124.493 349.033 123.721C349.639 122.948 350.484 122.342 351.571 121.903C352.678 121.465 353.941 121.245 355.362 121.245ZM355.362 124.285C354.401 124.285 353.607 124.462 352.98 124.817C352.375 125.172 352.072 125.715 352.072 126.446C352.072 127.136 352.375 127.668 352.98 128.044C353.607 128.399 354.401 128.577 355.362 128.577C356.343 128.577 357.127 128.399 357.711 128.044C358.317 127.668 358.62 127.136 358.62 126.446C358.62 125.966 358.484 125.569 358.213 125.256C357.941 124.943 357.565 124.702 357.085 124.535C356.604 124.368 356.03 124.285 355.362 124.285ZM394.867 120.212H399.034V149.318H394.867V120.212ZM383.4 122.248C384.883 122.248 386.199 122.676 387.348 123.533C388.497 124.368 389.395 125.569 390.042 127.136C390.711 128.681 391.045 130.509 391.045 132.619C391.045 134.749 390.711 136.598 390.042 138.164C389.395 139.71 388.497 140.911 387.348 141.767C386.199 142.603 384.883 143.02 383.4 143.02C381.938 143.02 380.633 142.603 379.484 141.767C378.335 140.911 377.427 139.71 376.758 138.164C376.111 136.598 375.787 134.749 375.787 132.619C375.787 130.509 376.111 128.681 376.758 127.136C377.427 125.569 378.335 124.368 379.484 123.533C380.633 122.676 381.938 122.248 383.4 122.248ZM383.4 126.039C382.69 126.039 382.063 126.29 381.52 126.791C380.977 127.292 380.549 128.034 380.236 129.016C379.943 129.976 379.797 131.177 379.797 132.619C379.797 134.039 379.943 135.25 380.236 136.253C380.549 137.235 380.977 137.976 381.52 138.477C382.063 138.979 382.69 139.229 383.4 139.229C384.131 139.229 384.768 138.979 385.311 138.477C385.855 137.976 386.272 137.235 386.565 136.253C386.878 135.25 387.035 134.039 387.035 132.619C387.035 131.177 386.878 129.976 386.565 129.016C386.272 128.034 385.855 127.292 385.311 126.791C384.768 126.29 384.131 126.039 383.4 126.039ZM415.418 128.107H419.867V131.459H415.418V128.107ZM410.499 122.342C411.794 122.342 412.932 122.655 413.914 123.282C414.917 123.909 415.7 124.775 416.264 125.882C416.849 126.969 417.141 128.232 417.141 129.673C417.141 131.094 416.849 132.357 416.264 133.464C415.7 134.572 414.917 135.438 413.914 136.065C412.932 136.692 411.794 137.005 410.499 137.005C409.225 137.005 408.086 136.692 407.084 136.065C406.081 135.438 405.298 134.572 404.734 133.464C404.17 132.357 403.888 131.094 403.888 129.673C403.888 128.232 404.17 126.969 404.734 125.882C405.298 124.775 406.081 123.909 407.084 123.282C408.086 122.655 409.225 122.342 410.499 122.342ZM410.499 125.945C409.935 125.945 409.434 126.091 408.995 126.384C408.556 126.676 408.212 127.104 407.961 127.668C407.731 128.211 407.617 128.88 407.617 129.673C407.617 130.467 407.731 131.146 407.961 131.71C408.212 132.274 408.556 132.702 408.995 132.995C409.434 133.287 409.935 133.433 410.499 133.433C411.063 133.433 411.564 133.287 412.003 132.995C412.441 132.702 412.786 132.274 413.037 131.71C413.287 131.146 413.413 130.467 413.413 129.673C413.413 128.88 413.287 128.211 413.037 127.668C412.786 127.104 412.441 126.676 412.003 126.384C411.564 126.091 411.063 125.945 410.499 125.945ZM424.535 120.274H428.514V141.83H424.535V120.274ZM418.802 120.744H422.718V140.984H418.802V120.744ZM408.964 145.433H429.235V148.785H408.964V145.433ZM408.964 139.104H413.162V147.187H408.964V139.104ZM453.138 120.274H457.336V149.287H453.138V120.274ZM436.188 122.561H439.227V127.449C439.227 128.932 439.164 130.425 439.039 131.929C438.914 133.433 438.684 134.874 438.35 136.253C438.036 137.611 437.577 138.853 436.971 139.981C436.386 141.109 435.613 142.07 434.653 142.864L431.989 139.981C432.908 139.25 433.65 138.404 434.214 137.444C434.778 136.483 435.196 135.449 435.467 134.342C435.76 133.235 435.948 132.096 436.031 130.927C436.136 129.736 436.188 128.577 436.188 127.449V122.561ZM437.159 122.561H440.104V127.449C440.104 128.556 440.146 129.694 440.229 130.864C440.334 132.034 440.532 133.193 440.825 134.342C441.117 135.47 441.545 136.535 442.109 137.537C442.694 138.54 443.457 139.428 444.396 140.201L442.141 143.271C441.075 142.456 440.209 141.454 439.54 140.263C438.893 139.073 438.391 137.757 438.036 136.316C437.702 134.874 437.472 133.391 437.347 131.867C437.222 130.342 437.159 128.869 437.159 127.449V122.561ZM444.146 122.561H447.091V127.449C447.091 128.89 447.028 130.373 446.903 131.898C446.798 133.423 446.569 134.906 446.214 136.347C445.859 137.767 445.357 139.073 444.71 140.263C444.062 141.454 443.206 142.456 442.141 143.271L439.885 140.201C440.825 139.428 441.577 138.551 442.141 137.569C442.705 136.566 443.133 135.501 443.425 134.373C443.718 133.224 443.906 132.065 443.989 130.895C444.094 129.726 444.146 128.577 444.146 127.449V122.561ZM445.117 122.561H448.125V127.449C448.125 128.598 448.167 129.767 448.25 130.958C448.355 132.128 448.553 133.266 448.845 134.373C449.138 135.48 449.566 136.514 450.13 137.475C450.694 138.436 451.435 139.271 452.354 139.981L449.817 142.989C448.835 142.216 448.031 141.266 447.404 140.138C446.778 138.989 446.297 137.725 445.963 136.347C445.65 134.947 445.43 133.496 445.305 131.992C445.18 130.467 445.117 128.953 445.117 127.449V122.561Z" fill="white"/>
<path d="M211.45 307.008C211.833 307.39 212.453 307.39 212.835 307.008L219.066 300.777C219.448 300.395 219.448 299.775 219.066 299.392C218.683 299.01 218.063 299.01 217.681 299.392L212.143 304.931L206.604 299.392C206.222 299.01 205.602 299.01 205.219 299.392C204.837 299.775 204.837 300.395 205.219 300.777L211.45 307.008ZM211.163 204.49L211.163 306.316L213.122 306.316L213.122 204.49L211.163 204.49Z" fill="#A0A0A0"/>
<path d="M391.029 365.753C391.411 365.371 391.411 364.751 391.029 364.368L384.798 358.138C384.416 357.755 383.796 357.755 383.413 358.138C383.031 358.52 383.031 359.14 383.413 359.522L388.952 365.061L383.413 370.599C383.031 370.982 383.031 371.602 383.413 371.984C383.796 372.366 384.416 372.366 384.798 371.984L391.029 365.753ZM390.336 364.082H308.093V366.04H390.336V364.082Z" fill="#A0A0A0"/>
<path d="M372.713 204.49L212.143 204.49" stroke="#A0A0A0" stroke-width="1.95817"/>
<path d="M218.709 549.822C219.092 549.439 219.092 548.819 218.709 548.437L212.479 542.206C212.096 541.824 211.476 541.824 211.094 542.206C210.712 542.588 210.712 543.208 211.094 543.591L216.632 549.129L211.094 554.668C210.712 555.05 210.712 555.67 211.094 556.052C211.476 556.435 212.096 556.435 212.479 556.052L218.709 549.822ZM218.017 548.15H172.979V550.108H218.017V548.15Z" fill="#A0A0A0"/>
<path d="M355.782 682.977C356.164 682.595 356.164 681.975 355.782 681.593L349.551 675.362C349.168 674.98 348.549 674.98 348.166 675.362C347.784 675.744 347.784 676.364 348.166 676.747L353.705 682.285L348.166 687.824C347.784 688.206 347.784 688.826 348.166 689.208C348.549 689.591 349.168 689.591 349.551 689.208L355.782 682.977ZM355.089 681.306H310.051V683.264H355.089V681.306Z" fill="#A0A0A0"/>
<path d="M355.782 1135.32C356.164 1134.93 356.164 1134.31 355.782 1133.93L349.551 1127.7C349.168 1127.32 348.549 1127.32 348.166 1127.7C347.784 1128.08 347.784 1128.7 348.166 1129.08L353.705 1134.62L348.166 1140.16C347.784 1140.54 347.784 1141.16 348.166 1141.55C348.549 1141.93 349.168 1141.93 349.551 1141.55L355.782 1135.32ZM355.089 1133.64H310.051V1135.6H355.089V1133.64Z" fill="#A0A0A0"/>
<path d="M355.782 1587.65C356.164 1587.27 356.164 1586.65 355.782 1586.27L349.551 1580.04C349.168 1579.66 348.549 1579.66 348.166 1580.04C347.784 1580.42 347.784 1581.04 348.166 1581.42L353.705 1586.96L348.166 1592.5C347.784 1592.88 347.784 1593.5 348.166 1593.89C348.549 1594.27 349.168 1594.27 349.551 1593.89L355.782 1587.65ZM355.089 1585.98H310.051V1587.94H355.089V1585.98Z" fill="#A0A0A0"/>
<path d="M297.037 2173.15C297.419 2172.77 297.419 2172.15 297.037 2171.76L290.806 2165.53C290.423 2165.15 289.803 2165.15 289.421 2165.53C289.039 2165.92 289.039 2166.54 289.421 2166.92L294.96 2172.46L289.421 2177.99C289.039 2178.38 289.039 2179 289.421 2179.38C289.803 2179.76 290.423 2179.76 290.806 2179.38L297.037 2173.15ZM296.344 2171.48H251.306V2173.44H296.344V2171.48Z" fill="#A0A0A0"/>
<path d="M355.782 814.175C356.164 813.793 356.164 813.173 355.782 812.791L349.551 806.56C349.168 806.177 348.549 806.177 348.166 806.56C347.784 806.942 347.784 807.562 348.166 807.944L353.705 813.483L348.166 819.021C347.784 819.404 347.784 820.024 348.166 820.406C348.549 820.788 349.168 820.788 349.551 820.406L355.782 814.175ZM355.089 812.504H310.051V814.462H355.089V812.504Z" fill="#A0A0A0"/>
<path d="M355.782 1266.51C356.164 1266.13 356.164 1265.51 355.782 1265.13L349.551 1258.9C349.168 1258.52 348.549 1258.52 348.166 1258.9C347.784 1259.28 347.784 1259.9 348.166 1260.28L353.705 1265.82L348.166 1271.36C347.784 1271.74 347.784 1272.36 348.166 1272.74C348.549 1273.13 349.168 1273.13 349.551 1272.74L355.782 1266.51ZM355.089 1264.84H310.051V1266.8H355.089V1264.84Z" fill="#A0A0A0"/>
<path d="M355.782 1718.85C356.164 1718.47 356.164 1717.85 355.782 1717.47L349.551 1711.24C349.168 1710.85 348.549 1710.85 348.166 1711.24C347.784 1711.62 347.784 1712.24 348.166 1712.62L353.705 1718.16L348.166 1723.7C347.784 1724.08 347.784 1724.7 348.166 1725.08C348.549 1725.47 349.168 1725.47 349.551 1725.08L355.782 1718.85ZM355.089 1717.18H310.051V1719.14H355.089V1717.18Z" fill="#A0A0A0"/>
<path d="M297.037 2304.35C297.419 2303.96 297.419 2303.34 297.037 2302.96L290.806 2296.73C290.423 2296.35 289.803 2296.35 289.421 2296.73C289.039 2297.11 289.039 2297.73 289.421 2298.12L294.96 2303.65L289.421 2309.19C289.039 2309.57 289.039 2310.19 289.421 2310.58C289.803 2310.96 290.423 2310.96 290.806 2310.58L297.037 2304.35ZM296.344 2302.67H251.306V2304.63H296.344V2302.67Z" fill="#A0A0A0"/>
<path d="M355.782 1852.01C356.164 1851.63 356.164 1851.01 355.782 1850.62L349.551 1844.39C349.168 1844.01 348.549 1844.01 348.166 1844.39C347.784 1844.77 347.784 1845.39 348.166 1845.78L353.705 1851.32L348.166 1856.85C347.784 1857.24 347.784 1857.86 348.166 1858.24C348.549 1858.62 349.168 1858.62 349.551 1858.24L355.782 1852.01ZM355.089 1850.34H310.051V1852.29H355.089V1850.34Z" fill="#A0A0A0"/>
<path d="M297.037 2437.5C297.419 2437.12 297.419 2436.5 297.037 2436.12L290.806 2429.89C290.423 2429.5 289.803 2429.5 289.421 2429.89C289.039 2430.27 289.039 2430.89 289.421 2431.27L294.96 2436.81L289.421 2442.35C289.039 2442.73 289.039 2443.35 289.421 2443.73C289.803 2444.12 290.423 2444.12 290.806 2443.73L297.037 2437.5ZM296.344 2435.83H251.306V2437.79H296.344V2435.83Z" fill="#A0A0A0"/>
<path d="M218.709 1004.12C219.092 1003.74 219.092 1003.12 218.709 1002.73L212.479 996.503C212.096 996.12 211.476 996.12 211.094 996.503C210.712 996.885 210.712 997.505 211.094 997.887L216.632 1003.43L211.094 1008.96C210.712 1009.35 210.712 1009.97 211.094 1010.35C211.476 1010.73 212.096 1010.73 212.479 1010.35L218.709 1004.12ZM218.017 1002.45H172.979V1004.4H218.017V1002.45Z" fill="#A0A0A0"/>
<path d="M218.709 1456.46C219.092 1456.07 219.092 1455.45 218.709 1455.07L212.479 1448.84C212.096 1448.46 211.476 1448.46 211.094 1448.84C210.712 1449.22 210.712 1449.84 211.094 1450.23L216.632 1455.76L211.094 1461.3C210.712 1461.69 210.712 1462.31 211.094 1462.69C211.476 1463.07 212.096 1463.07 212.479 1462.69L218.709 1456.46ZM218.017 1454.79H172.979V1456.74H218.017V1454.79Z" fill="#A0A0A0"/>
<path d="M218.709 2041.95C219.092 2041.57 219.092 2040.95 218.709 2040.57L212.479 2034.34C212.096 2033.95 211.476 2033.95 211.094 2034.34C210.712 2034.72 210.712 2035.34 211.094 2035.72L216.632 2041.26L211.094 2046.8C210.712 2047.18 210.712 2047.8 211.094 2048.18C211.476 2048.56 212.096 2048.56 212.479 2048.18L218.709 2041.95ZM218.017 2040.28H172.979V2042.24H218.017V2040.28Z" fill="#A0A0A0"/>
<path d="M172.979 410.099L172.979 2041.26" stroke="#A0A0A0" stroke-width="1.95817"/>
<path d="M310.051 596.125L310.051 813.483" stroke="#A0A0A0" stroke-width="1.95817"/>
<path d="M310.051 1048.46L310.051 1265.82" stroke="#A0A0A0" stroke-width="1.95817"/>
<path d="M310.051 1500.8L310.051 1851.32" stroke="#A0A0A0" stroke-width="1.95817"/>
<path d="M251.306 2086.3L251.306 2436.81" stroke="#A0A0A0" stroke-width="1.95817"/>
<path d="M372.713 179.034L372.713 204.491" stroke="#A0A0A0" stroke-width="1.95817"/>
<rect width="194.327" height="91.9962" transform="translate(114 318.065)" fill="#F6B34A"/>
<path d="M175.377 351.308H179.356V380.32H175.377V351.308ZM171.523 362.493H176.348V365.845H171.523V362.493ZM168.892 351.809H172.745V378.973H168.892V351.809ZM155.263 370.357H157.268C158.479 370.357 159.628 370.346 160.714 370.325C161.8 370.284 162.876 370.21 163.941 370.106C165.028 369.981 166.135 369.824 167.262 369.636L167.607 373.02C166.437 373.229 165.299 373.396 164.192 373.521C163.085 373.646 161.968 373.73 160.84 373.772C159.712 373.793 158.521 373.803 157.268 373.803H155.263V370.357ZM155.263 354.691H165.947V358.044H159.367V372.017H155.263V354.691ZM189.724 367.098H193.86V374.9H189.724V367.098ZM198.841 367.13H202.977V374.931H198.841V367.13ZM183.27 373.803H209.557V377.155H183.27V373.803ZM185.275 353.595H207.395V356.947H185.275V353.595ZM185.432 365.062H207.301V368.351H185.432V365.062ZM189.223 356.352H193.39V365.532H189.223V356.352ZM199.28 356.352H203.447V365.532H199.28V356.352ZM231.987 351.276H236.154V380.383H231.987V351.276ZM220.52 353.313C222.003 353.313 223.319 353.741 224.468 354.597C225.616 355.433 226.515 356.634 227.162 358.2C227.83 359.746 228.165 361.574 228.165 363.683C228.165 365.814 227.83 367.662 227.162 369.229C226.515 370.774 225.616 371.975 224.468 372.832C223.319 373.667 222.003 374.085 220.52 374.085C219.058 374.085 217.752 373.667 216.604 372.832C215.455 371.975 214.546 370.774 213.878 369.229C213.23 367.662 212.907 365.814 212.907 363.683C212.907 361.574 213.23 359.746 213.878 358.2C214.546 356.634 215.455 355.433 216.604 354.597C217.752 353.741 219.058 353.313 220.52 353.313ZM220.52 357.104C219.81 357.104 219.183 357.354 218.64 357.856C218.097 358.357 217.669 359.098 217.355 360.08C217.063 361.041 216.917 362.242 216.917 363.683C216.917 365.104 217.063 366.315 217.355 367.318C217.669 368.299 218.097 369.041 218.64 369.542C219.183 370.043 219.81 370.294 220.52 370.294C221.251 370.294 221.888 370.043 222.431 369.542C222.974 369.041 223.392 368.299 223.684 367.318C223.998 366.315 224.154 365.104 224.154 363.683C224.154 362.242 223.998 361.041 223.684 360.08C223.392 359.098 222.974 358.357 222.431 357.856C221.888 357.354 221.251 357.104 220.52 357.104ZM247.431 353.563H250.783V357.762C250.783 359.558 250.626 361.313 250.313 363.025C250 364.717 249.509 366.294 248.84 367.756C248.193 369.218 247.368 370.524 246.365 371.673C245.363 372.8 244.183 373.699 242.825 374.367L240.319 371.015C241.551 370.451 242.606 369.699 243.483 368.759C244.381 367.819 245.123 366.754 245.707 365.563C246.292 364.372 246.72 363.119 246.992 361.803C247.284 360.467 247.431 359.119 247.431 357.762V353.563ZM248.245 353.563H251.598V357.762C251.598 359.078 251.723 360.373 251.974 361.647C252.245 362.921 252.652 364.132 253.195 365.281C253.759 366.409 254.459 367.422 255.295 368.32C256.13 369.218 257.133 369.96 258.302 370.545L255.765 373.866C254.47 373.197 253.342 372.32 252.381 371.234C251.441 370.127 250.668 368.863 250.062 367.443C249.457 366.002 248.997 364.466 248.684 362.837C248.391 361.187 248.245 359.495 248.245 357.762V353.563ZM259.43 351.339H263.629V380.351H259.43V351.339ZM262.72 362.493H267.827V365.939H262.72V362.493Z" fill="white"/>
<rect width="223.327" height="91.9962" transform="translate(405.954 318.065)" fill="#EEEEEE"/>
<path d="M457.431 367.286H461.567V371.673H457.431V367.286ZM446.371 364.905H472.626V368.195H446.371V364.905ZM448.658 352.122H470.308V355.443H448.658V352.122ZM448.878 359.798H470.057V363.088H448.878V359.798ZM452.355 353.313H456.522V361.96H452.355V353.313ZM462.444 353.313H466.611V361.96H462.444V353.313ZM449.442 370.576H469.493V380.038H449.442V370.576ZM465.42 373.834H453.515V376.748H465.42V373.834ZM495.151 351.339H499.318V366.19H495.151V351.339ZM479.987 367.349H499.318V375.15H484.122V378.189H480.018V372.205H495.182V370.482H479.987V367.349ZM480.018 376.967H500.038V380.163H480.018V376.967ZM482.242 354.096H485.658V355.224C485.658 356.937 485.344 358.555 484.718 360.08C484.112 361.584 483.193 362.9 481.96 364.028C480.728 365.156 479.162 365.991 477.261 366.534L475.318 363.276C476.53 362.921 477.564 362.461 478.42 361.897C479.297 361.333 480.018 360.696 480.582 359.986C481.146 359.255 481.564 358.482 481.835 357.668C482.107 356.853 482.242 356.038 482.242 355.224V354.096ZM483.151 354.096H486.503V355.224C486.503 355.976 486.639 356.738 486.911 357.511C487.182 358.263 487.59 358.973 488.133 359.642C488.697 360.31 489.407 360.916 490.263 361.459C491.12 361.981 492.143 362.399 493.334 362.712L491.422 365.908C489.563 365.406 488.018 364.623 486.785 363.558C485.574 362.493 484.665 361.239 484.06 359.798C483.454 358.357 483.151 356.832 483.151 355.224V354.096ZM476.446 352.655H492.237V355.944H476.446V352.655ZM505.331 353.438H517.738V356.759H505.331V353.438ZM508.903 360.205H513.007V367.443H508.903V360.205ZM516.109 353.438H520.213V355.255C520.213 356.279 520.182 357.501 520.119 358.921C520.077 360.32 519.879 361.939 519.524 363.777L515.482 363.307C515.795 361.532 515.973 359.997 516.015 358.702C516.077 357.407 516.109 356.258 516.109 355.255V353.438ZM523.001 351.308H527.2V373.02H523.001V351.308ZM525.539 360.174H530.677V363.589H525.539V360.174ZM507.837 376.497H528.14V379.85H507.837V376.497ZM507.837 371.109H512.036V377.531H507.837V371.109ZM503.984 369.166L503.608 365.845C505.279 365.845 507.127 365.835 509.153 365.814C511.179 365.772 513.247 365.688 515.357 365.563C517.466 365.417 519.492 365.208 521.435 364.936L521.717 367.913C519.712 368.268 517.665 368.539 515.576 368.727C513.487 368.895 511.451 369.009 509.466 369.072C507.482 369.114 505.655 369.145 503.984 369.166ZM552.826 351.276H557.024V380.383H552.826V351.276ZM534.435 370.231H537.004C538.717 370.231 540.335 370.21 541.86 370.169C543.385 370.106 544.878 370.012 546.34 369.887C547.802 369.74 549.296 369.532 550.821 369.26L551.259 372.612C548.92 373.03 546.612 373.312 544.335 373.458C542.079 373.584 539.636 373.646 537.004 373.646H534.435V370.231ZM534.372 353.751H548.064V364.999H538.664V371.516H534.435V361.709H543.834V357.104H534.372V353.751ZM561.69 368.007H587.945V371.297H561.69V368.007ZM572.624 369.667H576.791V380.351H572.624V369.667ZM564.666 352.435H568.802V355.725H580.739V352.435H584.843V365.25H564.666V352.435ZM568.802 358.984V361.96H580.739V358.984H568.802Z" fill="#333333"/>
<rect width="297.643" height="91.9962" transform="translate(235.641 504.091)" fill="#565656"/>
<path d="M327.22 541.94H334.019V545.23H327.22V541.94ZM326.969 547.924H333.799V551.276H326.969V547.924ZM333.33 537.334H337.528V554.033H333.33V537.334ZM323.899 539.308H328.317C328.317 541.94 327.826 544.269 326.844 546.295C325.862 548.3 324.39 550.002 322.426 551.402C320.463 552.78 318.009 553.877 315.064 554.691L313.466 551.433C315.93 550.786 317.925 549.971 319.45 548.989C320.975 547.987 322.092 546.838 322.802 545.543C323.533 544.248 323.899 542.848 323.899 541.344V539.308ZM315.032 539.308H326.813V542.629H315.032V539.308ZM327.909 554.409C329.873 554.409 331.585 554.65 333.048 555.13C334.531 555.61 335.669 556.289 336.463 557.167C337.277 558.044 337.685 559.088 337.685 560.3C337.685 561.511 337.277 562.555 336.463 563.433C335.669 564.31 334.531 564.989 333.048 565.469C331.585 565.97 329.873 566.221 327.909 566.221C325.946 566.221 324.223 565.97 322.74 565.469C321.278 564.989 320.139 564.31 319.325 563.433C318.51 562.555 318.103 561.511 318.103 560.3C318.103 559.088 318.51 558.044 319.325 557.167C320.139 556.289 321.278 555.61 322.74 555.13C324.223 554.65 325.946 554.409 327.909 554.409ZM327.909 557.605C326.719 557.605 325.695 557.71 324.839 557.918C324.003 558.127 323.356 558.43 322.896 558.827C322.437 559.224 322.207 559.715 322.207 560.3C322.207 560.884 322.437 561.386 322.896 561.803C323.356 562.2 324.003 562.503 324.839 562.712C325.695 562.9 326.719 562.994 327.909 562.994C329.1 562.994 330.113 562.9 330.948 562.712C331.784 562.503 332.431 562.2 332.891 561.803C333.35 561.386 333.58 560.884 333.58 560.3C333.58 559.715 333.35 559.224 332.891 558.827C332.431 558.43 331.784 558.127 330.948 557.918C330.113 557.71 329.1 557.605 327.909 557.605ZM354.883 541.125H363.467V544.478H354.883V541.125ZM354.883 547.579H363.467V550.9H354.883V547.579ZM350.058 538.901C351.52 538.901 352.825 539.214 353.974 539.841C355.123 540.446 356.031 541.282 356.7 542.347C357.389 543.412 357.734 544.634 357.734 546.013C357.734 547.37 357.389 548.582 356.7 549.647C356.031 550.712 355.123 551.558 353.974 552.185C352.825 552.791 351.52 553.094 350.058 553.094C348.637 553.094 347.342 552.791 346.173 552.185C345.024 551.558 344.105 550.712 343.416 549.647C342.747 548.582 342.413 547.37 342.413 546.013C342.413 544.634 342.747 543.412 343.416 542.347C344.105 541.282 345.024 540.446 346.173 539.841C347.342 539.214 348.637 538.901 350.058 538.901ZM350.058 542.41C349.368 542.41 348.742 542.556 348.178 542.848C347.614 543.12 347.165 543.527 346.831 544.07C346.517 544.592 346.361 545.24 346.361 546.013C346.361 546.744 346.517 547.381 346.831 547.924C347.165 548.467 347.614 548.885 348.178 549.177C348.742 549.449 349.368 549.584 350.058 549.584C350.789 549.584 351.426 549.449 351.969 549.177C352.533 548.885 352.971 548.467 353.285 547.924C353.598 547.381 353.755 546.744 353.755 546.013C353.755 545.24 353.598 544.592 353.285 544.07C352.971 543.527 352.533 543.12 351.969 542.848C351.426 542.556 350.789 542.41 350.058 542.41ZM362.151 537.365H366.35V554.347H362.151V537.365ZM356.512 554.942C358.559 554.942 360.313 555.172 361.775 555.631C363.258 556.07 364.407 556.717 365.222 557.574C366.036 558.43 366.444 559.454 366.444 560.644C366.444 561.835 366.036 562.858 365.222 563.715C364.407 564.592 363.258 565.25 361.775 565.689C360.313 566.148 358.559 566.378 356.512 566.378C354.465 566.378 352.7 566.148 351.217 565.689C349.734 565.25 348.585 564.592 347.771 563.715C346.977 562.858 346.58 561.835 346.58 560.644C346.58 559.454 346.977 558.43 347.771 557.574C348.585 556.717 349.734 556.07 351.217 555.631C352.7 555.172 354.465 554.942 356.512 554.942ZM356.512 558.138C355.259 558.138 354.193 558.232 353.316 558.42C352.439 558.608 351.781 558.89 351.342 559.266C350.904 559.621 350.684 560.08 350.684 560.644C350.684 561.208 350.904 561.678 351.342 562.054C351.781 562.43 352.439 562.712 353.316 562.9C354.193 563.067 355.259 563.151 356.512 563.151C357.786 563.151 358.851 563.067 359.708 562.9C360.585 562.712 361.243 562.43 361.681 562.054C362.12 561.678 362.339 561.208 362.339 560.644C362.339 560.08 362.12 559.621 361.681 559.266C361.243 558.89 360.585 558.608 359.708 558.42C358.851 558.232 357.786 558.138 356.512 558.138ZM377.877 541.94H381.198V545.198C381.198 546.869 381.021 548.509 380.665 550.117C380.331 551.725 379.82 553.24 379.13 554.66C378.462 556.06 377.616 557.302 376.592 558.388C375.569 559.454 374.378 560.3 373.021 560.926L370.64 557.637C371.851 557.073 372.906 556.341 373.804 555.443C374.723 554.545 375.475 553.543 376.06 552.436C376.666 551.308 377.115 550.128 377.407 548.895C377.72 547.642 377.877 546.41 377.877 545.198V541.94ZM378.786 541.94H382.075V545.198C382.075 546.347 382.222 547.517 382.514 548.707C382.827 549.877 383.276 550.994 383.861 552.06C384.446 553.104 385.188 554.044 386.086 554.879C386.984 555.715 388.049 556.383 389.281 556.885L386.994 560.206C385.616 559.6 384.415 558.785 383.391 557.762C382.368 556.738 381.511 555.558 380.822 554.221C380.133 552.885 379.621 551.454 379.287 549.929C378.953 548.383 378.786 546.806 378.786 545.198V541.94ZM371.799 540.123H388.091V543.569H371.799V540.123ZM390.785 537.365H394.952V566.378H390.785V537.365ZM407.263 552.248H411.43V558.576H407.263V552.248ZM419.952 537.334H424.119V559.328H419.952V537.334ZM403.221 562.524H424.777V565.877H403.221V562.524ZM403.221 557.229H407.388V563.433H403.221V557.229ZM400.119 553.501L399.587 550.18C401.362 550.159 403.294 550.138 405.383 550.117C407.472 550.075 409.602 549.992 411.775 549.866C413.947 549.741 416.035 549.553 418.041 549.303L418.323 552.279C416.255 552.634 414.145 552.906 411.994 553.094C409.863 553.261 407.785 553.365 405.759 553.407C403.733 553.449 401.853 553.48 400.119 553.501ZM414.5 554.19H420.892V557.041H414.5V554.19ZM408.923 538.337C410.344 538.337 411.597 538.556 412.683 538.995C413.769 539.433 414.615 540.039 415.221 540.812C415.848 541.585 416.161 542.493 416.161 543.538C416.161 544.561 415.848 545.47 415.221 546.263C414.615 547.036 413.769 547.632 412.683 548.049C411.597 548.467 410.344 548.676 408.923 548.676C407.503 548.676 406.239 548.467 405.132 548.049C404.046 547.632 403.2 547.036 402.595 546.263C401.989 545.47 401.686 544.561 401.686 543.538C401.686 542.493 401.989 541.585 402.595 540.812C403.2 540.039 404.046 539.433 405.132 538.995C406.239 538.556 407.503 538.337 408.923 538.337ZM408.923 541.376C407.963 541.376 407.169 541.553 406.542 541.908C405.937 542.264 405.634 542.807 405.634 543.538C405.634 544.227 405.937 544.76 406.542 545.136C407.169 545.491 407.963 545.668 408.923 545.668C409.905 545.668 410.688 545.491 411.273 545.136C411.879 544.76 412.182 544.227 412.182 543.538C412.182 543.057 412.046 542.66 411.775 542.347C411.503 542.034 411.127 541.794 410.647 541.626C410.166 541.459 409.592 541.376 408.923 541.376ZM428.534 554.033H454.789V557.323H428.534V554.033ZM439.468 555.694H443.635V566.378H439.468V555.694ZM431.51 538.462H435.646V541.752H447.583V538.462H451.687V551.276H431.51V538.462ZM435.646 545.01V547.987H447.583V545.01H435.646Z" fill="white"/>
<rect width="297.643" height="91.9962" transform="translate(235.641 956.43)" fill="#565656"/>
<path d="M355.186 1007.75C357.275 1007.75 359.092 1007.97 360.638 1008.41C362.183 1008.85 363.374 1009.47 364.209 1010.29C365.066 1011.1 365.494 1012.08 365.494 1013.23C365.494 1014.36 365.066 1015.33 364.209 1016.15C363.374 1016.98 362.183 1017.62 360.638 1018.06C359.092 1018.5 357.275 1018.72 355.186 1018.72C353.118 1018.72 351.312 1018.5 349.766 1018.06C348.22 1017.62 347.019 1016.98 346.163 1016.15C345.327 1015.33 344.91 1014.36 344.91 1013.23C344.91 1012.08 345.327 1011.1 346.163 1010.29C347.019 1009.47 348.22 1008.85 349.766 1008.41C351.312 1007.97 353.118 1007.75 355.186 1007.75ZM355.186 1010.88C353.891 1010.88 352.784 1010.97 351.865 1011.13C350.946 1011.3 350.246 1011.56 349.766 1011.92C349.306 1012.27 349.077 1012.71 349.077 1013.23C349.077 1013.76 349.306 1014.19 349.766 1014.55C350.246 1014.88 350.946 1015.14 351.865 1015.33C352.784 1015.5 353.891 1015.58 355.186 1015.58C356.502 1015.58 357.619 1015.5 358.538 1015.33C359.458 1015.14 360.157 1014.88 360.638 1014.55C361.118 1014.19 361.358 1013.76 361.358 1013.23C361.358 1012.71 361.118 1012.27 360.638 1011.92C360.157 1011.56 359.458 1011.3 358.538 1011.13C357.619 1010.97 356.502 1010.88 355.186 1010.88ZM345.223 990.988H363.614V994.247H345.223V990.988ZM342.309 1002.64H368.408V1005.93H342.309V1002.64ZM351.959 997.568H356.126V1003.46H351.959V997.568ZM361.17 990.988H365.337V993.37C365.337 994.518 365.306 995.719 365.243 996.973C365.181 998.226 364.94 999.604 364.523 1001.11L360.387 1000.7C360.784 999.218 361.014 997.902 361.076 996.753C361.139 995.604 361.17 994.477 361.17 993.37V990.988ZM371.068 1005.9H397.324V1009.25H371.068V1005.9ZM382.003 1008.03H386.17V1018.72H382.003V1008.03ZM374.076 991.114H394.19V1002.8H374.076V991.114ZM390.117 994.372H378.18V999.542H390.117V994.372ZM399.89 1006.37H426.145V1009.66H399.89V1006.37ZM410.825 1008.03H414.992V1018.72H410.825V1008.03ZM402.867 990.8H407.002V994.09H418.939V990.8H423.044V1003.61H402.867V990.8ZM407.002 997.349V1000.32H418.939V997.349H407.002Z" fill="white"/>
<rect width="297.643" height="91.9962" transform="translate(235.641 1408.77)" fill="#565656"/>
<path d="M348.763 1444.27H352.116V1448.47C352.116 1450.26 351.959 1452.02 351.646 1453.73C351.332 1455.42 350.842 1457 350.173 1458.46C349.526 1459.92 348.701 1461.23 347.698 1462.38C346.695 1463.5 345.515 1464.4 344.158 1465.07L341.651 1461.72C342.884 1461.15 343.938 1460.4 344.816 1459.46C345.714 1458.52 346.455 1457.46 347.04 1456.27C347.625 1455.08 348.053 1453.82 348.325 1452.51C348.617 1451.17 348.763 1449.82 348.763 1448.47V1444.27ZM349.578 1444.27H352.93V1448.47C352.93 1449.78 353.056 1451.08 353.306 1452.35C353.578 1453.62 353.985 1454.84 354.528 1455.98C355.092 1457.11 355.792 1458.13 356.627 1459.02C357.463 1459.92 358.465 1460.66 359.635 1461.25L357.097 1464.57C355.802 1463.9 354.674 1463.02 353.714 1461.94C352.774 1460.83 352.001 1459.57 351.395 1458.15C350.789 1456.71 350.33 1455.17 350.017 1453.54C349.724 1451.89 349.578 1450.2 349.578 1448.47V1444.27ZM360.763 1442.04H364.961V1471.05H360.763V1442.04ZM364.053 1453.2H369.16V1456.64H364.053V1453.2ZM385.731 1448.43H393V1451.79H385.731V1448.43ZM379.058 1443.23C380.52 1443.23 381.825 1443.54 382.974 1444.14C384.144 1444.73 385.063 1445.54 385.731 1446.59C386.4 1447.61 386.734 1448.8 386.734 1450.16C386.734 1451.49 386.4 1452.68 385.731 1453.73C385.063 1454.77 384.144 1455.6 382.974 1456.2C381.825 1456.79 380.52 1457.08 379.058 1457.08C377.617 1457.08 376.311 1456.79 375.141 1456.2C373.993 1455.6 373.084 1454.77 372.416 1453.73C371.747 1452.68 371.413 1451.49 371.413 1450.16C371.413 1448.8 371.747 1447.61 372.416 1446.59C373.084 1445.54 373.993 1444.73 375.141 1444.14C376.311 1443.54 377.617 1443.23 379.058 1443.23ZM379.058 1446.68C378.348 1446.68 377.71 1446.81 377.147 1447.09C376.603 1447.36 376.175 1447.75 375.862 1448.28C375.549 1448.8 375.392 1449.43 375.392 1450.16C375.392 1450.87 375.549 1451.48 375.862 1452.01C376.175 1452.53 376.603 1452.92 377.147 1453.2C377.71 1453.47 378.348 1453.6 379.058 1453.6C379.768 1453.6 380.394 1453.47 380.938 1453.2C381.502 1452.92 381.94 1452.53 382.253 1452.01C382.567 1451.48 382.723 1450.87 382.723 1450.16C382.723 1449.43 382.567 1448.8 382.253 1448.28C381.94 1447.75 381.502 1447.36 380.938 1447.09C380.394 1446.81 379.768 1446.68 379.058 1446.68ZM391.151 1442.04H395.35V1457.61H391.151V1442.04ZM376.081 1458.9H380.217V1461.62H391.214V1458.9H395.35V1470.74H376.081V1458.9ZM380.217 1464.82V1467.42H391.214V1464.82H380.217ZM399.89 1458.71H426.145V1462H399.89V1458.71ZM410.825 1460.37H414.992V1471.05H410.825V1460.37ZM402.867 1443.14H407.002V1446.43H418.939V1443.14H423.044V1455.95H402.867V1443.14ZM407.002 1449.69V1452.66H418.939V1449.69H407.002Z" fill="white"/>
<rect width="297.643" height="91.9962" transform="translate(235.641 1994.26)" fill="#565656"/>
<path d="M328.787 2035.02H335.523V2038.38H328.787V2035.02ZM333.33 2027.54H337.528V2048.68H333.33V2027.54ZM318.353 2052.7H338.186V2056.05H318.353V2052.7ZM318.353 2046.9H322.52V2054.67H318.353V2046.9ZM319.951 2031.33H323.335V2033.14C323.335 2034.98 323.043 2036.73 322.458 2038.38C321.873 2040.03 320.975 2041.48 319.763 2042.73C318.573 2043.96 317.038 2044.89 315.158 2045.52L313.09 2042.2C314.28 2041.8 315.304 2041.29 316.16 2040.66C317.038 2040.02 317.748 2039.29 318.291 2038.47C318.855 2037.66 319.272 2036.8 319.544 2035.9C319.816 2035 319.951 2034.08 319.951 2033.14V2031.33ZM320.829 2031.33H324.15V2033.14C324.15 2034.27 324.379 2035.4 324.839 2036.53C325.298 2037.64 326.009 2038.65 326.969 2039.57C327.951 2040.47 329.204 2041.18 330.729 2041.7L328.693 2044.92C326.896 2044.32 325.413 2043.43 324.244 2042.26C323.095 2041.07 322.238 2039.69 321.674 2038.13C321.111 2036.54 320.829 2034.88 320.829 2033.14V2031.33ZM314.218 2029.48H329.82V2032.8H314.218V2029.48ZM363.687 2031.52H368.7V2034.9H363.687V2031.52ZM363.687 2037.72H368.7V2041.1H363.687V2037.72ZM343.102 2040.79H345.546C347.447 2040.79 349.139 2040.77 350.622 2040.73C352.126 2040.68 353.515 2040.6 354.789 2040.48C356.084 2040.33 357.4 2040.14 358.736 2039.91L359.112 2043.23C357.776 2043.48 356.428 2043.68 355.071 2043.83C353.734 2043.95 352.293 2044.04 350.747 2044.08C349.222 2044.12 347.489 2044.14 345.546 2044.14H343.102V2040.79ZM343.04 2029.1H356.293V2038.03H347.207V2042.36H343.102V2034.96H352.188V2032.42H343.04V2029.1ZM360.71 2027.54H364.877V2045.18H360.71V2027.54ZM345.515 2046.49H364.877V2056.55H360.71V2049.78H345.515V2046.49ZM390.879 2027.51H395.046V2056.52H390.879V2027.51ZM382.326 2030.51H386.43C386.43 2032.73 386.211 2034.85 385.772 2036.87C385.355 2038.88 384.644 2040.77 383.642 2042.54C382.66 2044.32 381.303 2045.97 379.569 2047.49C377.856 2049 375.715 2050.38 373.146 2051.63L370.953 2048.34C373.752 2046.98 375.976 2045.49 377.626 2043.86C379.297 2042.21 380.498 2040.35 381.229 2038.28C381.96 2036.19 382.326 2033.85 382.326 2031.26V2030.51ZM372.519 2030.51H384.269V2033.83H372.519V2030.51ZM400.683 2029.64H417.696V2032.64H400.683V2029.64ZM409.174 2033.33C410.636 2033.33 411.9 2033.51 412.965 2033.87C414.051 2034.22 414.897 2034.72 415.503 2035.37C416.109 2036.02 416.411 2036.78 416.411 2037.66C416.411 2038.55 416.109 2039.33 415.503 2039.97C414.897 2040.62 414.051 2041.13 412.965 2041.51C411.9 2041.86 410.636 2042.04 409.174 2042.04C407.733 2042.04 406.469 2041.86 405.383 2041.51C404.318 2041.13 403.482 2040.62 402.877 2039.97C402.292 2039.33 401.999 2038.55 401.999 2037.66C401.999 2036.78 402.292 2036.02 402.877 2035.37C403.482 2034.72 404.318 2034.22 405.383 2033.87C406.469 2033.51 407.733 2033.33 409.174 2033.33ZM409.174 2036.09C408.213 2036.09 407.43 2036.23 406.824 2036.5C406.239 2036.75 405.947 2037.13 405.947 2037.66C405.947 2038.18 406.239 2038.59 406.824 2038.88C407.43 2039.15 408.213 2039.29 409.174 2039.29C410.156 2039.29 410.939 2039.15 411.524 2038.88C412.13 2038.59 412.432 2038.18 412.432 2037.66C412.432 2037.13 412.13 2036.75 411.524 2036.5C410.939 2036.23 410.156 2036.09 409.174 2036.09ZM407.106 2027.32H411.305V2031.17H407.106V2027.32ZM407.106 2040.48H411.305V2044.52H407.106V2040.48ZM419.701 2027.54H423.868V2047.21H419.701V2027.54ZM403.816 2048.31H423.868V2056.55H419.701V2051.54H403.816V2048.31ZM400.339 2046.62L399.869 2043.45C401.623 2043.45 403.514 2043.44 405.54 2043.42C407.587 2043.4 409.675 2043.34 411.806 2043.23C413.957 2043.11 416.015 2042.92 417.978 2042.67L418.291 2045.49C416.244 2045.82 414.166 2046.07 412.056 2046.24C409.947 2046.41 407.889 2046.51 405.884 2046.55C403.9 2046.6 402.052 2046.62 400.339 2046.62ZM428.534 2044.2H454.789V2047.49H428.534V2044.2ZM439.468 2045.86H443.635V2056.55H439.468V2045.86ZM431.51 2028.63H435.646V2031.92H447.583V2028.63H451.687V2041.45H431.51V2028.63ZM435.646 2035.18V2038.16H447.583V2035.18H435.646Z" fill="white"/>
<rect x="367.817" y="636.268" width="163.369" height="90.038" fill="white"/>
<rect x="367.817" y="636.268" width="163.369" height="90.038" stroke="#ECECEC" stroke-width="1.95817"/>
<path d="M414.618 686.202H418.785V690.902H414.618V686.202ZM427.307 668.563H431.474V697.575H427.307V668.563ZM407.913 692.751L407.412 689.367C409.166 689.367 411.078 689.356 413.145 689.335C415.213 689.315 417.333 689.241 419.506 689.116C421.699 688.991 423.808 688.792 425.834 688.521L426.116 691.529C424.007 691.905 421.876 692.187 419.725 692.375C417.594 692.542 415.527 692.646 413.521 692.688C411.516 692.73 409.647 692.751 407.913 692.751ZM407.976 671.759H425.458V675.017H407.976V671.759ZM416.717 676.145C418.137 676.145 419.391 676.375 420.477 676.835C421.563 677.294 422.409 677.931 423.015 678.746C423.641 679.56 423.955 680.511 423.955 681.597C423.955 682.662 423.641 683.612 423.015 684.448C422.409 685.262 421.563 685.9 420.477 686.359C419.391 686.819 418.137 687.048 416.717 687.048C415.297 687.048 414.044 686.819 412.957 686.359C411.871 685.9 411.015 685.262 410.388 684.448C409.783 683.612 409.48 682.662 409.48 681.597C409.48 680.511 409.783 679.56 410.388 678.746C411.015 677.931 411.871 677.294 412.957 676.835C414.044 676.375 415.297 676.145 416.717 676.145ZM416.717 679.278C415.756 679.278 414.973 679.487 414.367 679.905C413.762 680.302 413.459 680.866 413.459 681.597C413.459 682.349 413.762 682.923 414.367 683.32C414.973 683.717 415.756 683.915 416.717 683.915C417.678 683.915 418.461 683.717 419.067 683.32C419.673 682.923 419.975 682.349 419.975 681.597C419.975 680.866 419.673 680.302 419.067 679.905C418.461 679.487 417.678 679.278 416.717 679.278ZM414.618 668.657H418.816V673.639H414.618V668.657ZM447.294 676.208H453.152V679.498H447.294V676.208ZM447.137 683.445H453.058V686.766H447.137V683.445ZM457.1 668.532H461.079V697.544H457.1V668.532ZM451.147 669.158H455.032V696.26H451.147V669.158ZM444.599 671.947H448.578C448.578 674.704 448.254 677.273 447.607 679.654C446.98 682.015 445.894 684.187 444.348 686.171C442.824 688.155 440.714 689.941 438.02 691.529L435.67 688.615C437.863 687.299 439.607 685.868 440.902 684.323C442.218 682.756 443.158 681.033 443.722 679.153C444.307 677.252 444.599 675.132 444.599 672.793V671.947ZM437.33 671.947H445.978V675.299H437.33V671.947ZM466.497 681.221H469.003C470.988 681.221 472.732 681.21 474.236 681.189C475.76 681.148 477.17 681.075 478.465 680.97C479.781 680.866 481.107 680.709 482.444 680.5L482.852 683.727C481.473 683.936 480.105 684.103 478.747 684.229C477.41 684.333 475.959 684.406 474.392 684.448C472.826 684.469 471.029 684.479 469.003 684.479H466.497V681.221ZM466.497 670.192H480.47V673.482H470.632V682.537H466.497V670.192ZM469.348 675.675H479.624V678.934H469.348V675.675ZM484.857 668.563H489.024V685.795H484.857V668.563ZM469.724 686.986H489.024V697.262H469.724V686.986ZM484.951 690.244H473.828V693.972H484.951V690.244Z" fill="#333333"/>
<rect x="367.817" y="767.466" width="163.369" height="90.038" fill="white"/>
<rect x="367.817" y="767.466" width="163.369" height="90.038" stroke="#ECECEC" stroke-width="1.95817"/>
<path d="M407.255 814.267H433.51V817.557H407.255V814.267ZM418.284 811.573H422.451V815.802H418.284V811.573ZM418.284 799.824H422.451V804.085H418.284V799.824ZM418.033 804.272H421.699V804.836C421.699 805.943 421.438 806.957 420.915 807.876C420.414 808.795 419.641 809.609 418.597 810.319C417.573 811.009 416.31 811.573 414.806 812.011C413.323 812.45 411.589 812.742 409.605 812.888L408.352 809.755C410.106 809.63 411.589 809.421 412.801 809.129C414.033 808.815 415.036 808.429 415.808 807.97C416.581 807.51 417.145 807.019 417.5 806.497C417.855 805.954 418.033 805.4 418.033 804.836V804.272ZM419.036 804.272H422.701V804.836C422.701 805.4 422.879 805.954 423.234 806.497C423.589 807.019 424.142 807.51 424.894 807.97C425.667 808.429 426.67 808.815 427.902 809.129C429.135 809.421 430.618 809.63 432.351 809.755L431.129 812.888C429.166 812.742 427.422 812.45 425.897 812.011C424.393 811.573 423.129 811.009 422.106 810.319C421.083 809.609 420.31 808.795 419.788 807.876C419.286 806.957 419.036 805.943 419.036 804.836V804.272ZM409.762 802.361H430.973V805.557H409.762V802.361ZM420.32 818.904C423.495 818.904 425.97 819.332 427.746 820.189C429.521 821.045 430.409 822.267 430.409 823.854C430.409 825.442 429.521 826.653 427.746 827.489C425.97 828.345 423.495 828.773 420.32 828.773C417.166 828.773 414.701 828.345 412.926 827.489C411.151 826.653 410.263 825.442 410.263 823.854C410.263 822.267 411.151 821.045 412.926 820.189C414.701 819.332 417.166 818.904 420.32 818.904ZM420.32 821.974C418.357 821.974 416.884 822.121 415.902 822.413C414.942 822.705 414.461 823.186 414.461 823.854C414.461 824.481 414.942 824.951 415.902 825.264C416.884 825.557 418.357 825.703 420.32 825.703C422.284 825.703 423.746 825.557 424.706 825.264C425.688 824.951 426.179 824.481 426.179 823.854C426.179 823.186 425.688 822.705 424.706 822.413C423.746 822.121 422.284 821.974 420.32 821.974ZM436.108 815.959H462.364V819.311H436.108V815.959ZM447.043 818.089H451.21V828.773H447.043V818.089ZM439.116 801.171H459.231V812.857H439.116V801.171ZM455.158 804.429H443.22V809.599H455.158V804.429ZM466.497 812.419H469.003C470.988 812.419 472.732 812.408 474.236 812.387C475.76 812.345 477.17 812.272 478.465 812.168C479.781 812.063 481.107 811.907 482.444 811.698L482.852 814.925C481.473 815.134 480.105 815.301 478.747 815.426C477.41 815.531 475.959 815.604 474.392 815.646C472.826 815.666 471.029 815.677 469.003 815.677H466.497V812.419ZM466.497 801.39H480.47V804.68H470.632V813.734H466.497V801.39ZM469.348 806.873H479.624V810.131H469.348V806.873ZM484.857 799.761H489.024V816.993H484.857V799.761ZM469.724 818.183H489.024V828.46H469.724V818.183ZM484.951 821.442H473.828V825.17H484.951V821.442Z" fill="#333333"/>
<rect x="367.817" y="1088.61" width="163.369" height="90.038" fill="white"/>
<rect x="367.817" y="1088.61" width="163.369" height="90.038" stroke="#ECECEC" stroke-width="1.95817"/>
<path d="M421.949 1127.29H429.218V1130.65H421.949V1127.29ZM415.276 1122.09C416.738 1122.09 418.043 1122.4 419.192 1123C420.362 1123.59 421.281 1124.4 421.949 1125.44C422.618 1126.47 422.952 1127.66 422.952 1129.02C422.952 1130.35 422.618 1131.54 421.949 1132.59C421.281 1133.63 420.362 1134.46 419.192 1135.06C418.043 1135.65 416.738 1135.94 415.276 1135.94C413.835 1135.94 412.529 1135.65 411.36 1135.06C410.211 1134.46 409.302 1133.63 408.634 1132.59C407.965 1131.54 407.631 1130.35 407.631 1129.02C407.631 1127.66 407.965 1126.47 408.634 1125.44C409.302 1124.4 410.211 1123.59 411.36 1123C412.529 1122.4 413.835 1122.09 415.276 1122.09ZM415.276 1125.54C414.566 1125.54 413.929 1125.67 413.365 1125.95C412.822 1126.22 412.393 1126.61 412.08 1127.14C411.767 1127.66 411.61 1128.29 411.61 1129.02C411.61 1129.73 411.767 1130.34 412.08 1130.86C412.393 1131.39 412.822 1131.78 413.365 1132.06C413.929 1132.33 414.566 1132.46 415.276 1132.46C415.986 1132.46 416.613 1132.33 417.156 1132.06C417.72 1131.78 418.158 1131.39 418.472 1130.86C418.785 1130.34 418.942 1129.73 418.942 1129.02C418.942 1128.29 418.785 1127.66 418.472 1127.14C418.158 1126.61 417.72 1126.22 417.156 1125.95C416.613 1125.67 415.986 1125.54 415.276 1125.54ZM427.37 1120.9H431.568V1136.47H427.37V1120.9ZM412.299 1137.76H416.435V1140.48H427.432V1137.76H431.568V1149.6H412.299V1137.76ZM416.435 1143.68V1146.28H427.432V1143.68H416.435ZM436.108 1137.1H462.364V1140.45H436.108V1137.1ZM447.043 1139.23H451.21V1149.91H447.043V1139.23ZM439.116 1122.31H459.231V1134H439.116V1122.31ZM455.158 1125.57H443.22V1130.74H455.158V1125.57ZM466.497 1133.56H469.003C470.988 1133.56 472.732 1133.55 474.236 1133.53C475.76 1133.49 477.17 1133.41 478.465 1133.31C479.781 1133.2 481.107 1133.05 482.444 1132.84L482.852 1136.07C481.473 1136.27 480.105 1136.44 478.747 1136.57C477.41 1136.67 475.959 1136.74 474.392 1136.79C472.826 1136.81 471.029 1136.82 469.003 1136.82H466.497V1133.56ZM466.497 1122.53H480.47V1125.82H470.632V1134.88H466.497V1122.53ZM469.348 1128.01H479.624V1131.27H469.348V1128.01ZM484.857 1120.9H489.024V1138.13H484.857V1120.9ZM469.724 1139.32H489.024V1149.6H469.724V1139.32ZM484.951 1142.58H473.828V1146.31H484.951V1142.58Z" fill="#333333"/>
<rect x="367.817" y="1219.8" width="163.369" height="90.038" fill="white"/>
<rect x="367.817" y="1219.8" width="163.369" height="90.038" stroke="#ECECEC" stroke-width="1.95817"/>
<path d="M420.226 1270.15C422.315 1270.15 424.132 1270.37 425.678 1270.8C427.223 1271.24 428.414 1271.87 429.249 1272.68C430.106 1273.5 430.534 1274.48 430.534 1275.63C430.534 1276.76 430.106 1277.73 429.249 1278.54C428.414 1279.38 427.223 1280.02 425.678 1280.45C424.132 1280.89 422.315 1281.11 420.226 1281.11C418.158 1281.11 416.352 1280.89 414.806 1280.45C413.26 1280.02 412.059 1279.38 411.203 1278.54C410.367 1277.73 409.95 1276.76 409.95 1275.63C409.95 1274.48 410.367 1273.5 411.203 1272.68C412.059 1271.87 413.26 1271.24 414.806 1270.8C416.352 1270.37 418.158 1270.15 420.226 1270.15ZM420.226 1273.28C418.931 1273.28 417.824 1273.36 416.905 1273.53C415.986 1273.7 415.286 1273.96 414.806 1274.31C414.346 1274.67 414.117 1275.11 414.117 1275.63C414.117 1276.15 414.346 1276.59 414.806 1276.94C415.286 1277.28 415.986 1277.54 416.905 1277.73C417.824 1277.9 418.931 1277.98 420.226 1277.98C421.542 1277.98 422.659 1277.9 423.579 1277.73C424.498 1277.54 425.197 1277.28 425.678 1276.94C426.158 1276.59 426.398 1276.15 426.398 1275.63C426.398 1275.11 426.158 1274.67 425.678 1274.31C425.197 1273.96 424.498 1273.7 423.579 1273.53C422.659 1273.36 421.542 1273.28 420.226 1273.28ZM410.263 1253.38H428.654V1256.64H410.263V1253.38ZM407.349 1265.04H433.448V1268.33H407.349V1265.04ZM416.999 1259.96H421.166V1265.85H416.999V1259.96ZM426.21 1253.38H430.377V1255.77C430.377 1256.91 430.346 1258.11 430.283 1259.37C430.221 1260.62 429.98 1262 429.563 1263.5L425.427 1263.1C425.824 1261.61 426.054 1260.3 426.116 1259.15C426.179 1258 426.21 1256.87 426.21 1255.77V1253.38ZM436.108 1268.3H462.364V1271.65H436.108V1268.3ZM447.043 1270.43H451.21V1281.11H447.043V1270.43ZM439.116 1253.51H459.231V1265.2H439.116V1253.51ZM455.158 1256.77H443.22V1261.94H455.158V1256.77ZM466.497 1264.76H469.003C470.988 1264.76 472.732 1264.75 474.236 1264.73C475.76 1264.68 477.17 1264.61 478.465 1264.51C479.781 1264.4 481.107 1264.25 482.444 1264.04L482.852 1267.26C481.473 1267.47 480.105 1267.64 478.747 1267.76C477.41 1267.87 475.959 1267.94 474.392 1267.98C472.826 1268 471.029 1268.02 469.003 1268.02H466.497V1264.76ZM466.497 1253.73H480.47V1257.02H470.632V1266.07H466.497V1253.73ZM469.348 1259.21H479.624V1262.47H469.348V1259.21ZM484.857 1252.1H489.024V1269.33H484.857V1252.1ZM469.724 1270.52H489.024V1280.8H469.724V1270.52ZM484.951 1273.78H473.828V1277.51H484.951V1273.78Z" fill="#333333"/>
<rect x="367.817" y="1542.9" width="164.487" height="90.038" fill="white"/>
<rect x="367.817" y="1542.9" width="164.487" height="90.038" stroke="#ECECEC" stroke-width="1.95817"/>
<path d="M422.633 1579.43H429.777V1582.75H422.633V1579.43ZM427.928 1575.2H432.127V1589.92H427.928V1575.2ZM412.952 1591.11H432.127V1598.95H417.119V1602.58H412.984V1595.94H427.991V1594.34H412.952V1591.11ZM412.984 1600.64H432.941V1603.9H412.984V1600.64ZM414.456 1576.11H417.84V1578.21C417.84 1580 417.547 1581.7 416.963 1583.31C416.399 1584.92 415.521 1586.32 414.331 1587.51C413.14 1588.68 411.615 1589.56 409.757 1590.14L407.626 1586.88C409.234 1586.38 410.54 1585.69 411.542 1584.82C412.545 1583.92 413.276 1582.9 413.736 1581.75C414.216 1580.6 414.456 1579.42 414.456 1578.21V1576.11ZM415.302 1576.11H418.654V1578.21C418.654 1579.04 418.78 1579.88 419.03 1580.71C419.302 1581.55 419.699 1582.33 420.221 1583.06C420.743 1583.79 421.412 1584.44 422.226 1585C423.062 1585.57 424.043 1586.03 425.171 1586.38L423.041 1589.58C421.286 1589.01 419.835 1588.17 418.686 1587.04C417.537 1585.91 416.681 1584.59 416.117 1583.06C415.574 1581.54 415.302 1579.92 415.302 1578.21V1576.11ZM447.852 1582.84H453.711V1586.13H447.852V1582.84ZM447.696 1590.08H453.617V1593.4H447.696V1590.08ZM457.659 1575.17H461.638V1604.18H457.659V1575.17ZM451.706 1575.79H455.591V1602.89H451.706V1575.79ZM445.158 1578.58H449.137C449.137 1581.34 448.813 1583.91 448.166 1586.29C447.539 1588.65 446.453 1590.82 444.907 1592.81C443.382 1594.79 441.273 1596.58 438.578 1598.16L436.229 1595.25C438.422 1593.93 440.166 1592.5 441.461 1590.96C442.777 1589.39 443.717 1587.67 444.281 1585.79C444.865 1583.89 445.158 1581.77 445.158 1579.43V1578.58ZM437.889 1578.58H446.536V1581.93H437.889V1578.58ZM467.056 1587.86H469.562C471.546 1587.86 473.29 1587.85 474.794 1587.82C476.319 1587.78 477.729 1587.71 479.024 1587.61C480.34 1587.5 481.666 1587.34 483.003 1587.14L483.41 1590.36C482.032 1590.57 480.664 1590.74 479.306 1590.86C477.969 1590.97 476.518 1591.04 474.951 1591.08C473.384 1591.1 471.588 1591.11 469.562 1591.11H467.056V1587.86ZM467.056 1576.83H481.029V1580.12H471.191V1589.17H467.056V1576.83ZM469.907 1582.31H480.183V1585.57H469.907V1582.31ZM485.416 1575.2H489.583V1592.43H485.416V1575.2ZM470.283 1593.62H489.583V1603.9H470.283V1593.62ZM485.51 1596.88H474.387V1600.61H485.51V1596.88Z" fill="#333333"/>
<rect x="367.817" y="1674.1" width="164.487" height="90.038" fill="white"/>
<rect x="367.817" y="1674.1" width="164.487" height="90.038" stroke="#ECECEC" stroke-width="1.95817"/>
<path d="M405.362 1708.62H408.715V1712.82C408.715 1714.61 408.558 1716.37 408.245 1718.08C407.931 1719.77 407.44 1721.35 406.772 1722.81C406.125 1724.28 405.299 1725.58 404.297 1726.73C403.294 1727.86 402.114 1728.76 400.757 1729.42L398.25 1726.07C399.482 1725.51 400.537 1724.76 401.414 1723.82C402.313 1722.88 403.054 1721.81 403.639 1720.62C404.224 1719.43 404.652 1718.18 404.924 1716.86C405.216 1715.52 405.362 1714.18 405.362 1712.82V1708.62ZM406.177 1708.62H409.529V1712.82C409.529 1714.13 409.654 1715.43 409.905 1716.7C410.177 1717.98 410.584 1719.19 411.127 1720.34C411.691 1721.47 412.391 1722.48 413.226 1723.38C414.062 1724.28 415.064 1725.02 416.234 1725.6L413.696 1728.92C412.401 1728.25 411.273 1727.38 410.312 1726.29C409.373 1725.18 408.6 1723.92 407.994 1722.5C407.388 1721.06 406.929 1719.52 406.615 1717.89C406.323 1716.24 406.177 1714.55 406.177 1712.82V1708.62ZM417.362 1706.4H421.56V1735.41H417.362V1706.4ZM420.652 1717.55H425.759V1721H420.652V1717.55ZM442.33 1712.79H449.599V1716.14H442.33V1712.79ZM435.657 1707.59C437.119 1707.59 438.424 1707.89 439.573 1708.5C440.743 1709.08 441.662 1709.89 442.33 1710.94C442.998 1711.96 443.333 1713.15 443.333 1714.51C443.333 1715.85 442.998 1717.04 442.33 1718.08C441.662 1719.13 440.743 1719.95 439.573 1720.56C438.424 1721.14 437.119 1721.43 435.657 1721.43C434.215 1721.43 432.91 1721.14 431.74 1720.56C430.591 1719.95 429.683 1719.13 429.014 1718.08C428.346 1717.04 428.012 1715.85 428.012 1714.51C428.012 1713.15 428.346 1711.96 429.014 1710.94C429.683 1709.89 430.591 1709.08 431.74 1708.5C432.91 1707.89 434.215 1707.59 435.657 1707.59ZM435.657 1711.03C434.946 1711.03 434.309 1711.17 433.745 1711.44C433.202 1711.71 432.774 1712.11 432.461 1712.63C432.148 1713.15 431.991 1713.78 431.991 1714.51C431.991 1715.22 432.148 1715.84 432.461 1716.36C432.774 1716.88 433.202 1717.28 433.745 1717.55C434.309 1717.82 434.946 1717.96 435.657 1717.96C436.367 1717.96 436.993 1717.82 437.536 1717.55C438.1 1717.28 438.539 1716.88 438.852 1716.36C439.166 1715.84 439.322 1715.22 439.322 1714.51C439.322 1713.78 439.166 1713.15 438.852 1712.63C438.539 1712.11 438.1 1711.71 437.536 1711.44C436.993 1711.17 436.367 1711.03 435.657 1711.03ZM447.75 1706.4H451.949V1721.97H447.75V1706.4ZM432.68 1723.25H436.816V1725.98H447.813V1723.25H451.949V1735.09H432.68V1723.25ZM436.816 1729.17V1731.77H447.813V1729.17H436.816ZM457.774 1732.62V1728.86H462.787V1714.23H458.557V1711.35C459.727 1711.14 460.729 1710.89 461.565 1710.59C462.421 1710.28 463.215 1709.88 463.946 1709.4H467.361V1728.86H471.716V1732.62H457.774ZM476.536 1719.05H479.042C481.027 1719.05 482.771 1719.04 484.275 1719.02C485.799 1718.98 487.209 1718.91 488.504 1718.8C489.82 1718.7 491.147 1718.54 492.483 1718.33L492.891 1721.56C491.512 1721.77 490.144 1721.94 488.786 1722.06C487.45 1722.17 485.998 1722.24 484.431 1722.28C482.865 1722.3 481.068 1722.31 479.042 1722.31H476.536V1719.05ZM476.536 1708.03H490.509V1711.31H480.672V1720.37H476.536V1708.03ZM479.387 1713.51H489.664V1716.77H479.387V1713.51ZM494.896 1706.4H499.063V1723.63H494.896V1706.4ZM479.763 1724.82H499.063V1735.09H479.763V1724.82ZM494.99 1728.08H483.867V1731.81H494.99V1728.08Z" fill="#333333"/>
<rect x="367.817" y="1805.3" width="164.487" height="90.038" fill="white"/>
<rect x="367.817" y="1805.3" width="164.487" height="90.038" stroke="#ECECEC" stroke-width="1.95817"/>
<path d="M405.362 1839.82H408.715V1844.02C408.715 1845.81 408.558 1847.57 408.245 1849.28C407.931 1850.97 407.44 1852.55 406.772 1854.01C406.125 1855.47 405.299 1856.78 404.297 1857.93C403.294 1859.06 402.114 1859.95 400.757 1860.62L398.25 1857.27C399.482 1856.71 400.537 1855.95 401.414 1855.01C402.313 1854.07 403.054 1853.01 403.639 1851.82C404.224 1850.63 404.652 1849.37 404.924 1848.06C405.216 1846.72 405.362 1845.37 405.362 1844.02V1839.82ZM406.177 1839.82H409.529V1844.02C409.529 1845.33 409.654 1846.63 409.905 1847.9C410.177 1849.18 410.584 1850.39 411.127 1851.54C411.691 1852.66 412.391 1853.68 413.226 1854.57C414.062 1855.47 415.064 1856.21 416.234 1856.8L413.696 1860.12C412.401 1859.45 411.273 1858.57 410.312 1857.49C409.373 1856.38 408.6 1855.12 407.994 1853.7C407.388 1852.26 406.929 1850.72 406.615 1849.09C406.323 1847.44 406.177 1845.75 406.177 1844.02V1839.82ZM417.362 1837.59H421.56V1866.61H417.362V1837.59ZM420.652 1848.75H425.759V1852.19H420.652V1848.75ZM442.33 1843.98H449.599V1847.34H442.33V1843.98ZM435.657 1838.78C437.119 1838.78 438.424 1839.09 439.573 1839.69C440.743 1840.28 441.662 1841.09 442.33 1842.14C442.998 1843.16 443.333 1844.35 443.333 1845.71C443.333 1847.04 442.998 1848.24 442.33 1849.28C441.662 1850.32 440.743 1851.15 439.573 1851.76C438.424 1852.34 437.119 1852.63 435.657 1852.63C434.215 1852.63 432.91 1852.34 431.74 1851.76C430.591 1851.15 429.683 1850.32 429.014 1849.28C428.346 1848.24 428.012 1847.04 428.012 1845.71C428.012 1844.35 428.346 1843.16 429.014 1842.14C429.683 1841.09 430.591 1840.28 431.74 1839.69C432.91 1839.09 434.215 1838.78 435.657 1838.78ZM435.657 1842.23C434.946 1842.23 434.309 1842.37 433.745 1842.64C433.202 1842.91 432.774 1843.31 432.461 1843.83C432.148 1844.35 431.991 1844.98 431.991 1845.71C431.991 1846.42 432.148 1847.03 432.461 1847.56C432.774 1848.08 433.202 1848.48 433.745 1848.75C434.309 1849.02 434.946 1849.15 435.657 1849.15C436.367 1849.15 436.993 1849.02 437.536 1848.75C438.1 1848.48 438.539 1848.08 438.852 1847.56C439.166 1847.03 439.322 1846.42 439.322 1845.71C439.322 1844.98 439.166 1844.35 438.852 1843.83C438.539 1843.31 438.1 1842.91 437.536 1842.64C436.993 1842.37 436.367 1842.23 435.657 1842.23ZM447.75 1837.59H451.949V1853.16H447.75V1837.59ZM432.68 1854.45H436.816V1857.18H447.813V1854.45H451.949V1866.29H432.68V1854.45ZM436.816 1860.37V1862.97H447.813V1860.37H436.816ZM456.552 1863.82V1861.15C458.661 1859.27 460.458 1857.53 461.941 1855.92C463.445 1854.31 464.593 1852.82 465.387 1851.44C466.181 1850.04 466.578 1848.75 466.578 1847.56C466.578 1846.8 466.442 1846.15 466.17 1845.58C465.899 1845.02 465.502 1844.59 464.98 1844.3C464.478 1843.98 463.852 1843.83 463.1 1843.83C462.264 1843.83 461.492 1844.07 460.781 1844.55C460.092 1845.01 459.455 1845.56 458.87 1846.21L456.301 1843.73C457.387 1842.56 458.494 1841.69 459.622 1841.1C460.771 1840.5 462.129 1840.19 463.695 1840.19C465.157 1840.19 466.431 1840.5 467.518 1841.1C468.625 1841.69 469.481 1842.51 470.087 1843.58C470.692 1844.64 470.995 1845.9 470.995 1847.34C470.995 1848.74 470.64 1850.17 469.93 1851.63C469.241 1853.07 468.311 1854.51 467.142 1855.95C465.972 1857.39 464.677 1858.81 463.257 1860.21C463.862 1860.13 464.51 1860.07 465.199 1860.03C465.909 1859.96 466.536 1859.93 467.079 1859.93H472.092V1863.82H456.552ZM476.536 1850.25H479.042C481.027 1850.25 482.771 1850.24 484.275 1850.22C485.799 1850.18 487.209 1850.1 488.504 1850C489.82 1849.9 491.147 1849.74 492.483 1849.53L492.891 1852.76C491.512 1852.97 490.144 1853.13 488.786 1853.26C487.45 1853.36 485.998 1853.44 484.431 1853.48C482.865 1853.5 481.068 1853.51 479.042 1853.51H476.536V1850.25ZM476.536 1839.22H490.509V1842.51H480.672V1851.57H476.536V1839.22ZM479.387 1844.71H489.664V1847.96H479.387V1844.71ZM494.896 1837.59H499.063V1854.83H494.896V1837.59ZM479.763 1856.02H499.063V1866.29H479.763V1856.02ZM494.99 1859.27H483.867V1863H494.99V1859.27Z" fill="#333333"/>
<rect x="311.03" y="2126.44" width="221.369" height="90.038" fill="white"/>
<rect x="311.03" y="2126.44" width="221.369" height="90.038" stroke="#ECECEC" stroke-width="1.95817"/>
<path d="M357.016 2160.96H360.369V2165.16C360.369 2166.95 360.212 2168.71 359.899 2170.42C359.585 2172.11 359.094 2173.69 358.426 2175.15C357.779 2176.61 356.954 2177.92 355.951 2179.07C354.948 2180.2 353.768 2181.09 352.411 2181.76L349.904 2178.41C351.136 2177.85 352.191 2177.09 353.069 2176.15C353.967 2175.21 354.708 2174.15 355.293 2172.96C355.878 2171.77 356.306 2170.51 356.578 2169.2C356.87 2167.86 357.016 2166.51 357.016 2165.16V2160.96ZM357.831 2160.96H361.183V2165.16C361.183 2166.47 361.309 2167.77 361.559 2169.04C361.831 2170.32 362.238 2171.53 362.781 2172.68C363.345 2173.8 364.045 2174.82 364.88 2175.72C365.716 2176.61 366.718 2177.36 367.888 2177.94L365.35 2181.26C364.055 2180.59 362.927 2179.72 361.966 2178.63C361.027 2177.52 360.254 2176.26 359.648 2174.84C359.042 2173.4 358.583 2171.86 358.269 2170.23C357.977 2168.58 357.831 2166.89 357.831 2165.16V2160.96ZM369.016 2158.73H373.214V2187.75H369.016V2158.73ZM372.306 2169.89H377.413V2173.33H372.306V2169.89ZM393.984 2165.13H401.253V2168.48H393.984V2165.13ZM387.311 2159.92C388.773 2159.92 390.078 2160.23 391.227 2160.83C392.397 2161.42 393.316 2162.23 393.984 2163.28C394.652 2164.3 394.987 2165.49 394.987 2166.85C394.987 2168.19 394.652 2169.38 393.984 2170.42C393.316 2171.47 392.397 2172.29 391.227 2172.9C390.078 2173.48 388.773 2173.77 387.311 2173.77C385.869 2173.77 384.564 2173.48 383.394 2172.9C382.246 2172.29 381.337 2171.47 380.669 2170.42C380 2169.38 379.666 2168.19 379.666 2166.85C379.666 2165.49 380 2164.3 380.669 2163.28C381.337 2162.23 382.246 2161.42 383.394 2160.83C384.564 2160.23 385.869 2159.92 387.311 2159.92ZM387.311 2163.37C386.6 2163.37 385.963 2163.51 385.399 2163.78C384.856 2164.05 384.428 2164.45 384.115 2164.97C383.802 2165.49 383.645 2166.12 383.645 2166.85C383.645 2167.56 383.802 2168.18 384.115 2168.7C384.428 2169.22 384.856 2169.62 385.399 2169.89C385.963 2170.16 386.6 2170.3 387.311 2170.3C388.021 2170.3 388.647 2170.16 389.19 2169.89C389.754 2169.62 390.193 2169.22 390.506 2168.7C390.82 2168.18 390.976 2167.56 390.976 2166.85C390.976 2166.12 390.82 2165.49 390.506 2164.97C390.193 2164.45 389.754 2164.05 389.19 2163.78C388.647 2163.51 388.021 2163.37 387.311 2163.37ZM399.404 2158.73H403.603V2174.31H399.404V2158.73ZM384.334 2175.59H388.47V2178.32H399.467V2175.59H403.603V2187.43H384.334V2175.59ZM388.47 2181.51V2184.11H399.467V2181.51H388.47ZM429.009 2158.7H432.957V2187.72H429.009V2158.7ZM425.312 2169.64H430.137V2172.99H425.312V2169.64ZM416.665 2162.27H420.676C420.676 2164.32 420.498 2166.26 420.143 2168.1C419.809 2169.94 419.245 2171.68 418.451 2173.33C417.657 2174.96 416.582 2176.49 415.224 2177.91C413.887 2179.31 412.206 2180.6 410.18 2181.79L407.767 2178.88C409.96 2177.59 411.704 2176.16 412.999 2174.62C414.315 2173.05 415.255 2171.33 415.819 2169.45C416.383 2167.55 416.665 2165.44 416.665 2163.12V2162.27ZM409.208 2162.27H417.887V2165.6H409.208V2162.27ZM422.555 2159.45H426.472V2186.46H422.555V2159.45ZM437.78 2159.99H441.915V2163.43H447.618V2159.99H451.722V2172.68H437.78V2159.99ZM441.915 2166.54V2169.45H447.618V2166.54H441.915ZM455.607 2158.73H459.774V2173.46H455.607V2158.73ZM458.113 2164.28H463.596V2167.69H458.113V2164.28ZM440.631 2174.56H459.774V2182.48H444.798V2185.9H440.662V2179.51H455.67V2177.75H440.631V2174.56ZM440.662 2184.3H460.62V2187.56H440.662V2184.3ZM467.353 2171.39H469.86C471.844 2171.39 473.588 2171.38 475.092 2171.36C476.617 2171.32 478.027 2171.25 479.322 2171.14C480.638 2171.04 481.964 2170.88 483.301 2170.67L483.708 2173.9C482.33 2174.11 480.962 2174.27 479.604 2174.4C478.267 2174.5 476.815 2174.58 475.249 2174.62C473.682 2174.64 471.886 2174.65 469.86 2174.65H467.353V2171.39ZM467.353 2160.36H481.327V2163.65H471.489V2172.71H467.353V2160.36ZM470.205 2165.85H480.481V2169.1H470.205V2165.85ZM485.713 2158.73H489.88V2175.97H485.713V2158.73ZM470.581 2177.16H489.88V2187.43H470.581V2177.16ZM485.807 2180.42H474.685V2184.14H485.807V2180.42Z" fill="#333333"/>
<rect x="311.03" y="2257.64" width="274.369" height="90.038" fill="white"/>
<rect x="311.03" y="2257.64" width="274.369" height="90.038" stroke="#ECECEC" stroke-width="1.95817"/>
<path d="M363.314 2293.69H371.898V2297.04H363.314V2293.69ZM363.314 2300.15H371.898V2303.47H363.314V2300.15ZM358.489 2291.47C359.951 2291.47 361.256 2291.78 362.405 2292.41C363.554 2293.01 364.462 2293.85 365.131 2294.91C365.82 2295.98 366.165 2297.2 366.165 2298.58C366.165 2299.94 365.82 2301.15 365.131 2302.21C364.462 2303.28 363.554 2304.12 362.405 2304.75C361.256 2305.36 359.951 2305.66 358.489 2305.66C357.068 2305.66 355.773 2305.36 354.604 2304.75C353.455 2304.12 352.536 2303.28 351.847 2302.21C351.178 2301.15 350.844 2299.94 350.844 2298.58C350.844 2297.2 351.178 2295.98 351.847 2294.91C352.536 2293.85 353.455 2293.01 354.604 2292.41C355.773 2291.78 357.068 2291.47 358.489 2291.47ZM358.489 2294.98C357.799 2294.98 357.173 2295.12 356.609 2295.42C356.045 2295.69 355.596 2296.09 355.262 2296.64C354.948 2297.16 354.792 2297.81 354.792 2298.58C354.792 2299.31 354.948 2299.95 355.262 2300.49C355.596 2301.03 356.045 2301.45 356.609 2301.74C357.173 2302.02 357.799 2302.15 358.489 2302.15C359.22 2302.15 359.857 2302.02 360.4 2301.74C360.964 2301.45 361.403 2301.03 361.716 2300.49C362.029 2299.95 362.186 2299.31 362.186 2298.58C362.186 2297.81 362.029 2297.16 361.716 2296.64C361.403 2296.09 360.964 2295.69 360.4 2295.42C359.857 2295.12 359.22 2294.98 358.489 2294.98ZM370.582 2289.93H374.781V2306.91H370.582V2289.93ZM364.943 2307.51C366.99 2307.51 368.744 2307.74 370.206 2308.2C371.689 2308.64 372.838 2309.28 373.653 2310.14C374.467 2311 374.875 2312.02 374.875 2313.21C374.875 2314.4 374.467 2315.42 373.653 2316.28C372.838 2317.16 371.689 2317.82 370.206 2318.26C368.744 2318.71 366.99 2318.94 364.943 2318.94C362.896 2318.94 361.131 2318.71 359.648 2318.26C358.165 2317.82 357.016 2317.16 356.202 2316.28C355.408 2315.42 355.011 2314.4 355.011 2313.21C355.011 2312.02 355.408 2311 356.202 2310.14C357.016 2309.28 358.165 2308.64 359.648 2308.2C361.131 2307.74 362.896 2307.51 364.943 2307.51ZM364.943 2310.7C363.69 2310.7 362.624 2310.8 361.747 2310.99C360.87 2311.17 360.212 2311.46 359.773 2311.83C359.335 2312.19 359.115 2312.65 359.115 2313.21C359.115 2313.77 359.335 2314.24 359.773 2314.62C360.212 2315 360.87 2315.28 361.747 2315.47C362.624 2315.63 363.69 2315.72 364.943 2315.72C366.217 2315.72 367.282 2315.63 368.139 2315.47C369.016 2315.28 369.674 2315 370.112 2314.62C370.551 2314.24 370.77 2313.77 370.77 2313.21C370.77 2312.65 370.551 2312.19 370.112 2311.83C369.674 2311.46 369.016 2311.17 368.139 2310.99C367.282 2310.8 366.217 2310.7 364.943 2310.7ZM393.984 2296.32H401.253V2299.68H393.984V2296.32ZM387.311 2291.12C388.773 2291.12 390.078 2291.43 391.227 2292.03C392.397 2292.62 393.316 2293.43 393.984 2294.48C394.652 2295.5 394.987 2296.69 394.987 2298.05C394.987 2299.38 394.652 2300.57 393.984 2301.62C393.316 2302.66 392.397 2303.49 391.227 2304.09C390.078 2304.68 388.773 2304.97 387.311 2304.97C385.869 2304.97 384.564 2304.68 383.394 2304.09C382.246 2303.49 381.337 2302.66 380.669 2301.62C380 2300.57 379.666 2299.38 379.666 2298.05C379.666 2296.69 380 2295.5 380.669 2294.48C381.337 2293.43 382.246 2292.62 383.394 2292.03C384.564 2291.43 385.869 2291.12 387.311 2291.12ZM387.311 2294.57C386.6 2294.57 385.963 2294.7 385.399 2294.98C384.856 2295.25 384.428 2295.64 384.115 2296.17C383.802 2296.69 383.645 2297.32 383.645 2298.05C383.645 2298.76 383.802 2299.37 384.115 2299.9C384.428 2300.42 384.856 2300.81 385.399 2301.09C385.963 2301.36 386.6 2301.49 387.311 2301.49C388.021 2301.49 388.647 2301.36 389.19 2301.09C389.754 2300.81 390.193 2300.42 390.506 2299.9C390.82 2299.37 390.976 2298.76 390.976 2298.05C390.976 2297.32 390.82 2296.69 390.506 2296.17C390.193 2295.64 389.754 2295.25 389.19 2294.98C388.647 2294.7 388.021 2294.57 387.311 2294.57ZM399.404 2289.93H403.603V2305.5H399.404V2289.93ZM384.334 2306.79H388.47V2309.51H399.467V2306.79H403.603V2318.63H384.334V2306.79ZM388.47 2312.71V2315.31H399.467V2312.71H388.47ZM416.808 2316.16V2292.94H421.445V2316.16H416.808ZM433.559 2292.63H447.438V2311.86H433.559V2292.63ZM443.334 2295.92H437.663V2308.61H443.334V2295.92ZM451.198 2289.93H455.396V2318.94H451.198V2289.93ZM454.488 2300.87H459.595V2304.28H454.488V2300.87ZM470.37 2293.19H474.286C474.286 2295.26 474.13 2297.23 473.816 2299.11C473.524 2300.99 472.991 2302.77 472.219 2304.44C471.446 2306.11 470.37 2307.69 468.992 2309.17C467.613 2310.63 465.848 2311.99 463.697 2313.24L461.347 2310.33C463.143 2309.28 464.616 2308.19 465.764 2307.04C466.934 2305.87 467.853 2304.62 468.522 2303.28C469.19 2301.92 469.66 2300.47 469.931 2298.92C470.224 2297.38 470.37 2295.71 470.37 2293.91V2293.19ZM462.976 2293.19H471.623V2296.48H462.976V2293.19ZM470.401 2299.8V2302.87L462.005 2303.75L461.535 2300.24L470.401 2299.8ZM471.905 2300.87H477.827V2304.19H471.905V2300.87ZM482.495 2289.9H486.474V2318.91H482.495V2289.9ZM476.448 2290.53H480.333V2317.63H476.448V2290.53ZM491.892 2302.93H494.398C496.383 2302.93 498.127 2302.92 499.631 2302.9C501.155 2302.86 502.565 2302.79 503.86 2302.68C505.176 2302.58 506.502 2302.42 507.839 2302.21L508.247 2305.47C506.868 2305.68 505.5 2305.85 504.142 2305.97C502.805 2306.08 501.354 2306.15 499.787 2306.19C498.221 2306.21 496.424 2306.22 494.398 2306.22H491.892V2302.93ZM491.892 2291.91H505.865V2295.23H496.028V2304.25H491.892V2291.91ZM494.743 2297.42H505.019V2300.65H494.743V2297.42ZM510.252 2289.93H514.419V2307.48H510.252V2289.93ZM504.612 2307.92C506.659 2307.92 508.424 2308.14 509.907 2308.57C511.39 2309.01 512.528 2309.64 513.322 2310.45C514.137 2311.27 514.544 2312.26 514.544 2313.43C514.544 2315.18 513.656 2316.54 511.881 2317.5C510.106 2318.46 507.683 2318.94 504.612 2318.94C501.542 2318.94 499.119 2318.46 497.343 2317.5C495.589 2316.54 494.712 2315.18 494.712 2313.43C494.712 2311.7 495.589 2310.35 497.343 2309.39C499.119 2308.41 501.542 2307.92 504.612 2307.92ZM504.612 2311.08C503.359 2311.08 502.304 2311.16 501.448 2311.33C500.591 2311.5 499.944 2311.76 499.505 2312.11C499.067 2312.47 498.847 2312.91 498.847 2313.43C498.847 2313.95 499.067 2314.39 499.505 2314.75C499.944 2315.08 500.591 2315.33 501.448 2315.5C502.304 2315.67 503.359 2315.75 504.612 2315.75C505.886 2315.75 506.941 2315.67 507.777 2315.5C508.633 2315.33 509.28 2315.08 509.719 2314.75C510.179 2314.39 510.408 2313.95 510.408 2313.43C510.408 2312.91 510.179 2312.47 509.719 2312.11C509.28 2311.76 508.633 2311.5 507.777 2311.33C506.941 2311.16 505.886 2311.08 504.612 2311.08ZM520.714 2302.59H523.22C525.205 2302.59 526.949 2302.58 528.452 2302.56C529.977 2302.52 531.387 2302.44 532.682 2302.34C533.998 2302.23 535.324 2302.08 536.661 2301.87L537.068 2305.1C535.69 2305.31 534.322 2305.47 532.964 2305.6C531.627 2305.7 530.176 2305.78 528.609 2305.82C527.043 2305.84 525.246 2305.85 523.22 2305.85H520.714V2302.59ZM520.714 2291.56H534.687V2294.85H524.849V2303.91H520.714V2291.56ZM523.565 2297.04H533.841V2300.3H523.565V2297.04ZM539.074 2289.93H543.241V2307.16H539.074V2289.93ZM523.941 2308.35H543.241V2318.63H523.941V2308.35ZM539.168 2311.61H528.045V2315.34H539.168V2311.61Z" fill="#333333"/>
<rect x="311.03" y="2388.83" width="221.369" height="90.038" fill="white"/>
<rect x="311.03" y="2388.83" width="221.369" height="90.038" stroke="#ECECEC" stroke-width="1.95817"/>
<path d="M353.507 2422.79H371.679V2426.08H353.507V2422.79ZM350.499 2435.13H376.755V2438.52H350.499V2435.13ZM361.371 2437.52H365.57V2450.14H361.371V2437.52ZM369.549 2422.79H373.653V2425.36C373.653 2426.4 373.632 2427.51 373.59 2428.68C373.569 2429.85 373.486 2431.13 373.34 2432.53C373.193 2433.91 372.922 2435.46 372.525 2437.17L368.452 2436.67C368.995 2434.27 369.308 2432.17 369.392 2430.37C369.496 2428.56 369.549 2426.88 369.549 2425.36V2422.79ZM400.25 2421.1H404.229V2450.11H400.25V2421.1ZM396.773 2432.19H401.597V2435.51H396.773V2432.19ZM393.921 2421.57H397.806V2448.83H393.921V2421.57ZM380.136 2424.07H391.572V2442.87H380.136V2424.07ZM387.718 2427.33H384.021V2439.65H387.718V2427.33ZM414.629 2425.7H417.918V2428.96C417.918 2430.57 417.741 2432.18 417.386 2433.79C417.052 2435.4 416.55 2436.91 415.882 2438.33C415.213 2439.73 414.368 2440.98 413.344 2442.09C412.342 2443.2 411.172 2444.06 409.835 2444.69L407.485 2441.4C408.697 2440.84 409.741 2440.1 410.618 2439.18C411.516 2438.26 412.258 2437.23 412.843 2436.11C413.449 2434.98 413.898 2433.81 414.19 2432.6C414.482 2431.36 414.629 2430.15 414.629 2428.96V2425.7ZM415.506 2425.7H418.796V2428.96C418.796 2430.05 418.942 2431.17 419.234 2432.31C419.527 2433.46 419.955 2434.57 420.519 2435.64C421.104 2436.7 421.835 2437.67 422.712 2438.55C423.61 2439.41 424.655 2440.11 425.845 2440.65L423.527 2443.97C422.19 2443.34 421.02 2442.51 420.018 2441.46C419.036 2440.4 418.2 2439.2 417.511 2437.86C416.843 2436.5 416.341 2435.07 416.007 2433.57C415.673 2432.04 415.506 2430.51 415.506 2428.96V2425.7ZM408.613 2423.89H424.561V2427.33H408.613V2423.89ZM426.66 2421.13H430.858V2450.14H426.66V2421.13ZM429.949 2432.19H435.056V2435.6H429.949V2432.19ZM458.113 2421.1H462.092V2450.11H458.113V2421.1ZM454.667 2432.22H459.461V2435.6H454.667V2432.22ZM451.879 2421.57H455.764V2448.83H451.879V2421.57ZM442.135 2425.64H445.299V2428.18C445.299 2429.98 445.184 2431.71 444.954 2433.38C444.746 2435.03 444.39 2436.58 443.889 2438.02C443.409 2439.44 442.761 2440.71 441.947 2441.84C441.132 2442.97 440.119 2443.89 438.908 2444.6L436.401 2441.43C437.842 2440.58 438.981 2439.47 439.816 2438.11C440.652 2436.75 441.247 2435.23 441.602 2433.54C441.957 2431.82 442.135 2430.04 442.135 2428.18V2425.64ZM442.981 2425.64H446.145V2428.18C446.145 2429.87 446.323 2431.51 446.678 2433.1C447.054 2434.69 447.659 2436.11 448.495 2437.36C449.351 2438.61 450.5 2439.61 451.941 2440.37L449.56 2443.53C447.931 2442.65 446.636 2441.44 445.675 2439.9C444.714 2438.35 444.025 2436.58 443.607 2434.57C443.189 2432.57 442.981 2430.43 442.981 2428.18V2425.64ZM437.31 2424.04H450.5V2427.4H437.31V2424.04ZM467.353 2433.79H469.86C471.844 2433.79 473.588 2433.78 475.092 2433.76C476.617 2433.71 478.027 2433.64 479.322 2433.54C480.638 2433.43 481.964 2433.28 483.301 2433.07L483.708 2436.29C482.33 2436.5 480.962 2436.67 479.604 2436.8C478.267 2436.9 476.815 2436.97 475.249 2437.01C473.682 2437.04 471.886 2437.05 469.86 2437.05H467.353V2433.79ZM467.353 2422.76H481.327V2426.05H471.489V2435.1H467.353V2422.76ZM470.205 2428.24H480.481V2431.5H470.205V2428.24ZM485.713 2421.13H489.88V2438.36H485.713V2421.13ZM470.581 2439.55H489.88V2449.83H470.581V2439.55ZM485.807 2442.81H474.685V2446.54H485.807V2442.81Z" fill="#333333"/>
</svg>
