<svg width="136" height="26" viewBox="0 0 136 26" fill="none" xmlns="http://www.w3.org/2000/svg">
<path d="M7.27996 14.8201L11.31 5.13507H14.365L10.79 13.6501H15.6C16.64 13.6501 17.485 13.0651 18.07 11.9601L19.24 9.23007C19.5 8.19007 19.11 7.67007 18.07 7.67007H14.69L15.73 5.13507H19.89C22.62 5.13507 23.53 6.30507 22.555 8.64507L20.865 12.6751L18.46 18.4601H19.305C20.345 18.4601 21.19 17.8751 21.775 16.7701L24.635 9.94507H27.69L24.83 16.7701C24.57 17.8751 24.895 18.4601 25.935 18.4601H26.78L30.225 10.2051L30.355 9.94507H32.5C32.175 8.71007 31.72 7.60507 31.135 6.56507C28.925 2.79507 24.765 0.195068 20.02 0.195068C16.185 0.260068 12.74 1.95007 10.4 4.61507C10.205 4.81007 10.075 5.00507 9.87996 5.20007C8.18996 7.41007 7.14996 10.1401 7.14996 13.1301C7.14996 13.7151 7.21496 14.2351 7.27996 14.8201Z" fill="white"/>
<path d="M32.825 11.4401L31.33 14.9501L29.9 18.3301L28.86 20.8651L28.73 21.1251H28.34H26.845H24.05C22.945 21.1251 22.165 20.9301 21.71 20.6051C20.93 20.9951 19.955 21.1251 18.915 21.1251H14.3L16.38 16.1851C16.055 16.2501 15.665 16.2501 15.275 16.2501H7.53998C10.14 19.9551 15.73 22.5551 22.23 22.5551C23.01 22.5551 23.725 22.4901 24.44 22.4251C24.895 22.3601 25.285 22.3601 25.74 22.2951C25.935 22.2951 26.13 22.2301 26.26 22.2301C25.35 22.4901 24.44 22.7501 23.465 22.8801C23.335 22.8801 23.205 22.9451 23.075 22.9451C21.84 23.1401 20.54 23.2701 19.175 23.2701C16.575 23.2701 14.17 22.8801 11.96 22.1651C11.31 21.9051 10.725 21.6451 10.14 21.3201C6.43498 19.3701 4.09498 16.2501 4.09498 12.8051C4.09498 9.88008 5.78498 7.21508 8.51498 5.33008C7.86498 5.59008 7.21498 5.91508 6.62998 6.24008C3.31498 8.12508 1.16998 10.9201 1.16998 14.0401C1.16998 18.9151 6.30498 22.9451 13.13 23.9851C15.145 25.2851 17.55 26.0001 20.085 26.0001C25.155 26.0001 29.51 23.0751 31.655 18.7851C32.5 17.0951 32.955 15.1451 32.955 13.1301C32.955 12.5451 32.89 12.0251 32.825 11.4401Z" fill="white"/>
<path d="M108.68 7.15015H115.83V9.03515H111.28V11.5701H115.83V13.4551H111.28V16.1851H115.83V18.1351H108.68V7.15015Z" fill="white"/>
<path d="M117.195 10.0102H119.47V11.1152C119.86 10.2702 120.575 9.81519 121.68 9.81519C122.265 9.81519 122.72 9.94519 123.11 10.1402C123.5 10.4002 123.695 10.6602 123.825 11.0502C123.955 11.4402 123.955 11.9602 123.955 12.7402V18.0702H121.55V12.7402C121.55 12.2202 121.485 11.8302 121.355 11.7002C121.225 11.5702 121.03 11.5052 120.77 11.5052C120.315 11.5052 120.055 11.6352 119.925 11.8952C119.795 12.1552 119.73 12.6102 119.73 13.2602V18.0052H117.325V10.0102H117.195Z" fill="white"/>
<path d="M131.56 14.1051H133.965C133.9 15.2751 133.445 16.3801 132.73 17.1601C132.015 17.8751 131.04 18.2651 129.87 18.2651C128.44 18.2651 127.335 17.7451 126.555 16.7701C125.775 15.7951 125.385 14.3651 125.385 12.6101C125.385 10.8551 125.775 9.42508 126.49 8.45008C127.27 7.47508 128.375 6.95508 129.87 6.95508C132.34 6.95508 133.64 8.38508 133.9 11.1801H131.56C131.495 9.55508 130.975 8.90508 129.935 8.90508C129.415 8.90508 128.96 9.16508 128.635 9.68508C128.31 10.2051 128.18 11.2451 128.18 12.7401C128.18 14.1051 128.31 15.0151 128.635 15.5351C128.96 16.0551 129.35 16.3151 129.935 16.3151C130.845 16.3151 131.43 15.6001 131.56 14.1051Z" fill="white"/>
<path d="M37.7 7.15015H40.82C42.055 7.15015 43.03 7.28015 43.745 7.60515C44.525 7.93015 45.11 8.45015 45.565 9.29515C46.02 10.1401 46.28 11.1801 46.28 12.6101C46.28 13.5851 46.15 14.4951 45.89 15.2101C45.63 15.9901 45.24 16.5751 44.785 17.0301C44.33 17.4851 43.81 17.7451 43.29 17.9401C42.705 18.0701 41.99 18.1351 41.145 18.1351H37.7V7.15015ZM40.235 9.03515V16.2501H41.015C41.6 16.2501 42.055 16.1201 42.38 15.9251C42.705 15.7301 42.965 15.3401 43.16 14.8201C43.355 14.3001 43.485 13.5201 43.485 12.4801C43.485 11.5701 43.355 10.8551 43.16 10.3351C42.965 9.81515 42.64 9.49015 42.315 9.29515C41.99 9.10015 41.535 9.03515 40.95 9.03515H40.235Z" fill="white"/>
<path d="M55.77 12.6101C55.77 16.3801 54.34 18.2651 51.48 18.2651C50.05 18.2651 49.01 17.8101 48.295 16.8351C47.58 15.8601 47.19 14.4951 47.19 12.6101C47.19 8.84008 48.62 6.95508 51.48 6.95508C52.845 6.95508 53.95 7.41008 54.665 8.38508C55.38 9.36008 55.77 10.7251 55.77 12.6101ZM53.04 12.6101C53.04 11.1151 52.91 10.1401 52.65 9.68508C52.39 9.16508 52 8.97008 51.48 8.97008C50.96 8.97008 50.57 9.23008 50.31 9.68508C50.05 10.2051 49.92 11.1801 49.92 12.6101C49.92 14.0401 50.05 15.0151 50.31 15.5351C50.57 16.0551 50.96 16.3151 51.48 16.3151C52 16.3151 52.39 16.0551 52.65 15.6001C52.91 15.0801 53.04 14.1051 53.04 12.6101Z" fill="white"/>
<path d="M61.945 16.4451L59.15 10.2051V18.1351H57.135V7.15015H58.63C58.63 7.15015 60.06 7.47515 60.58 8.51515L62.985 13.9751V7.15015H65V18.1351H64.22C62.66 18.1351 61.945 16.4451 61.945 16.4451Z" fill="white"/>
<path d="M103.415 16.4451L100.555 10.2051V18.1351H98.54V7.15015H100.035C100.035 7.15015 101.465 7.47515 101.985 8.51515L104.39 13.9751V7.15015H106.405V18.1351H105.625C104.13 18.1351 103.415 16.4451 103.415 16.4451Z" fill="white"/>
<path d="M74.555 15.9251C73.385 18.5251 70.7201 18.2651 70.7201 18.2651C69.3551 18.2651 68.3151 17.7451 67.5351 16.7701C66.7551 15.7951 66.3651 14.4951 66.3651 12.8051C66.3651 10.9851 66.7551 9.55508 67.5351 8.51508C68.3151 7.47508 69.42 6.95508 70.98 6.95508C73.385 6.95508 74.75 8.58008 75.01 11.0501H72.6701C72.5401 9.62008 71.955 8.90508 70.98 8.90508C70.395 8.90508 69.94 9.16508 69.615 9.68508C69.29 10.2051 69.0951 11.2451 69.0951 12.6751C69.0951 13.9751 69.29 14.8851 69.615 15.4701C69.94 15.9901 70.4601 16.2501 71.1101 16.2501C72.1501 16.2501 72.6701 15.5351 72.6701 14.0401H70.915V12.1551H75.01C75.075 13.8451 75.01 15.0801 74.555 15.9251Z" fill="white"/>
<path d="M97.175 12.6101C97.175 16.3801 95.745 18.2651 92.885 18.2651C91.455 18.2651 90.415 17.8101 89.7 16.8351C88.985 15.8601 88.595 14.4951 88.595 12.6101C88.595 8.84008 90.025 6.95508 92.885 6.95508C94.25 6.95508 95.355 7.41008 96.07 8.38508C96.85 9.36008 97.175 10.7251 97.175 12.6101ZM94.445 12.6101C94.445 11.1151 94.315 10.1401 94.055 9.68508C93.795 9.16508 93.405 8.97008 92.885 8.97008C92.365 8.97008 91.975 9.23008 91.715 9.68508C91.455 10.2051 91.325 11.1801 91.325 12.6101C91.325 14.0401 91.455 15.0151 91.715 15.5351C91.975 16.0551 92.365 16.3151 92.885 16.3151C93.405 16.3151 93.795 16.0551 94.055 15.6001C94.38 15.0801 94.445 14.1051 94.445 12.6101Z" fill="white"/>
<path d="M80.99 7.15015L79.43 14.7551L78.195 7.15015H75.53L78.065 18.2001H80.405L83.005 7.15015H80.99Z" fill="white"/>
<path d="M83.005 7.15015L84.565 14.7551L85.8 7.15015H88.465L85.865 18.2001H83.59L80.99 7.15015H83.005Z" fill="white"/>
</svg>
