<svg width="32" height="32" viewBox="0 0 32 32" fill="none" xmlns="http://www.w3.org/2000/svg">
<g id="left-icon">
<circle id="Ellipse 8" cx="16" cy="16" r="16" transform="matrix(1 0 0 -1 0 32)" fill="white"/>
<path id="Vector" d="M10 16.0002L14.707 20.7072C14.7998 20.8 14.9101 20.8736 15.0314 20.9239C15.1527 20.9741 15.2827 21 15.414 21C15.5453 21 15.6753 20.9741 15.7966 20.9239C15.9179 20.8736 16.0282 20.8 16.121 20.7072C16.2138 20.6143 16.2875 20.5041 16.3377 20.3828C16.388 20.2615 16.4138 20.1315 16.4138 20.0002C16.4138 19.8688 16.388 19.7388 16.3377 19.6175C16.2875 19.4962 16.2138 19.386 16.121 19.2932L13.828 17.0002L21.414 17.0002C21.6792 17.0002 21.9336 16.8948 22.1211 16.7073C22.3086 16.5197 22.414 16.2654 22.414 16.0002C22.414 15.7349 22.3086 15.4806 22.1211 15.293C21.9336 15.1055 21.6792 15.0002 21.414 15.0002L13.828 15.0002L16.121 12.7072C16.2142 12.6145 16.2881 12.5043 16.3386 12.383C16.3891 12.2617 16.415 12.1316 16.415 12.0002C16.415 11.8687 16.3891 11.7386 16.3386 11.6173C16.2881 11.496 16.2142 11.3858 16.121 11.2931C16.0282 11.2002 15.918 11.1265 15.7967 11.0762C15.6754 11.0258 15.5453 11 15.414 11C15.2827 11 15.1526 11.0258 15.0313 11.0762C14.91 11.1265 14.7998 11.2002 14.707 11.2931L10 16.0002Z" fill="#5A5A5A"/>
</g>
</svg>
