<svg width="20" height="26" viewBox="0 0 20 26" fill="none" xmlns="http://www.w3.org/2000/svg">
<g id="Group 186">
<path id="Vector" d="M0 9.7517C0.128406 4.63255 4.15663 0.403457 9.35708 0.0259141C14.4488 -0.343509 19.1046 3.27867 19.8781 8.21717C20.2757 10.7524 19.6627 13.1222 18.5889 15.3996C16.8409 19.106 14.2396 22.2015 11.3008 25.0473C11.0802 25.2614 10.8545 25.4715 10.6256 25.6765C10.1462 26.1058 9.95976 26.1099 9.48445 25.6765C7.70023 24.0476 6.05787 22.2908 4.5988 20.3747C2.86739 18.1003 1.36069 15.699 0.600609 12.9304C0.315838 11.8942 0.195716 10.8143 0 9.75373L0 9.7517ZM10.0001 24.6829C10.0975 24.6372 10.1337 24.6301 10.1565 24.6078C13.0653 21.8351 15.6542 18.8208 17.4415 15.2149C18.4428 13.1953 19.0735 11.0853 18.8374 8.80886C18.4491 5.06388 15.4305 1.88115 11.6891 1.23872C7.69298 0.553662 3.80144 2.48806 2.08556 6.02296C0.885381 8.49526 1.00965 11.0051 1.94577 13.5089C3.60262 17.9359 6.65951 21.3987 9.99911 24.6839L10.0001 24.6829Z" fill="white"/>
<path id="Vector_2" d="M15.5682 9.75072C15.5693 12.7569 13.1099 15.1632 10.0437 15.1571C6.97849 15.151 4.52945 12.7366 4.54084 9.72839C4.55223 6.74458 6.99402 4.35551 10.0406 4.3484C13.1088 4.3413 15.5682 6.74458 15.5693 9.75072H15.5682ZM5.63229 9.74767C5.62712 12.1144 7.6143 14.0722 10.0364 14.0874C12.4461 14.1026 14.4499 12.1601 14.4768 9.78421C14.5027 7.4063 12.4813 5.41405 10.0478 5.42014C7.62777 5.42623 5.63851 7.37687 5.63333 9.74869L5.63229 9.74767Z" fill="white"/>
</g>
</svg>
