<svg width="12" height="12" viewBox="0 0 12 12" fill="none" xmlns="http://www.w3.org/2000/svg">
<path d="M6 12C5.17422 12 4.39644 11.8422 3.66667 11.5267C2.93689 11.2111 2.30133 10.7822 1.76 10.24C1.21778 9.69911 0.788889 9.06356 0.473333 8.33333C0.157778 7.60356 0 6.82578 0 6C0 5.172 0.157778 4.39356 0.473333 3.66467C0.789333 2.93578 1.21822 2.30067 1.76 1.75933C2.30089 1.218 2.93644 0.789556 3.66667 0.474C4.39644 0.158 5.17422 0 6 0C6.828 0 7.60644 0.157778 8.33533 0.473333C9.06422 0.789333 9.69933 1.21822 10.2407 1.76C10.782 2.30133 11.2104 2.93622 11.526 3.66467C11.842 4.39356 12 5.172 12 6C12 6.82578 11.8422 7.60356 11.5267 8.33333C11.2111 9.06311 10.7822 9.69867 10.24 10.24C9.69867 10.7818 9.06378 11.2107 8.33533 11.5267C7.60644 11.8422 6.828 12 6 12ZM6 11.3387C6.39111 10.836 6.71378 10.3424 6.968 9.858C7.22178 9.37356 7.42822 8.83133 7.58733 8.23133H4.41267C4.58867 8.86511 4.79933 9.42422 5.04467 9.90867C5.29 10.3931 5.60844 10.8698 6 11.3387ZM5.15133 11.2387C4.84022 10.872 4.55622 10.4187 4.29933 9.87867C4.04244 9.33911 3.85133 8.78978 3.726 8.23067H1.16867C1.55089 9.06 2.09244 9.74 2.79333 10.2707C3.49467 10.8013 4.28044 11.124 5.15067 11.2387M6.848 11.2387C7.71822 11.124 8.504 10.8013 9.20533 10.2707C9.90667 9.74 10.4482 9.06 10.83 8.23067H8.274C8.10511 8.79822 7.89245 9.352 7.636 9.892C7.37911 10.4316 7.11644 10.8804 6.848 11.2387ZM0.896667 7.564H3.58667C3.536 7.29067 3.50044 7.02422 3.48 6.76467C3.45867 6.50511 3.448 6.25022 3.448 6C3.448 5.74978 3.45844 5.49489 3.47933 5.23533C3.50022 4.97578 3.53578 4.70911 3.586 4.43533H0.898C0.825556 4.66644 0.768889 4.91822 0.728 5.19067C0.687111 5.46311 0.666667 5.73289 0.666667 6C0.666667 6.26756 0.686889 6.53733 0.727333 6.80933C0.768222 7.08178 0.824889 7.33333 0.897333 7.564M4.254 7.564H7.746C7.79667 7.29067 7.83222 7.02844 7.85267 6.77733C7.874 6.52667 7.88467 6.26756 7.88467 6C7.88467 5.73244 7.87422 5.47333 7.85333 5.22267C7.83244 4.97156 7.79689 4.70933 7.74667 4.436H4.25333C4.20311 4.70933 4.16756 4.97156 4.14667 5.22267C4.12578 5.47333 4.11533 5.73244 4.11533 6C4.11533 6.26756 4.12578 6.52667 4.14667 6.77733C4.16756 7.02844 4.20378 7.29067 4.254 7.564ZM8.41333 7.564H11.1027C11.1751 7.33289 11.2318 7.08133 11.2727 6.80933C11.3136 6.53733 11.3338 6.26756 11.3333 6C11.3333 5.73244 11.3131 5.46267 11.2727 5.19067C11.2318 4.91822 11.1751 4.66667 11.1027 4.436H8.41267C8.46333 4.70933 8.49889 4.97578 8.51933 5.23533C8.54067 5.49489 8.55133 5.74978 8.55133 6C8.55133 6.25022 8.54089 6.50511 8.52 6.76467C8.49911 7.02422 8.46356 7.29089 8.41333 7.56467M8.27467 3.76933H10.8307C10.44 2.92311 9.90489 2.24311 9.22533 1.72933C8.54533 1.21556 7.75311 0.888889 6.84867 0.749333C7.15978 1.15822 7.43956 1.62622 7.688 2.15333C7.936 2.68 8.13156 3.21867 8.27467 3.76933ZM4.41267 3.76933H7.58733C7.41133 3.14356 7.19422 2.57778 6.936 2.072C6.67822 1.56578 6.36622 1.09556 6 0.661333C5.63422 1.09556 5.32222 1.56578 5.064 2.072C4.80622 2.57778 4.58911 3.14356 4.41267 3.76933ZM1.16933 3.76933H3.72533C3.86844 3.21867 4.064 2.68 4.312 2.15333C4.56044 1.62622 4.84022 1.158 5.15133 0.748667C4.23844 0.888667 3.44422 1.21756 2.76867 1.73533C2.09311 2.25356 1.55978 2.93133 1.16867 3.76867" fill="#212529"/>
</svg>
