<svg width="8" height="8" viewBox="0 0 8 8" fill="none" xmlns="http://www.w3.org/2000/svg">
<path id="Vector" d="M0.115031 1.29222C0.191993 1.15861 0.303107 1.04787 0.436978 0.971365C0.570851 0.894858 0.722662 0.855334 0.876846 0.856846L7.12351 0.856846C7.2777 0.855334 7.42951 0.894858 7.56338 0.971365C7.69725 1.04787 7.80837 1.15861 7.88533 1.29222C7.96042 1.42075 8 1.56694 8 1.71581C8 1.86467 7.96042 2.01086 7.88533 2.1394L4.76271 7.56353C4.68466 7.69642 4.57324 7.8066 4.43948 7.88316C4.30573 7.95972 4.15429 8 4.00018 8C3.84607 8 3.69463 7.95972 3.56087 7.88316C3.42712 7.8066 3.3157 7.69642 3.23765 7.56353L0.114317 2.1394C0.0393281 2.0108 -0.000124395 1.86457 1.02623e-06 1.71571C0.000126447 1.56685 0.039826 1.42069 0.115031 1.29222Z" fill="white"/>
</svg>
