<svg width="32" height="32" viewBox="0 0 32 32" fill="none" xmlns="http://www.w3.org/2000/svg">
<g id="right-icon">
<circle id="Ellipse 8" cx="16" cy="16" r="16" transform="matrix(-1 -8.74228e-08 -8.74228e-08 1 32 0)" fill="white"/>
<path id="Vector" d="M22 15.9998L17.293 11.2928C17.2002 11.2 17.0899 11.1264 16.9686 11.0761C16.8473 11.0259 16.7173 11 16.586 11C16.4547 11 16.3247 11.0259 16.2034 11.0761C16.0821 11.1264 15.9718 11.2 15.879 11.2928C15.7862 11.3857 15.7125 11.4959 15.6623 11.6172C15.612 11.7385 15.5862 11.8685 15.5862 11.9998C15.5862 12.1312 15.612 12.2612 15.6623 12.3825C15.7125 12.5038 15.7862 12.614 15.879 12.7068L18.172 14.9998L10.586 14.9998C10.3208 14.9998 10.0664 15.1052 9.87889 15.2927C9.69136 15.4803 9.586 15.7346 9.586 15.9998C9.586 16.2651 9.69136 16.5194 9.87889 16.707C10.0664 16.8945 10.3208 16.9998 10.586 16.9998L18.172 16.9998L15.879 19.2928C15.7858 19.3855 15.7119 19.4957 15.6614 19.617C15.6109 19.7383 15.585 19.8684 15.585 19.9998C15.585 20.1313 15.6109 20.2614 15.6614 20.3827C15.7119 20.504 15.7858 20.6142 15.879 20.7068C15.9718 20.7998 16.082 20.8735 16.2033 20.9238C16.3246 20.9742 16.4547 21 16.586 21C16.7173 21 16.8474 20.9742 16.9687 20.9238C17.09 20.8735 17.2002 20.7998 17.293 20.7068L22 15.9998Z" fill="#5A5A5A"/>
</g>
</svg>
