<?xml version="1.0" encoding="utf-8"?>
<!-- Generator: Adobe Illustrator 24.1.1, SVG Export Plug-In . SVG Version: 6.00 Build 0)  -->
<svg version="1.1" id="레이어_1" xmlns="http://www.w3.org/2000/svg" xmlns:xlink="http://www.w3.org/1999/xlink" x="0px"
	 y="0px" viewBox="0 0 56 56" style="enable-background:new 0 0 56 56;" xml:space="preserve">
<style type="text/css">
	.st0{fill:none;stroke:#FF8C46;stroke-width:3;stroke-linejoin:round;stroke-miterlimit:10;}
</style>
<g>
	<path class="st0" d="M44.6,27.9c0,9-7.3,16.3-16.3,16.3c-9,0-16.3-7.3-16.3-16.3c0-9,7.3-16.3,16.3-16.3
		C37.3,11.6,44.6,18.9,44.6,27.9z"/>
	<line class="st0" x1="28.3" y1="0" x2="28.3" y2="6"/>
	<line class="st0" x1="14.3" y1="3.7" x2="17.3" y2="8.9"/>
	<line class="st0" x1="4.1" y1="14" x2="9.3" y2="17"/>
	<line class="st0" x1="0.3" y1="27.9" x2="6.3" y2="27.9"/>
	<line class="st0" x1="4.1" y1="41.9" x2="9.3" y2="38.9"/>
	<line class="st0" x1="14.3" y1="52.1" x2="17.3" y2="46.9"/>
	<line class="st0" x1="28.3" y1="55.9" x2="28.3" y2="49.9"/>
	<line class="st0" x1="42.2" y1="52.1" x2="39.2" y2="46.9"/>
	<line class="st0" x1="52.5" y1="41.9" x2="47.3" y2="38.9"/>
	<line class="st0" x1="56.2" y1="27.9" x2="50.2" y2="27.9"/>
	<line class="st0" x1="52.5" y1="14" x2="47.3" y2="17"/>
	<line class="st0" x1="42.2" y1="3.7" x2="39.2" y2="8.9"/>
</g>
</svg>
